<svg viewBox="0 0 28 28" fill="none" xmlns="http://www.w3.org/2000/svg">
<g clip-path="url(#clip0_213_120)">
<path d="M22.737 18.6428H5.62988V1.22196C5.62988 0.547091 6.17697 0 6.85184 0H24.8143L22.737 2.1901V18.6428Z" fill="#547F98"/>
<path d="M26.863 2.05593C26.863 0.920488 25.9392 0 24.7997 0C23.6601 0 22.7363 0.920428 22.7363 2.05593V4.8785H26.8631L26.863 2.05593Z" fill="#264B60"/>
<path d="M21.4276 22.3278L19.6528 20.8333L19.2758 19.8693L17.9311 16.4598L13.171 15.6843L12.4754 15.1576C12.4754 15.1576 10.9 13.9944 9.37128 13.8208C8.74795 13.75 8.14376 13.5507 7.60761 13.225C7.03511 12.8772 6.50016 12.3711 6.53938 11.705L5.84939 11.9063L0.692383 17.5306L1.12826 17.777C1.89754 18.212 2.54849 18.8287 3.02801 19.5793L3.04667 19.6085C3.53534 20.3728 4.21346 20.9978 5.01512 21.4225L5.69489 21.7826L10.7602 25.7428L13.4378 27.7888C13.8864 28.1444 14.5368 28.0364 14.9115 27.5737C15.3245 27.0637 15.2463 26.3157 14.7371 25.9019C14.7371 25.902 14.2279 25.4882 14.7371 25.9019L15.6029 26.603C16.1004 27.0059 16.8303 26.9292 17.2331 26.4318C17.636 25.9343 17.5592 25.2044 17.0617 24.8015L18.0099 25.5694C18.5075 25.9723 19.2373 25.8956 19.6402 25.3981C20.0431 24.9007 19.9663 24.1708 19.4688 23.7679L19.9297 24.1411C20.4344 24.5498 21.1749 24.4721 21.5837 23.9675L21.5838 23.9673C21.9871 23.4696 21.9177 22.7405 21.4276 22.3278Z" fill="#FFDECF"/>
<path d="M20.5407 23.5301L20.0798 23.1569L17.7348 21.2579L17.1064 21.8548L19.4688 23.7679L19.9297 24.1411C20.4344 24.5499 21.1749 24.4721 21.5837 23.9676L21.5839 23.9674C21.6507 23.8844 21.706 23.7928 21.7482 23.6949C21.3592 23.8629 20.8927 23.8153 20.5407 23.5301Z" fill="#FFC7B3"/>
<path d="M15.3496 25.2909H15.3486L15.3496 25.2919V25.2909Z" fill="#FFDECF"/>
<path d="M14.0492 27.1778L12.2492 25.8023L10.7607 25.7427L13.4383 27.7887C13.8869 28.1444 14.5373 28.0364 14.912 27.5737C14.9789 27.4906 15.0343 27.3988 15.0767 27.301C14.739 27.4451 14.3491 27.4155 14.0492 27.1778Z" fill="#FFC7B3"/>
<path d="M16.2137 25.992L15.3479 25.2909L13.6453 23.8931L13.0381 24.5071L14.737 25.9019L15.6028 26.603C16.1003 27.0059 16.8302 26.9292 17.233 26.4317C17.3003 26.3484 17.3556 26.2561 17.3974 26.1575C17.0154 26.3197 16.5588 26.2714 16.2137 25.992ZM18.6208 24.9584L17.6726 24.1905L15.7484 22.6953L15.0309 23.22L17.0616 24.8015L18.0098 25.5694C18.5073 25.9722 19.2372 25.8956 19.6401 25.3981C19.7073 25.3147 19.7626 25.2224 19.8044 25.1239C19.4225 25.2861 18.9659 25.2378 18.6208 24.9584Z" fill="#FFC7B3"/>
<path d="M5.72586 10.8827L7.50465 12.0824C7.84875 12.3145 7.93886 12.7823 7.70561 13.1258L3.15668 19.8246C2.92469 20.1662 2.46041 20.2558 2.11823 20.025L0.339613 18.8254C-0.00448682 18.5934 -0.0948914 18.1261 0.138295 17.7825L4.68758 11.0827C4.91957 10.7411 5.38361 10.6519 5.72586 10.8827Z" fill="#F761A6"/>
<path d="M2.59343 17.4224C2.86548 17.6058 2.93735 17.9747 2.75385 18.2465C2.57041 18.5182 2.20108 18.5899 1.92903 18.4065C1.65698 18.2232 1.58511 17.8542 1.76861 17.5824C1.95211 17.3107 2.32138 17.2391 2.59343 17.4224Z" fill="white"/>
<path d="M9.89758 14.8251L13.0396 12.906C13.3512 12.7157 13.7015 12.5977 14.0647 12.5608C14.4279 12.5239 14.7948 12.5689 15.1383 12.6926L17.3468 13.4877C17.8039 13.6523 18.2997 13.6767 18.7708 13.5578L22.3182 12.6623L25.4015 19.0665C25.4015 19.0665 24.2101 21.6675 21.1876 22.1257L14.0573 15.9953L12.3579 16.5035L11.2531 17.8645C10.4647 18.8358 9.10535 19.1253 7.98958 18.5595C7.65744 18.3911 7.55239 17.967 7.76746 17.663L9.53752 15.1615C9.63343 15.0261 9.75595 14.9116 9.89758 14.8251Z" fill="#F9AC91"/>
<path d="M22.7966 10.9169L20.9385 11.9895C20.5791 12.197 20.4566 12.6574 20.6653 13.0163L24.7362 20.0164C24.9438 20.3734 25.4008 20.4951 25.7583 20.2887L27.6161 19.2163C27.9756 19.0089 28.0983 18.5489 27.8896 18.1901C26.9876 16.6388 24.7175 12.7351 23.8183 11.1889C23.6107 10.832 23.1541 10.7106 22.7966 10.9169Z" fill="#6262F4"/>
<path d="M25.4661 17.6595C25.182 17.8233 25.0845 18.1864 25.2487 18.4703C25.4128 18.7543 25.7762 18.8515 26.0603 18.6876C26.3445 18.5237 26.4419 18.1607 26.2778 17.8767C26.1137 17.5928 25.7503 17.4956 25.4661 17.6595Z" fill="white"/>
<path d="M9.40974 22.1914L7.47214 24.9586C7.11896 25.463 7.24948 26.1591 7.76136 26.5013L7.77893 26.513C8.27664 26.8458 8.94917 26.7185 9.29088 26.227L11.219 23.4537C11.5643 22.957 11.4428 22.2744 10.9472 21.9274L10.9392 21.9218C10.4423 21.5739 9.75761 21.6947 9.40974 22.1914Z" fill="#FFC7B3"/>
<path d="M8.67784 26.5013C8.16596 26.1591 8.03544 25.463 8.38863 24.9586L10.3262 22.1914C10.438 22.0318 10.5904 21.9051 10.7677 21.8243C10.2947 21.6062 9.7191 21.7496 9.40974 22.1914L7.47214 24.9586C7.11896 25.463 7.24948 26.1591 7.76136 26.5013L7.77893 26.513C8.10761 26.7328 8.51204 26.7508 8.84758 26.5969C8.79471 26.573 8.74381 26.5449 8.69536 26.513L8.67784 26.5013Z" fill="#F9AD95"/>
<path d="M8.79043 21.1618C9.28724 21.5097 9.40796 22.1944 9.06009 22.6912L7.4587 24.9782C7.11083 25.475 6.4261 25.5957 5.92929 25.2478C5.43249 24.9 5.31177 24.2152 5.65963 23.7185L7.26103 21.4315C7.60889 20.9347 8.29362 20.8139 8.79043 21.1618Z" fill="#FFC7B3"/>
<path d="M6.57612 23.7185L8.17751 21.4315C8.28926 21.2719 8.4417 21.1451 8.61901 21.0644C8.14594 20.8462 7.57039 20.9897 7.26103 21.4315L5.65963 23.7185C5.31177 24.2153 5.43249 24.9 5.92929 25.2478C6.26036 25.4797 6.67447 25.5023 7.0172 25.3453C6.95725 25.318 6.89988 25.2854 6.84578 25.2478C6.34903 24.9 6.22831 24.2153 6.57612 23.7185Z" fill="#F9AD95"/>
<path d="M10.5319 24.4057L9.63034 25.6932C9.28247 26.19 9.40319 26.8747 9.9 27.2226C10.3968 27.5704 11.0815 27.4497 11.4294 26.9529L12.331 25.6654C12.6789 25.1686 12.5581 24.4839 12.0613 24.136C11.5645 23.7881 10.8797 23.9089 10.5319 24.4057Z" fill="#FFC7B3"/>
<path d="M10.8165 27.2226C10.3197 26.8748 10.199 26.19 10.5468 25.6933L11.4484 24.4057C11.5602 24.2461 11.7126 24.1194 11.8899 24.0386C11.4168 23.8205 10.8413 23.9639 10.5319 24.4057L9.63034 25.6933C9.28247 26.1901 9.40319 26.8748 9.9 27.2226C10.2311 27.4544 10.6452 27.4771 10.9879 27.3201C10.928 27.2928 10.8706 27.2602 10.8165 27.2226Z" fill="#F9AD95"/>
<path d="M6.26802 20.9741C5.77121 20.6263 5.08648 20.747 4.73861 21.2438L4.18698 22.0316C3.83911 22.5284 3.95983 23.2131 4.45664 23.561C4.95344 23.9088 5.63817 23.7881 5.98604 23.2913L6.53768 22.5035C6.88554 22.0067 6.76482 21.322 6.26802 20.9741Z" fill="#FFC7B3"/>
<path d="M5.37312 23.561C4.87631 23.2131 4.75559 22.5284 5.10346 22.0317L5.6551 21.2439C5.76684 21.0843 5.91929 20.9575 6.0966 20.8767C5.62353 20.6586 5.04797 20.8021 4.73861 21.2439L4.18698 22.0317C3.83911 22.5285 3.95983 23.2131 4.45664 23.561C4.7877 23.7928 5.20182 23.8155 5.54454 23.6585C5.48462 23.6311 5.42726 23.5985 5.37312 23.561Z" fill="#F9AD95"/>
<path d="M11.5631 10.6036C10.5904 10.6037 10.1714 9.89813 9.98061 9.43833C9.14718 9.84653 8.43058 10.0153 8.3678 10.0297C8.3294 10.0388 8.28958 10.0402 8.25064 10.0338C8.2117 10.0274 8.17441 10.0134 8.14091 9.99251C8.10741 9.97165 8.07838 9.94437 8.05548 9.91223C8.03258 9.88009 8.01627 9.84374 8.00749 9.80527C7.99871 9.7668 7.99764 9.72697 8.00433 9.68808C8.01101 9.64919 8.02533 9.61201 8.04646 9.57868C8.06759 9.54535 8.09511 9.51654 8.12743 9.4939C8.15974 9.47126 8.19623 9.45524 8.23477 9.44676C8.25486 9.4421 8.9592 9.27439 9.76148 8.87432C9.29026 7.61822 9.79795 6.20243 10.977 5.57784C11.8103 5.07859 12.8696 6.00039 12.522 6.8972C12.1628 7.935 11.3343 8.66176 10.5105 9.15211C10.717 9.68127 11.0506 10.1613 11.9638 9.9575C12.3207 9.8778 12.5882 9.58004 12.6143 9.23331C12.6155 9.21752 12.6162 9.20144 12.6165 9.18506C12.6174 9.11903 12.6402 9.05518 12.6812 9.00346C12.7223 8.95173 12.7793 8.91505 12.8434 8.89914C12.9075 8.88329 12.975 8.88909 13.0354 8.91561C13.0959 8.94214 13.1459 8.98791 13.1776 9.0458C13.3051 9.27726 13.7606 9.93137 14.1624 9.90202C14.448 9.88055 14.747 9.48473 15.0043 8.78756C15.0236 8.73522 15.0572 8.68933 15.1013 8.65509C15.1454 8.62085 15.1982 8.59964 15.2537 8.59384C15.3092 8.58804 15.3652 8.59789 15.4154 8.62228C15.4656 8.64667 15.508 8.68462 15.5377 8.73184C15.6612 8.92652 16.0974 9.47552 16.4673 9.4436C16.6979 9.42327 16.9351 9.14338 17.1352 8.65543C17.1543 8.60895 17.1848 8.56802 17.2238 8.53644C17.2629 8.50486 17.3093 8.48364 17.3587 8.47474C17.4082 8.46576 17.4591 8.46941 17.5068 8.48536C17.5544 8.50132 17.5973 8.52904 17.6313 8.56598C17.633 8.56771 17.9088 8.85585 18.2253 8.84407C18.4004 8.83785 18.5713 8.73447 18.7333 8.53686C18.7582 8.50649 18.7888 8.48132 18.8234 8.46279C18.858 8.44426 18.896 8.43273 18.935 8.42885C18.9741 8.42498 19.0135 8.42883 19.0511 8.44021C19.0887 8.45158 19.1237 8.47024 19.154 8.49513C19.1844 8.52001 19.2096 8.55064 19.2281 8.58525C19.2466 8.61986 19.2582 8.65779 19.2621 8.69686C19.2659 8.73593 19.2621 8.77538 19.2507 8.81296C19.2393 8.85054 19.2207 8.88551 19.1958 8.91588C18.9184 9.25424 18.597 9.43122 18.2404 9.4418C17.9531 9.45089 17.7049 9.34757 17.5218 9.23552C17.2489 9.73532 16.9123 10.0053 16.5183 10.0394C16.0451 10.08 15.6332 9.76151 15.3627 9.47337C15.0429 10.1283 14.6619 10.4648 14.2058 10.4984C13.718 10.5337 13.3035 10.1905 13.0249 9.86536C12.8282 10.1992 12.4937 10.4519 12.094 10.5411C11.9009 10.5842 11.7243 10.6035 11.5631 10.6036ZM11.2561 6.10646C10.3781 6.58724 9.97774 7.62498 10.2917 8.58021C10.9904 8.14923 11.6962 7.54671 11.957 6.70156C12.1661 6.02377 11.5326 5.95507 11.2561 6.10646ZM19.3149 3.59791H8.38221C8.30292 3.59791 8.22688 3.56642 8.17082 3.51035C8.11475 3.45429 8.08325 3.37825 8.08325 3.29896C8.08325 3.21967 8.11475 3.14363 8.17082 3.08756C8.22688 3.0315 8.30292 3 8.38221 3H19.3149C19.3942 3 19.4703 3.0315 19.5263 3.08756C19.5824 3.14363 19.6139 3.21967 19.6139 3.29896C19.6139 3.37825 19.5824 3.45429 19.5263 3.51035C19.4703 3.56642 19.3942 3.59791 19.3149 3.59791Z" fill="white"/>
</g>
<defs>
<clipPath id="clip0_213_120">
<rect width="28" height="28" fill="white"/>
</clipPath>
</defs>
</svg>
