<svg viewBox="0 0 84 84" fill="none" xmlns="http://www.w3.org/2000/svg">
<circle cx="42" cy="42" r="42" fill="#2C374B"/>
<path d="M46.5536 40.1606L49.7849 34.6775L58.4947 48.2431L58.4988 50.8465L58.4704 32.9317C58.4498 32.4937 58.2172 32.093 57.8463 31.8566L42.1654 22.8371C41.7988 22.6568 41.3334 22.6589 40.9674 22.8428C40.9179 22.8677 40.8716 22.8945 40.8272 22.924L40.7725 22.9584L25.5516 31.7786L25.4926 31.8057C25.4165 31.8404 25.3399 31.8851 25.2676 31.9365C24.979 32.1433 24.7873 32.4495 24.7253 32.7926C24.7161 32.8446 24.709 32.8976 24.7061 32.9512L24.7299 47.55L32.8427 34.9759C33.8639 33.3086 36.0894 32.7712 38.1555 32.8007L40.58 32.8646L26.2937 55.7757L27.9777 56.7452L42.4351 32.8879L48.8254 32.8646L34.4054 57.324L40.4145 60.7806L41.1326 61.1932C41.4363 61.3167 41.7942 61.3229 42.1005 61.2122L58.0017 51.9972L54.9615 53.7589L46.5536 40.1606ZM47.7863 57.9172L41.7171 48.3912L45.4222 42.104L53.3931 54.6678L47.7863 57.9172Z" fill="#2D374B"/>
<path d="M41.7158 48.3915L47.7853 57.9173L53.3919 54.6681L45.4209 42.1042L41.7158 48.3915Z" fill="#28A0F0"/>
<path d="M58.4979 50.8467L58.4938 48.2433L49.784 34.6777L46.5527 40.1608L54.9609 53.7591L58.0011 51.9974C58.2992 51.7554 58.4798 51.3999 58.4987 51.0165L58.4979 50.8467Z" fill="#28A0F0"/>
<path d="M22 53.3018L26.2932 55.7756L40.5794 32.8646L38.1549 32.8007C36.0892 32.7714 33.8637 33.3086 32.8422 34.9758L24.7294 47.5499L22 51.7434V53.3018V53.3018Z" fill="white"/>
<path d="M48.8252 32.8646L42.4349 32.8879L27.9775 56.7452L33.0309 59.6546L34.405 57.324L48.8252 32.8646Z" fill="white"/>
<path d="M61.191 32.8316C61.1377 31.4952 60.414 30.272 59.2807 29.5596L43.3943 20.4237C42.2732 19.8592 40.8726 19.8584 39.7493 20.4234C39.6167 20.4903 24.3002 29.3734 24.3002 29.3734C24.0882 29.4749 23.8841 29.5959 23.6921 29.7335C22.6804 30.4588 22.0636 31.5856 22 32.8235V51.7438L24.7294 47.5502L24.7055 32.9512C24.7088 32.8979 24.7155 32.8451 24.7248 32.7934C24.7865 32.4498 24.9784 32.1436 25.267 31.9365C25.3393 31.8851 40.917 22.8677 40.9666 22.8428C41.3329 22.659 41.798 22.6568 42.1646 22.8371L57.8455 31.8566C58.2164 32.093 58.449 32.4937 58.4695 32.9317V51.016C58.4506 51.3994 58.299 51.7549 58.0009 51.9969L54.9607 53.7586L53.392 54.6678L47.7855 57.917L42.0996 61.2119C41.7934 61.3226 41.4352 61.3164 41.1317 61.1929L34.4046 57.3238L33.0303 59.6543L39.076 63.135C39.2758 63.2487 39.4539 63.3494 39.6001 63.4317C39.8265 63.5587 39.9808 63.6434 40.0352 63.67C40.4649 63.8787 41.083 64 41.6402 64C42.1508 64 42.649 63.9063 43.1203 63.7217L59.6354 54.1577C60.5832 53.4232 61.141 52.3156 61.191 51.1159V32.8316Z" fill="#96BEDC"/>
</svg>
