<svg viewBox="0 0 84 84" fill="none" xmlns="http://www.w3.org/2000/svg">
<g clip-path="url(#clip0_1139_289)">
<path d="M67.8591 14.4095H16.0293V61.5478H67.8591V14.4095Z" fill="white"/>
<path fill-rule="evenodd" clip-rule="evenodd" d="M83.9161 42.0001C83.9161 65.1654 65.1373 83.9442 41.972 83.9442C18.8069 83.9442 0.027832 65.1654 0.027832 42.0001C0.027832 18.8349 18.8069 0.0559082 41.972 0.0559082C65.1373 0.0559082 83.9161 18.8349 83.9161 42.0001ZM30.0862 58.6917H21.946C20.2355 58.6917 19.3906 58.6917 18.8754 58.3622C18.319 58.0014 17.979 57.4038 17.9378 56.7442C17.9068 56.1365 18.3293 55.3944 19.1742 53.9106L39.2734 18.4831C40.1286 16.9787 40.5614 16.2265 41.1075 15.9483C41.6948 15.6495 42.3955 15.6495 42.9828 15.9483C43.5289 16.2265 43.9617 16.9787 44.8169 18.4831L48.9489 25.696L48.97 25.7328C49.8937 27.3467 50.3621 28.1651 50.5666 29.0241C50.7933 29.9618 50.7933 30.951 50.5666 31.8887C50.3605 32.7542 49.8969 33.5786 48.9592 35.2169L38.4016 53.8797L38.3743 53.9275C37.4445 55.5547 36.9733 56.3795 36.3202 57.0016C35.6092 57.6819 34.754 58.1762 33.8163 58.4549C32.961 58.6917 32.0028 58.6917 30.0862 58.6917ZM50.6429 58.6917H62.3068C64.0276 58.6917 64.8933 58.6917 65.4088 58.3521C65.965 57.9913 66.3152 57.3831 66.3465 56.7241C66.3761 56.136 65.9628 55.4227 65.153 54.0252C65.125 53.9776 65.0971 53.9292 65.0686 53.8799L59.2261 43.885L59.1596 43.7725C58.3386 42.3841 57.9242 41.683 57.3919 41.4121C56.8049 41.1132 56.114 41.1132 55.527 41.4121C54.9911 41.6902 54.5584 42.4218 53.7032 43.8953L47.8814 53.8902L47.8614 53.9246C47.0092 55.3958 46.5833 56.1309 46.614 56.7341C46.6552 57.3937 46.9952 58.0014 47.5516 58.3622C48.0566 58.6917 48.9221 58.6917 50.6429 58.6917Z" fill="#E84142"/>
</g>
<defs>
<clipPath id="clip0_1139_289">
<rect width="83.9441" height="84" fill="white"/>
</clipPath>
</defs>
</svg>
