<svg width="23" height="28" viewBox="0 0 23 28" fill="none" xmlns="http://www.w3.org/2000/svg">
<path d="M18.7846 1.60682V23.8271C18.7846 24.7147 18.0654 25.4339 17.1778 25.4339H1.60747C0.71982 25.4339 8.75947e-09 24.7141 8.75947e-09 23.8264V6.44791C-2.50522e-05 6.17502 0.0537248 5.9048 0.158178 5.65269C0.26263 5.40058 0.415739 5.17153 0.608753 4.97862L5.27553 0.311185C5.28519 0.302126 5.29491 0.292463 5.30523 0.283404L5.31879 0.271765C5.51733 0.0964793 5.77311 -0.000175415 6.03795 2.38995e-07H17.1778C18.0654 2.38995e-07 18.7846 0.71982 18.7846 1.60682Z" fill="url(#paint0_linear_216_160)"/>
<path d="M15.9668 2.38995e-07H6.0379C5.77305 -0.000175415 5.51728 0.0964793 5.31874 0.271765L5.30518 0.283404C5.29486 0.292463 5.28514 0.302126 5.27548 0.311185L0.608753 4.97857C0.415744 5.17148 0.262638 5.40053 0.158186 5.65264C0.0537335 5.90475 -1.90775e-05 6.17496 5.07904e-09 6.44785V15.9668L15.9668 2.38995e-07Z" fill="url(#paint1_linear_216_160)"/>
<path d="M19.7429 28H4.17279C3.28503 28 2.56543 27.2803 2.56543 26.3926V3.85071C2.56543 2.96295 3.28508 2.24335 4.17279 2.24335H19.7429C20.6306 2.24335 21.3503 2.963 21.3503 3.85071V26.3926C21.3503 27.2803 20.6306 28 19.7429 28Z" fill="url(#paint2_linear_216_160)"/>
<path d="M6.3414 2.46864L2.79144 6.0186C2.67127 6.13883 2.51963 6.22272 2.35393 6.26064C2.18822 6.29855 2.01519 6.28895 1.8547 6.23294L1.28405 6.03408C0.655914 5.8159 8.75947e-09 6.28196 8.75947e-09 6.94688V6.44788C-2.50522e-05 6.17499 0.0537248 5.90477 0.158178 5.65266C0.26263 5.40055 0.415739 5.1715 0.608753 4.97859L5.27553 0.311155C5.28519 0.302096 5.29491 0.292433 5.30523 0.283374L5.31879 0.271735C5.61576 0.0296725 6.07408 0.151006 6.20453 0.523516L6.55573 1.5325C6.61171 1.6929 6.62129 1.86584 6.58337 2.03144C6.54546 2.19704 6.46159 2.34858 6.3414 2.46864Z" fill="url(#paint3_linear_216_160)"/>
<path d="M18.7575 7.63819H5.1594C5.09063 7.63819 5.02254 7.62465 4.959 7.59833C4.89547 7.57202 4.83774 7.53345 4.78912 7.48482C4.74049 7.43619 4.70192 7.37847 4.6756 7.31493C4.64929 7.2514 4.63574 7.18331 4.63574 7.11454V6.33164C4.63574 6.19276 4.69091 6.05956 4.78912 5.96136C4.88732 5.86315 5.02051 5.80798 5.1594 5.80798H18.7575C18.8963 5.80798 19.0295 5.86315 19.1277 5.96136C19.2259 6.05956 19.2811 6.19276 19.2811 6.33164V7.11454C19.2811 7.40376 19.0466 7.63819 18.7575 7.63819ZM15.2284 11.8247H5.1594C5.02051 11.8247 4.88732 11.7695 4.78912 11.6713C4.69091 11.5731 4.63574 11.4399 4.63574 11.301V10.5181C4.63574 10.3793 4.69091 10.2461 4.78912 10.1479C4.88732 10.0496 5.02051 9.99448 5.1594 9.99448H15.2284C15.5175 9.99448 15.752 10.2289 15.752 10.5181V11.301C15.752 11.5903 15.5175 11.8247 15.2284 11.8247ZM18.7575 16.0111H5.1594C5.02051 16.0111 4.88732 15.956 4.78912 15.8578C4.69091 15.7595 4.63574 15.6264 4.63574 15.4875V14.7046C4.63574 14.5657 4.69091 14.4325 4.78912 14.3343C4.88732 14.2361 5.02051 14.1809 5.1594 14.1809H18.7575C18.8963 14.1809 19.0295 14.2361 19.1277 14.3343C19.2259 14.4325 19.2811 14.5657 19.2811 14.7046V15.4875C19.2811 15.7767 19.0466 16.0111 18.7575 16.0111ZM15.7879 20.2488H5.1594C5.09063 20.2488 5.02254 20.2353 4.959 20.209C4.89547 20.1827 4.83774 20.1441 4.78912 20.0955C4.74049 20.0468 4.70192 19.9891 4.6756 19.9256C4.64929 19.8621 4.63574 19.794 4.63574 19.7252V18.9423C4.63574 18.8735 4.64929 18.8054 4.6756 18.7419C4.70192 18.6784 4.74049 18.6206 4.78912 18.572C4.83774 18.5234 4.89547 18.4848 4.959 18.4585C5.02254 18.4322 5.09063 18.4186 5.1594 18.4186H15.7879C16.077 18.4186 16.3115 18.6531 16.3115 18.9423V19.7252C16.3115 20.0144 16.077 20.2488 15.7879 20.2488ZM12.6891 24.4353H5.1594C5.02051 24.4353 4.88732 24.3801 4.78912 24.2819C4.69091 24.1837 4.63574 24.0505 4.63574 23.9116V23.1287C4.63574 22.9898 4.69091 22.8567 4.78912 22.7585C4.88732 22.6602 5.02051 22.6051 5.1594 22.6051H12.6891C12.9783 22.6051 13.2128 22.8395 13.2128 23.1287V23.9116C13.2128 24.2009 12.9783 24.4353 12.6891 24.4353Z" fill="#E3CEEF"/>
<path d="M21.3507 26.3926V8.04822C21.2619 8.07018 21.2874 8.22511 21.218 8.29451L13.6432 15.8693L13.6284 15.8841C13.5526 15.96 13.4968 16.0535 13.466 16.1562L12.7618 18.0337C12.754 18.0598 12.7622 18.0848 12.7789 18.1015L21.3296 26.6519C21.3435 26.5662 21.3506 26.4795 21.3507 26.3926Z" fill="url(#paint4_linear_216_160)"/>
<path d="M5.82868 24.6991C5.60199 24.6991 5.38178 24.6129 5.21093 24.4513C4.97875 24.2318 4.87866 23.9144 4.94322 23.6021C5.05967 23.0388 5.30596 21.9112 5.65893 20.6259C4.92154 19.9274 4.34617 19.317 4.16395 19.0209C4.02806 18.8001 4.02735 18.5393 4.16202 18.3234C4.35956 18.0068 4.81898 17.8053 5.74781 17.6282C6.02391 17.5755 6.3368 17.5266 6.68477 17.4816C6.98761 16.7169 7.32185 16.0105 7.68256 15.4494C8.1641 14.7003 8.68677 14.7208 8.95551 14.7997C9.3485 14.9152 9.90515 15.3116 10.5204 17.2042C11.3799 17.1789 12.5785 17.183 12.8969 17.2137C13.0201 17.2257 13.1335 17.286 13.2121 17.3816C13.2908 17.4771 13.3283 17.6 13.3164 17.7232C13.2916 17.9798 13.0634 18.1669 12.807 18.1428C12.5746 18.1203 11.5189 18.1142 10.793 18.1311C10.8571 18.3712 10.9178 18.6123 10.975 18.8541C11.0668 19.2423 11.1512 19.6322 11.2282 20.0235C11.5398 19.8029 11.8547 19.5869 12.1728 19.3756C12.2759 19.3072 12.402 19.2826 12.5233 19.3071C12.6446 19.3317 12.7512 19.4034 12.8196 19.5066C12.888 19.6097 12.9127 19.7358 12.8881 19.8571C12.8635 19.9785 12.7918 20.085 12.6886 20.1534C12.2571 20.4397 11.8298 20.7381 11.4126 21.0385C11.5894 22.1029 11.6895 23.0226 11.6895 23.4979C11.6895 23.89 11.4896 24.1806 11.1546 24.2754C10.9423 24.3355 10.4387 24.4782 8.60969 23.1285C7.54344 23.9191 6.6812 24.5035 6.06163 24.6684C5.98564 24.6887 5.90733 24.699 5.82868 24.6991ZM6.43282 21.3376C6.22331 22.1382 6.03393 22.9439 5.86486 23.754C6.30111 23.6194 7.01665 23.1392 7.8415 22.5348C7.65895 22.3878 7.47794 22.2389 7.29852 22.0881C7.00615 21.8424 6.71756 21.5921 6.43282 21.3376ZM9.39105 22.5424C10.0788 23.0331 10.517 23.2618 10.7524 23.3405C10.737 22.9752 10.6741 22.3774 10.5661 21.6589C10.2194 21.9167 9.88347 22.1705 9.56202 22.4133L9.39105 22.5424ZM6.70997 20.3296C7.06703 20.657 7.43054 20.9773 7.80027 21.2904C8.06821 21.5176 8.34005 21.7402 8.61567 21.9581C8.74255 21.8626 8.87069 21.7658 8.99949 21.6685C9.43991 21.3359 9.9074 20.9828 10.3932 20.6259C10.2987 20.1125 10.1865 19.5707 10.0571 19.0289C9.98814 18.7392 9.91364 18.4508 9.83362 18.1639C9.3905 18.1835 8.91966 18.2104 8.44613 18.2457C8.08105 18.2724 7.7164 18.3049 7.35232 18.343C7.11498 18.9919 6.89982 19.6721 6.70997 20.3296ZM5.12731 18.7502C5.30217 18.9548 5.58695 19.2544 5.95144 19.6115C6.06657 19.2309 6.18875 18.8525 6.31791 18.4764C5.66755 18.5791 5.31431 18.6797 5.12731 18.7502ZM8.69923 15.6971C8.67749 15.7075 8.59393 15.7576 8.46755 15.9542C8.21033 16.3542 7.96651 16.8377 7.73828 17.3675C7.8914 17.3536 8.04903 17.3403 8.21126 17.3275C8.65605 17.2929 9.10132 17.2647 9.54692 17.2428C9.14789 16.0997 8.82501 15.7369 8.69923 15.6971Z" fill="url(#paint5_linear_216_160)"/>
<path d="M16.0304 16.4369L14.4429 14.8494L13.5181 15.7742C13.4422 15.85 13.3864 15.9436 13.3557 16.0463L12.9883 17.2745L12.9102 17.9744L13.6081 17.8906L14.8334 17.524C14.9362 17.4933 15.0297 17.4375 15.1056 17.3616L16.0304 16.4369Z" fill="url(#paint6_linear_216_160)"/>
<path d="M13.3886 17.4917C13.2759 17.3791 13.1379 17.3063 12.9897 17.2714L12.7617 18.0336C12.7462 18.0857 12.7947 18.1341 12.8467 18.1186L13.6089 17.8905C13.574 17.7425 13.5011 17.6043 13.3886 17.4917Z" fill="url(#paint7_linear_216_160)"/>
<path d="M14.6726 16.4706V17.1613C14.6726 17.3953 14.9555 17.5125 15.121 17.347L22.6958 9.77219C22.899 9.56905 22.899 9.2397 22.6958 9.03651L21.844 8.1847C21.6409 7.98156 21.3115 7.98156 21.1083 8.1847L13.5335 15.7595C13.368 15.925 13.4853 16.208 13.7192 16.208H14.4099C14.4444 16.208 14.4785 16.2147 14.5104 16.2279C14.5423 16.2411 14.5712 16.2605 14.5956 16.2849C14.62 16.3092 14.6394 16.3382 14.6526 16.3701C14.6658 16.402 14.6726 16.4361 14.6726 16.4706Z" fill="url(#paint8_linear_216_160)"/>
<path d="M22.6958 9.03646L22.2699 8.61053L14.5957 16.2848C14.6201 16.3092 14.6395 16.3382 14.6527 16.37C14.6659 16.4019 14.6727 16.4361 14.6726 16.4706V17.1612C14.6726 17.3952 14.9556 17.5124 15.1211 17.3469L22.6959 9.7721C22.899 9.56896 22.899 9.2396 22.6958 9.03646Z" fill="url(#paint9_linear_216_160)"/>
<defs>
<linearGradient id="paint0_linear_216_160" x1="8.75948e-09" y1="12.7169" x2="18.7846" y2="12.7169" gradientUnits="userSpaceOnUse">
<stop stop-color="#9B62CD"/>
<stop offset="0.3" stop-color="#985DCB"/>
<stop offset="0.672" stop-color="#8F4EC7"/>
<stop offset="1" stop-color="#833AC1"/>
</linearGradient>
<linearGradient id="paint1_linear_216_160" x1="5.6868" y1="6.78978" x2="-0.854878" y2="3.38981" gradientUnits="userSpaceOnUse">
<stop stop-color="#662D90" stop-opacity="0"/>
<stop offset="0.305" stop-color="#632D8C" stop-opacity="0.305"/>
<stop offset="0.595" stop-color="#5B2D81" stop-opacity="0.595"/>
<stop offset="0.878" stop-color="#4D2D6E" stop-opacity="0.879"/>
<stop offset="1" stop-color="#452D63"/>
</linearGradient>
<linearGradient id="paint2_linear_216_160" x1="2.56537" y1="15.1216" x2="21.3503" y2="15.1216" gradientUnits="userSpaceOnUse">
<stop stop-color="#F8F6FB"/>
<stop offset="1" stop-color="#EFDCFB"/>
</linearGradient>
<linearGradient id="paint3_linear_216_160" x1="2.71007" y1="3.3032" x2="3.93686" y2="4.52993" gradientUnits="userSpaceOnUse">
<stop stop-color="#FF819C"/>
<stop offset="0.259" stop-color="#FF7E9A"/>
<stop offset="0.476" stop-color="#FE7396"/>
<stop offset="0.676" stop-color="#FC628E"/>
<stop offset="0.867" stop-color="#FA4A83"/>
<stop offset="1" stop-color="#F83479"/>
</linearGradient>
<linearGradient id="paint4_linear_216_160" x1="24.3729" y1="20.3829" x2="17.0168" y2="13.0269" gradientUnits="userSpaceOnUse">
<stop stop-color="#EFDCFB" stop-opacity="0"/>
<stop offset="0.486" stop-color="#BAAAD6" stop-opacity="0.486"/>
<stop offset="1" stop-color="#8679B2"/>
</linearGradient>
<linearGradient id="paint5_linear_216_160" x1="6.52687" y1="15.7714" x2="10.981" y2="24.3828" gradientUnits="userSpaceOnUse">
<stop stop-color="#8A7889"/>
<stop offset="1" stop-color="#6E566E"/>
</linearGradient>
<linearGradient id="paint6_linear_216_160" x1="13.2566" y1="16.0326" x2="14.8441" y2="17.6201" gradientUnits="userSpaceOnUse">
<stop stop-color="#FFDECF"/>
<stop offset="1" stop-color="#FAA68E"/>
</linearGradient>
<linearGradient id="paint7_linear_216_160" x1="12.7522" y1="17.5058" x2="13.3714" y2="18.125" gradientUnits="userSpaceOnUse">
<stop stop-color="#8A7889"/>
<stop offset="1" stop-color="#6E566E"/>
</linearGradient>
<linearGradient id="paint8_linear_216_160" x1="17.3899" y1="11.9001" x2="18.9774" y2="13.4876" gradientUnits="userSpaceOnUse">
<stop stop-color="#FFD945"/>
<stop offset="0.304" stop-color="#FFCD3E"/>
<stop offset="0.856" stop-color="#FFAD2B"/>
<stop offset="1" stop-color="#FFA325"/>
</linearGradient>
<linearGradient id="paint9_linear_216_160" x1="19.0902" y1="13.7832" x2="17.6382" y2="11.6342" gradientUnits="userSpaceOnUse">
<stop stop-color="#E87264" stop-opacity="0"/>
<stop offset="0.353" stop-color="#ED725D" stop-opacity="0.353"/>
<stop offset="0.851" stop-color="#FA704B" stop-opacity="0.851"/>
<stop offset="1" stop-color="#FF7044"/>
</linearGradient>
</defs>
</svg>
