<svg viewBox="0 0 24 21" fill="none" xmlns="http://www.w3.org/2000/svg">
<path d="M20.4837 3.51623C18.2161 1.24875 15.2032 0 12.0001 0C8.79697 0 5.78408 1.24875 3.5164 3.51628C3.24176 3.79092 3.24209 4.23628 3.5164 4.51064L5.64612 6.6405C5.92076 6.91514 6.36622 6.91486 6.64058 6.64045C8.07289 5.20777 9.97629 4.41872 12.0001 4.41872C14.0239 4.41872 15.9273 5.20777 17.3596 6.64041C17.4915 6.77229 17.6703 6.84639 17.8568 6.84642C18.1607 6.84642 18.3394 6.65512 18.354 6.64045L20.4837 4.51059C20.7584 4.236 20.7581 3.79059 20.4837 3.51623Z" fill="#FFE600"/>
<path d="M6.64041 17.3593C6.03544 16.7544 4.42931 14.9655 4.41877 11.9983C4.41914 9.97535 5.20809 8.07255 6.64041 6.64038L3.51633 3.51611C1.2488 5.78346 0 8.7964 0 11.9998C0 15.2033 1.2488 18.2162 3.51633 20.4836C3.65362 20.6208 3.83353 20.6895 4.01348 20.6895C4.19344 20.6895 4.37339 20.6208 4.51069 20.4835L6.64041 18.3536C6.915 18.0791 6.915 17.6339 6.64041 17.3593Z" fill="#00D200"/>
<path d="M17.3593 17.3593C17.9642 16.7544 19.5704 14.9655 19.5809 11.9983C19.5805 9.97535 18.7916 8.07255 17.3593 6.64038L20.4833 3.51611C22.7509 5.78346 23.9997 8.7964 23.9997 11.9998C23.9997 15.2033 22.7509 18.2162 20.4833 20.4836C20.346 20.6208 20.1661 20.6895 19.9862 20.6895C19.8062 20.6895 19.6263 20.6208 19.489 20.4835L17.3593 18.3536C17.0847 18.0791 17.0847 17.6339 17.3593 17.3593Z" fill="#FF1E5A"/>
<path d="M12 15C13.1028 15 14 13.9378 14 12.6322C14 10.9828 12.7625 4.34193 12.6213 3.59013C12.5899 3.42275 12.5112 3.27306 12.3983 3.16577C12.2853 3.05847 12.1448 3 12 3C11.8552 3 11.7147 3.05847 11.6017 3.16577C11.4888 3.27306 11.4101 3.42275 11.3787 3.59013C11.2375 4.34193 10 10.9828 10 12.6322C10.0001 13.9378 10.8973 15 12 15Z" fill="#003C50"/>
<path d="M12 15C13.1028 15 14 13.9378 14 12.6322C14 10.9828 12.7625 4.34193 12.6213 3.59013C12.5899 3.42275 12.5112 3.27306 12.3983 3.16577C12.2853 3.05847 12.1448 3 12 3C11.8552 3 11.7147 3.05847 11.6017 3.16577C11.4888 3.27306 11.4101 3.42275 11.3787 3.59013C11.2375 4.34193 10 10.9828 10 12.6322C10.0001 13.9378 10.8973 15 12 15Z" fill="url(#paint0_linear_215_142)"/>
<defs>
<linearGradient id="paint0_linear_215_142" x1="13.8119" y1="9.00085" x2="10.1628" y2="8.98713" gradientUnits="userSpaceOnUse">
<stop offset="0.488843" stop-color="#003C50"/>
<stop offset="0.488943" stop-color="#001428"/>
</linearGradient>
</defs>
</svg>
