<svg viewBox="0 0 24 21" fill="none" xmlns="http://www.w3.org/2000/svg">
<path fill-rule="evenodd" clip-rule="evenodd" d="M17.3674 6.64809C17.4985 6.77519 17.674 6.84644 17.8569 6.84647C18.1523 6.84647 18.3294 6.66567 18.3525 6.64213C18.3531 6.64145 18.3537 6.64091 18.3541 6.6405L20.4838 4.51064C20.7584 4.236 20.7582 3.79059 20.4838 3.51623C18.2161 1.24875 15.2032 0 12.0001 0C12.0001 0 12.0001 0 12.0001 0C8.79697 0 5.78408 1.24875 3.5164 3.51628C3.24176 3.79092 3.24209 4.23628 3.5164 4.51064L5.64612 6.6405C5.92076 6.91514 6.36622 6.91486 6.64058 6.64045C8.07289 5.20777 9.97629 4.41872 12.0001 4.41872C12.0001 4.41872 12.0001 4.41872 12.0001 4.41872V4.41877C13.7176 4.41877 15.3484 4.98703 16.6781 6.03466C16.9153 6.2215 17.1428 6.42358 17.3596 6.64041" fill="#FFE600"/>
<path fill-rule="evenodd" clip-rule="evenodd" d="M4.41877 11.9983C4.42931 14.9655 6.03544 16.7544 6.64041 17.3593C6.915 17.6339 6.915 18.0791 6.64041 18.3536L4.51069 20.4835C4.37339 20.6208 4.19344 20.6895 4.01348 20.6895C3.83353 20.6895 3.65363 20.6208 3.51633 20.4836C1.2488 18.2162 0 15.2033 0 11.9998C0 8.7964 1.2488 5.78346 3.51633 3.51611L6.64041 6.64038C5.20809 8.07255 4.41914 9.97535 4.41877 11.9983Z" fill="#00D200"/>
<path fill-rule="evenodd" clip-rule="evenodd" d="M19.5764 12.2556C19.4778 15.0691 17.947 16.7721 17.3598 17.3593C17.2224 17.4966 17.1538 17.6766 17.1538 17.8566C17.1538 18.0365 17.2224 18.2165 17.3598 18.3538L19.4895 20.4837C19.6268 20.621 19.8067 20.6897 19.9867 20.6897C20.1666 20.6897 20.3465 20.6211 20.4838 20.4838C22.6628 18.3049 23.9011 15.4376 23.9945 12.3743C23.9983 12.2499 24.0002 12.1251 24.0002 12C24.0002 12 24.0002 11.9999 24.0002 11.9998C24.0002 8.7964 22.7514 5.78346 20.4838 3.51611L17.3598 6.64038C18.7921 8.07255 19.581 9.97535 19.5814 11.9983C19.5814 12.0099 19.5813 12.0215 19.5812 12.033" fill="#FF1E5A"/>
<path d="M13.8103 13.5495C13.6107 14.6341 12.4036 15.3242 11.1196 15.0879C9.49745 14.7894 3.19022 12.3705 2.47638 12.0956C2.31745 12.0344 2.18447 11.93 2.09939 11.7995C2.01431 11.6689 1.98223 11.5202 2.00844 11.3778C2.03465 11.2353 2.11759 11.1077 2.24355 11.016C2.36952 10.9244 2.53098 10.8741 2.70128 10.8735C3.4662 10.8707 10.2214 10.8555 11.8435 11.154C13.1276 11.3904 14.0099 12.465 13.8103 13.5495Z" fill="#003C50"/>
<path d="M13.8103 13.5495C13.6107 14.6341 12.4036 15.3242 11.1196 15.0879C9.49745 14.7894 3.19022 12.3705 2.47638 12.0956C2.31745 12.0344 2.18447 11.93 2.09939 11.7995C2.01431 11.6689 1.98223 11.5202 2.00844 11.3778C2.03465 11.2353 2.11759 11.1077 2.24355 11.016C2.36952 10.9244 2.53098 10.8741 2.70128 10.8735C3.4662 10.8707 10.2214 10.8555 11.8435 11.154C13.1276 11.3904 14.0099 12.465 13.8103 13.5495Z" fill="url(#paint0_linear_215_113)"/>
<defs>
<linearGradient id="paint0_linear_215_113" x1="7.58229" y1="14.2457" x2="8.2292" y2="10.6545" gradientUnits="userSpaceOnUse">
<stop offset="0.488843" stop-color="#003C50"/>
<stop offset="0.488943" stop-color="#001428"/>
</linearGradient>
</defs>
</svg>
