<svg viewBox="0 0 24 21" fill="none" xmlns="http://www.w3.org/2000/svg">
<path d="M20.4837 3.51623C18.2161 1.24875 15.2032 0 12.0001 0C8.79697 0 5.78408 1.24875 3.5164 3.51628C3.24176 3.79092 3.24209 4.23628 3.5164 4.51064L5.64612 6.6405C5.92076 6.91514 6.36622 6.91486 6.64058 6.64045C8.07289 5.20777 9.97629 4.41872 12.0001 4.41872C14.0239 4.41872 15.9273 5.20777 17.3596 6.64041C17.4915 6.77229 17.6703 6.84639 17.8568 6.84642C18.1607 6.84642 18.3394 6.65512 18.354 6.64045L20.4837 4.51059C20.7584 4.236 20.7581 3.79059 20.4837 3.51623Z" fill="#FFE600"/>
<path d="M6.64041 17.3593C6.03544 16.7544 4.42931 14.9655 4.41877 11.9983C4.41914 9.97535 5.20809 8.07255 6.64041 6.64038L3.51633 3.51611C1.2488 5.78346 0 8.7964 0 11.9998C0 15.2033 1.2488 18.2162 3.51633 20.4836C3.65362 20.6208 3.83353 20.6895 4.01348 20.6895C4.19344 20.6895 4.37339 20.6208 4.51069 20.4835L6.64041 18.3536C6.915 18.0791 6.915 17.6339 6.64041 17.3593Z" fill="#00D200"/>
<path d="M17.3593 17.3593C17.9642 16.7544 19.5704 14.9655 19.5809 11.9983C19.5805 9.97535 18.7916 8.07255 17.3593 6.64038L20.4833 3.51611C22.7509 5.78346 23.9997 8.7964 23.9997 11.9998C23.9997 15.2033 22.7509 18.2162 20.4833 20.4836C20.346 20.6208 20.1661 20.6895 19.9862 20.6895C19.8062 20.6895 19.6263 20.6208 19.489 20.4835L17.3593 18.3536C17.0847 18.0791 17.0847 17.6339 17.3593 17.3593Z" fill="#FF1E5A"/>
<path d="M9.83621 13.5495C10.0358 14.6341 11.2428 15.3242 12.5269 15.0879C14.149 14.7894 20.4563 12.3705 21.1701 12.0956C21.329 12.0344 21.462 11.93 21.5471 11.7995C21.6322 11.6689 21.6643 11.5202 21.638 11.3778C21.6118 11.2353 21.5289 11.1077 21.4029 11.016C21.277 10.9244 21.1155 10.8741 20.9452 10.8735C20.1803 10.8707 13.4251 10.8555 11.803 11.154C10.5189 11.3904 9.63663 12.465 9.83621 13.5495Z" fill="#003C50"/>
<path d="M9.83621 13.5495C10.0358 14.6341 11.2428 15.3242 12.5269 15.0879C14.149 14.7894 20.4563 12.3705 21.1701 12.0956C21.329 12.0344 21.462 11.93 21.5471 11.7995C21.6322 11.6689 21.6643 11.5202 21.638 11.3778C21.6118 11.2353 21.5289 11.1077 21.4029 11.016C21.277 10.9244 21.1155 10.8741 20.9452 10.8735C20.1803 10.8707 13.4251 10.8555 11.803 11.154C10.5189 11.3904 9.63663 12.465 9.83621 13.5495Z" fill="url(#paint0_linear_215_137)"/>
<defs>
<linearGradient id="paint0_linear_215_137" x1="16.0642" y1="14.2457" x2="15.4173" y2="10.6545" gradientUnits="userSpaceOnUse">
<stop offset="0.488843" stop-color="#003C50"/>
<stop offset="0.488943" stop-color="#001428"/>
</linearGradient>
</defs>
</svg>
