<svg width="28" height="28" viewBox="0 0 28 28" fill="none" xmlns="http://www.w3.org/2000/svg">
<path d="M16.4939 21.9882V16.5787H14.0285V18.2772H8.49539C7.90348 18.2824 7.4248 18.761 7.4248 19.3529V21.9934C7.4248 23.4294 8.58804 24.5926 10.0241 24.5926H13.8998C15.3358 24.5875 16.4991 23.4243 16.4939 21.9882Z" fill="#1F315F"/>
<path d="M14.0337 24.7573C13.9926 23.7743 13.1896 23.0022 12.2065 23.0022H11.7176C10.7345 23.0022 9.93154 23.7794 9.89551 24.7625L14.0337 24.7573Z" fill="#EFCDB1"/>
<path d="M11.9592 22.9765C11.7894 22.9713 11.6555 22.8375 11.6504 22.6676V20.5316C11.6504 20.3617 11.7894 20.2228 11.9592 20.2228C12.1291 20.2228 12.268 20.3617 12.268 20.5316V22.6676C12.2732 22.8375 12.1394 22.9713 11.9695 22.9765H11.9644H11.9592Z" fill="#414042"/>
<path d="M14.0389 26.1676V24.7573H9.89553V26.1676C9.89038 27.1764 10.7088 27.9948 11.7176 28H12.2117C13.2205 27.9948 14.0389 27.1764 14.0389 26.1676Z" fill="#8A5D3B"/>
<path d="M14.0334 21.1184C13.8636 21.1184 13.7246 20.9794 13.7246 20.8096V18.5397C13.7246 18.3699 13.8636 18.2309 14.0334 18.2309C14.2033 18.2309 14.3423 18.3699 14.3423 18.5397V20.8096C14.3423 20.9794 14.2033 21.1184 14.0334 21.1184Z" fill="#192A4F"/>
<path d="M16.4886 16.5787V15.2301C16.4886 14.8956 16.221 14.6279 15.8864 14.6279H14.6305C14.296 14.6279 14.0283 14.8956 14.0283 15.2301V16.5787H16.4886Z" fill="#EFCDB1"/>
<path d="M23.133 14.8287L18.0374 13.0015L17.2036 15.3228L18.8043 15.8941L16.9359 21.1081C16.7352 21.664 17.0234 22.2765 17.5793 22.4772L20.0653 23.3676C21.419 23.8515 22.9065 23.1515 23.3903 21.7978L24.6977 18.1537C25.1815 16.8051 24.4815 15.3176 23.133 14.8287Z" fill="#89C45E"/>
<path d="M24.8986 18.0868C23.9618 17.7882 22.9582 18.2824 22.6288 19.2088L22.4641 19.6669C22.1346 20.5934 22.5927 21.6125 23.5038 21.9831L24.8986 18.0868Z" fill="#EFCDB1"/>
<path d="M22.2327 19.636C22.1966 19.636 22.1606 19.6309 22.1297 19.6154L20.1172 18.8948C19.9577 18.8382 19.8753 18.6581 19.9319 18.4985C19.9885 18.3389 20.1584 18.2566 20.318 18.3132H20.3231L22.3356 19.0338C22.4952 19.0853 22.5878 19.2603 22.5312 19.425C22.49 19.5537 22.3665 19.6412 22.2327 19.636Z" fill="#414042"/>
<path d="M26.2318 18.5603L24.9708 18.1074L24.8988 18.0868L23.5039 21.9831L23.5708 22.0089L24.8318 22.4618C25.7841 22.8015 26.8289 22.3074 27.1686 21.3552L27.3333 20.8971C27.673 19.95 27.1789 18.9052 26.2318 18.5603Z" fill="#8A5D3B"/>
<path d="M21.1824 17.0574L21.0794 17.0419L18.9434 16.275C18.7838 16.2184 18.7015 16.0383 18.7581 15.8787C18.8147 15.7191 18.9949 15.6368 19.1544 15.6934L21.2904 16.4603C21.45 16.5169 21.5324 16.6868 21.4757 16.8463V16.8515C21.4294 16.975 21.3162 17.0574 21.1824 17.0574Z" fill="#75AA4D"/>
<path d="M18.0374 13.0015L16.7661 12.5485C16.4521 12.4353 16.1072 12.6 15.994 12.9088V12.914L15.572 14.0926C15.4587 14.4066 15.6234 14.7515 15.9323 14.8647H15.9374L17.2036 15.3228L18.0374 13.0015Z" fill="#EFCDB1"/>
<path d="M18.6605 6.5522L15.459 10.9169L17.4457 12.3735L18.4494 11.0044L22.9119 14.2779C23.3906 14.6279 24.0597 14.525 24.4097 14.0463L25.9744 11.9154C26.8237 10.7573 26.5715 9.13087 25.4134 8.28161L22.2891 5.99117C21.131 5.14705 19.5097 5.39926 18.6605 6.5522Z" fill="#FDC00F"/>
<path d="M22.2842 5.78015C21.7334 6.59339 21.9239 7.69486 22.7165 8.27647L23.1077 8.56471C23.9004 9.14118 25.007 8.99706 25.6195 8.23015L22.2842 5.78015Z" fill="#EFCDB1"/>
<path d="M21.4506 10.7213C21.3837 10.7213 21.3219 10.7007 21.2704 10.6647C21.1315 10.5618 21.1006 10.3713 21.2035 10.2324L22.4645 8.5081C22.5675 8.36913 22.7579 8.33825 22.8969 8.44119C23.0359 8.54413 23.0668 8.73457 22.9638 8.87354L21.6976 10.5978C21.641 10.675 21.5484 10.7213 21.4506 10.7213Z" fill="#414042"/>
<path d="M23.1129 4.64262L22.3202 5.7235L22.2842 5.78012L25.6195 8.23012L25.6658 8.1735L26.4584 7.08747C27.0555 6.27423 26.8754 5.13159 26.0621 4.53453L25.6709 4.24629C24.8577 3.64923 23.7151 3.82423 23.118 4.63747C23.1129 4.63747 23.1129 4.64262 23.1129 4.64262Z" fill="#8A5D3B"/>
<path d="M18.6038 11.1022C18.5369 11.1022 18.4751 11.0816 18.4185 11.0456C18.2795 10.9426 18.2538 10.7522 18.3567 10.6132L19.695 8.78087C19.7979 8.6419 19.9884 8.61102 20.1273 8.71396C20.2663 8.8169 20.2972 9.00734 20.1942 9.14631L18.8509 10.9787C18.7942 11.0559 18.7016 11.1022 18.6038 11.1022Z" fill="#E5A60A"/>
<path d="M15.459 10.9169L14.6612 12.003C14.4656 12.2706 14.5222 12.6463 14.7899 12.8471L15.8039 13.5883C16.0715 13.7838 16.4472 13.7272 16.648 13.4596L17.4458 12.3735L15.459 10.9169Z" fill="#EFCDB1"/>
<path d="M8.04267 17.6493L13.0662 15.6316L12.15 13.3463L10.5699 13.9794L8.50591 8.84267C8.28973 8.29708 7.67208 8.02429 7.12135 8.24046C7.12135 8.24046 7.1162 8.24046 7.1162 8.24561L4.66105 9.23385C3.33311 9.76914 2.68973 11.2824 3.21988 12.6103L4.6662 16.203C5.19635 17.5361 6.70444 18.1846 8.03752 17.6493H8.04267Z" fill="#02648E"/>
<path d="M4.55753 16.3934C5.45311 15.9919 5.87517 14.9522 5.50973 14.0412L5.32444 13.5882C4.959 12.6772 3.93988 12.2191 3.01855 12.5485L4.55753 16.3934Z" fill="#EFCDB1"/>
<path d="M5.72597 14C5.60244 14 5.48921 13.9228 5.44288 13.8044C5.38112 13.6448 5.45318 13.4647 5.61274 13.4029L7.59436 12.6051C7.75391 12.5434 7.93406 12.6206 8.00097 12.7801C8.06274 12.9397 7.98553 13.1198 7.82597 13.1816L5.84436 13.9794C5.80833 13.9948 5.76715 14 5.72597 14Z" fill="#414042"/>
<path d="M3.25074 16.9184L4.49633 16.4191L4.55809 16.3934L3.01912 12.5485L2.94706 12.5743L1.70662 13.0735C0.769859 13.4493 0.316918 14.5147 0.692653 15.4515L0.8728 15.9044C1.24854 16.8412 2.31398 17.2941 3.25074 16.9184Z" fill="#8A5D3B"/>
<path d="M8.22729 15.2301C8.05743 15.2353 7.91331 15.1015 7.91331 14.9316C7.90817 14.8029 7.99052 14.6845 8.1089 14.6331L10.2141 13.789C10.3736 13.7272 10.5538 13.7992 10.6155 13.9588C10.6824 14.1132 10.6104 14.2934 10.456 14.3551C10.4508 14.3551 10.4508 14.3551 10.4457 14.3603L8.34052 15.2095C8.30449 15.225 8.26846 15.2301 8.22729 15.2301Z" fill="#345493"/>
<path d="M13.0656 15.6316L14.3163 15.1272C14.6251 15.0037 14.7744 14.6537 14.6509 14.3448L14.1825 13.1765C14.059 12.8676 13.709 12.7184 13.4001 12.8419L12.1494 13.3463L13.0656 15.6316Z" fill="#EFCDB1"/>
<path d="M8.93266 7.95219L11.9334 12.4559L13.9819 11.0919L13.04 9.6816L17.6518 6.61395C18.1407 6.28454 18.2746 5.62057 17.9452 5.12645L16.4834 2.92866C15.6856 1.73454 14.0746 1.41028 12.8805 2.20292L9.6584 4.34925C8.46428 5.14189 8.14001 6.75807 8.93266 7.95219Z" fill="#BE1E2D"/>
<path d="M9.45215 4.28747C10.0286 5.08012 11.1249 5.28085 11.9433 4.73526L12.3499 4.46762C13.1683 3.92718 13.4154 2.83085 12.9007 1.99188L9.45215 4.28747Z" fill="#EFCDB1"/>
<path d="M13.5191 6.96914C13.4161 6.96914 13.3183 6.91767 13.2617 6.83017L12.0779 5.04929C11.9749 4.91032 12.0058 4.71988 12.1396 4.61694C12.2786 4.514 12.4691 4.54488 12.572 4.6787C12.5771 4.689 12.5874 4.69929 12.5926 4.70959L13.7764 6.48532C13.8691 6.62944 13.833 6.81988 13.6889 6.91767C13.6374 6.94856 13.5808 6.96914 13.5191 6.96914Z" fill="#414042"/>
<path d="M8.67019 3.1088L9.41136 4.22571L9.45254 4.28747L12.9011 1.99188L12.8599 1.93012L12.1187 0.813208C11.5577 -0.0257626 10.4202 -0.252233 9.58121 0.308796L9.17974 0.576443C8.34077 1.13233 8.10916 2.25953 8.66504 3.10365L8.67019 3.1088Z" fill="#8A5D3B"/>
<path d="M12.8956 9.77427C12.7927 9.77427 12.6949 9.7228 12.6383 9.6353L11.3824 7.74633C11.2846 7.60222 11.3258 7.41178 11.4699 7.31913C11.614 7.22133 11.8045 7.26251 11.8971 7.40148L13.153 9.29045C13.2456 9.42942 13.2096 9.61986 13.0758 9.71251C13.0706 9.71251 13.0706 9.71766 13.0655 9.71766C13.014 9.75369 12.9574 9.77427 12.8956 9.77427Z" fill="#AA1729"/>
<path d="M11.9336 12.4559L12.6799 13.5779C12.8601 13.8559 13.2307 13.9331 13.5034 13.7529C13.5086 13.7529 13.5086 13.7478 13.5137 13.7478L14.5637 13.0529C14.8417 12.8677 14.9137 12.4919 14.7284 12.214L13.9821 11.0919L11.9336 12.4559Z" fill="#EFCDB1"/>
</svg>
