<svg width="22" height="20" viewBox="0 0 22 20" fill="none" xmlns="http://www.w3.org/2000/svg">
<path d="M11.2359 4.6344C8.06195 4.6344 5.48254 7.14669 5.48254 10.2439C5.48254 13.3411 8.06195 15.8534 11.2359 15.8534C14.4098 15.8534 16.9892 13.3411 16.9892 10.2439C16.9892 9.47678 16.8262 8.73844 16.5385 8.07681" stroke="currentColor" stroke-width="0.99" stroke-miterlimit="10"/>
<path d="M11.2358 12.5835C12.5598 12.5835 13.6331 11.536 13.6331 10.2439C13.6331 8.95169 12.5598 7.90417 11.2358 7.90417C9.91189 7.90417 8.83862 8.95169 8.83862 10.2439C8.83862 11.536 9.91189 12.5835 11.2358 12.5835Z" fill="currentColor"/>
<path d="M11.2358 10.2439L16.9891 1.82483" stroke="currentColor" stroke-width="0.99" stroke-miterlimit="10" stroke-linecap="round"/>
<path d="M11.2358 1.82483C6.47015 1.82483 2.60583 5.59326 2.60583 10.2439C2.60583 14.8945 6.47015 18.6629 11.2358 18.6629C16.0015 18.6629 19.8658 14.8945 19.8658 10.2439C19.8658 9.0932 19.6261 7.99048 19.1946 6.99323" stroke="currentColor" stroke-width="0.99" stroke-miterlimit="10"/>
</svg>
