<svg width="20" height="20" viewBox="0 0 20 20" fill="currentColor" xmlns="http://www.w3.org/2000/svg">
<path d="M18.75 18.125H11.7188C11.4438 16.925 10.4187 15.925 9.0625 15.6375C9.01875 15.6312 7.7375 15.625 7.7375 15.625L6.91875 11.75C7.625 11.4812 8.13125 10.8 8.13125 9.99998C8.13125 9.49998 7.93125 9.04998 7.6125 8.71248L9.90625 5.33123L10.725 5.91873C10.725 5.91873 10.775 5.94373 10.8 5.95623C10.8938 6.59998 11.2375 7.20623 11.8062 7.61873L13.3125 8.70623C13.425 8.78748 13.55 8.82498 13.675 8.82498C13.8687 8.82498 14.0625 8.73748 14.1813 8.56873L16.8 4.93748C16.9 4.79998 16.9375 4.63748 16.9125 4.46873C16.8875 4.30623 16.7938 4.15623 16.6625 4.06248L15.1562 2.97498C14.5875 2.56248 13.9 2.43123 13.2562 2.54373C13.2375 2.52498 13.225 2.49998 13.2 2.48123L10.7812 0.731226C10.5 0.531226 10.1125 0.593726 9.90625 0.868726L8.15625 3.28748C8.05625 3.42498 8.01875 3.58748 8.04375 3.75623C8.06875 3.91873 8.1625 4.06873 8.29375 4.16248L8.88125 4.58748L6.475 8.13123C6.4 8.11873 6.325 8.10623 6.24375 8.10623C5.2125 8.10623 4.36875 8.94998 4.36875 9.98123C4.36875 10.8 4.9 11.4937 5.6375 11.7437L6.45 15.6062C6.45 15.6062 5.85625 15.6062 5.8125 15.6187C4.45625 15.9062 3.43125 16.9062 3.15625 18.1062H1.25C0.90625 18.1062 0.625 18.3875 0.625 18.7312C0.625 19.075 0.90625 19.3562 1.25 19.3562H18.75C19.0938 19.3562 19.375 19.075 19.375 18.7312C19.375 18.3875 19.0938 18.1062 18.75 18.1062V18.125ZM14.425 3.99998L15.425 4.71873L13.5375 7.33123L12.5375 6.61248C11.9812 6.20623 11.85 5.42498 12.2563 4.86873L12.6813 4.28123C12.925 3.94373 13.3062 3.76248 13.6938 3.76248C13.95 3.76248 14.2 3.83748 14.425 3.99998ZM10.5562 2.12498L12.0062 3.16873C11.8812 3.28123 11.7688 3.40623 11.6687 3.54998L11.2437 4.13748C11.1438 4.27498 11.0562 4.42498 10.9875 4.57498L9.5375 3.53123L10.5562 2.12498ZM6.25 9.37498C6.59375 9.37498 6.875 9.65623 6.875 9.99998C6.875 10.3437 6.59375 10.625 6.25 10.625C5.90625 10.625 5.625 10.3437 5.625 9.99998C5.625 9.65623 5.90625 9.37498 6.25 9.37498ZM4.45625 18.125C4.7 17.5312 5.28125 17.05 6.0125 16.875H8.85625C9.5875 17.05 10.1687 17.5312 10.4125 18.125H4.45625Z"/>
</svg>
