<svg viewBox="0 0 31 30" fill="none" xmlns="http://www.w3.org/2000/svg">
<rect y="30" width="30" height="30.7026" rx="15" transform="rotate(-90 0 30)" fill="#006BFF"/>
<path d="M21.8804 15.2288C21.6501 15.741 21.2766 16.1758 20.805 16.4808C20.3334 16.7858 19.7837 16.948 19.2221 16.948H14.9155V15.9469C14.9155 15.317 14.2308 14.7736 13.678 15.0454C12.0684 15.842 10.4389 17.0033 8.83759 18.0044C8.71185 18.0809 8.60792 18.1884 8.53579 18.3167C8.46367 18.445 8.42578 18.5897 8.42578 18.7368C8.42578 18.884 8.46367 19.0287 8.53579 19.1569C8.60792 19.2852 8.71185 19.3928 8.83759 19.4692C10.4389 20.4703 12.0684 21.6316 13.678 22.4282C14.2308 22.7001 14.9158 22.1566 14.9155 21.5264V20.5283H19.2221C20.0323 20.5279 20.8092 20.2058 21.382 19.6327C21.9548 19.0597 22.2765 18.2826 22.2765 17.4724V15.3138C22.2765 15.0906 21.9724 15.0252 21.8804 15.2288Z" fill="white"/>
<path d="M8.82236 14.7712C9.05274 14.259 9.42619 13.8242 9.8978 13.5193C10.3694 13.2143 10.9191 13.052 11.4807 13.0521H15.7873V14.0531C15.7873 14.683 16.472 15.225 17.0248 14.9546C18.6344 14.158 20.2639 12.9967 21.8652 11.9956C21.9909 11.9192 22.0949 11.8116 22.167 11.6833C22.2391 11.5551 22.277 11.4104 22.277 11.2632C22.277 11.1161 22.2391 10.9714 22.167 10.8431C22.0949 10.7148 21.9909 10.6073 21.8652 10.5308C20.2639 9.52945 18.6344 8.36814 17.0248 7.57186C16.472 7.29998 15.787 7.84343 15.7873 8.4736V9.47174H11.4822C10.6717 9.47174 9.89443 9.7937 9.32133 10.3668C8.74823 10.9399 8.42627 11.7172 8.42627 12.5277V14.6862C8.42627 14.9095 8.73037 14.9748 8.82236 14.7712Z" fill="white"/>
<path d="M8.83759 18.0047C8.71185 18.0812 8.60792 18.1887 8.53579 18.317C8.46367 18.4453 8.42578 18.5899 8.42578 18.7371C8.42578 18.8843 8.46367 19.029 8.53579 19.1572C8.60792 19.2855 8.71185 19.3931 8.83759 19.4695C10.4389 20.4703 12.0684 21.6316 13.678 22.4282C14.2308 22.7001 14.9158 22.1566 14.9155 21.5264V20.5283H19.2221C19.2982 20.5283 19.3732 20.5254 19.4479 20.5201C19.5459 20.0083 19.595 19.4884 19.5944 18.9674C19.5948 18.2856 19.5098 17.6065 19.3413 16.9459C19.3017 16.9459 19.2622 16.9486 19.2223 16.9486H14.9158V15.9475C14.9158 15.3176 14.2311 14.7742 13.6783 15.046C12.0684 15.842 10.4389 17.0033 8.83759 18.0047Z" fill="white"/>
<path d="M8.42627 14.6862C8.42627 14.9095 8.73066 14.9748 8.82236 14.7712C9.05274 14.259 9.42619 13.8242 9.89781 13.5193C10.3694 13.2143 10.9191 13.052 11.4807 13.0521H15.7873V14.0531C15.7873 14.683 16.472 15.225 17.0248 14.9546C17.4007 14.7686 17.7777 14.5626 18.1551 14.3435C17.1333 12.8622 15.6504 11.7604 13.9373 11.2098C12.2241 10.6591 10.377 10.6905 8.6835 11.299C8.5134 11.6862 8.4258 12.1047 8.42627 12.5277V14.6862Z" fill="white"/>
</svg>
