<svg viewBox="0 0 28 28" fill="none" xmlns="http://www.w3.org/2000/svg">
<g clip-path="url(#clip0_213_144)">
<path d="M14.0003 26.1236C20.6618 26.1236 26.0621 20.7233 26.0621 14.0618C26.0621 7.40025 20.6618 2 14.0003 2C7.33873 2 1.93848 7.40025 1.93848 14.0618C1.93848 20.7233 7.33873 26.1236 14.0003 26.1236Z" fill="url(#paint0_linear_213_144)"/>
<path d="M26.0621 14.0618V14.0616C26.062 7.40153 20.6641 2.00236 14.0045 2.00005L14.0002 2L13.9981 2.00005C13.6245 2.00011 13.2552 2.01806 12.8903 2.05133C12.9435 2.05616 12.9963 2.0622 13.0493 2.06775C9.57194 2.56258 6.68865 5.73959 5.5597 10.0348C3.32541 11.0581 1.93848 12.4841 1.93848 14.0618C1.93848 15.6395 3.32541 17.0655 5.55976 18.0888C6.6887 22.3841 9.57199 25.5611 13.0493 26.0559C12.9963 26.0614 12.9435 26.0675 12.8904 26.0723C13.2594 26.1063 13.6297 26.1234 14.0003 26.1236C20.6617 26.1236 26.062 20.7235 26.0621 14.0621V14.0618ZM5.21118 11.7622C5.13465 12.2972 5.0851 12.8356 5.06273 13.3755H3.49034C3.76907 12.8257 4.36432 12.2665 5.21118 11.7622ZM3.49034 14.7481H5.06273C5.08513 15.288 5.13467 15.8264 5.21118 16.3614C4.36432 15.8571 3.76907 15.2979 3.49034 14.7481ZM23.8223 13.3755H22.9378C22.9154 12.8356 22.8659 12.2972 22.7894 11.7622C23.1517 11.978 23.4675 12.2038 23.7327 12.4347C23.7748 12.747 23.8047 13.0609 23.8223 13.3755ZM22.9378 14.7481H23.8223C23.8047 15.0628 23.7748 15.3766 23.7326 15.689C23.4675 15.9198 23.1517 16.1457 22.7893 16.3614C22.8659 15.8265 22.9155 15.288 22.9378 14.7481ZM23.2981 10.4713C23.0187 10.3137 22.7326 10.1681 22.4408 10.0348C22.0012 8.36231 21.2955 6.85948 20.3925 5.61831C21.7146 6.96643 22.7226 8.62337 23.2981 10.4713ZM15.5466 9.84505C15.6628 10.965 15.7325 12.1567 15.7516 13.3755H12.249C12.2681 12.1566 12.3378 10.965 12.454 9.84505C12.9688 9.81264 13.4845 9.79644 14.0003 9.79646C14.522 9.79646 15.0378 9.81299 15.5466 9.84505ZM15.4718 3.57777C16.8687 3.97125 18.1679 4.92205 19.2283 6.35082C19.8887 7.24061 20.4221 8.26871 20.8176 9.41056C19.6105 9.02322 18.2452 8.73592 16.7761 8.57418C16.4841 6.45107 16.0281 4.70496 15.4718 3.57777ZM15.7516 14.7481C15.7325 15.9669 15.6628 17.1586 15.5465 18.2785C15.0378 18.3106 14.5219 18.3271 14.0002 18.3271C13.4785 18.3271 12.9627 18.3106 12.4539 18.2785C12.3377 17.1586 12.268 15.9669 12.2488 14.7481H15.7516ZM16.7761 19.5494C18.2452 19.3877 19.6105 19.1003 20.8177 18.713C20.4222 19.8549 19.8888 20.883 19.2284 21.7728C18.6385 22.5675 17.9747 23.2144 17.2613 23.6997C16.6715 24.101 15.9034 23.5448 16.1023 22.8598C16.3752 21.9201 16.6041 20.8002 16.7761 19.5494ZM18.429 17.9101C17.9355 18.0073 17.4387 18.0868 16.9394 18.1485C17.0427 17.0788 17.1065 15.9367 17.1243 14.7481H21.5639C21.5278 15.5491 21.4285 16.3345 21.2664 17.0974C20.4191 17.432 19.4683 17.7047 18.429 17.9101ZM17.1244 13.3755C17.1065 12.1868 17.0428 11.0448 16.9395 9.97506C17.4387 10.0368 17.9356 10.1163 18.4291 10.2134C19.4683 10.4189 20.4191 10.6917 21.2665 11.0262C21.4286 11.7892 21.5279 12.5744 21.564 13.3755H17.1244ZM12.9513 6.68215C13.1609 5.74272 13.4136 4.93259 13.6822 4.33937C13.8044 4.06931 13.913 3.88028 14.0003 3.74995C14.0875 3.88028 14.1961 4.06926 14.3184 4.33937C14.587 4.93259 14.8397 5.74272 15.0492 6.68215C15.1728 7.236 15.2811 7.83218 15.3737 8.46053C14.9163 8.43621 14.4583 8.424 14.0003 8.42391C13.5357 8.42391 13.0776 8.43665 12.6268 8.46053C12.7194 7.83213 12.8278 7.23595 12.9513 6.68215ZM8.77218 6.35082C9.83261 4.92205 11.1318 3.97125 12.5287 3.57777C11.9724 4.70491 11.5163 6.45107 11.2244 8.57418C9.7552 8.73592 8.39001 9.02328 7.18282 9.41061C7.57839 8.26871 8.11176 7.24067 8.77218 6.35082ZM6.73411 11.0262C7.58152 10.6917 8.53226 10.4189 9.5715 10.2134C10.065 10.1163 10.5619 10.0368 11.0611 9.97506C10.9578 11.0448 10.8941 12.1869 10.8762 13.3755H6.43665C6.47272 12.5744 6.57198 11.7891 6.73411 11.0262ZM6.43659 14.7481H10.8762C10.894 15.9368 10.9578 17.0788 11.061 18.1485C10.5618 18.0868 10.065 18.0073 9.57144 17.9101C8.5322 17.7047 7.58147 17.4319 6.73405 17.0974C6.57204 16.3345 6.47272 15.5491 6.43659 14.7481ZM8.77218 21.7728C8.11176 20.883 7.57839 19.8549 7.18288 18.713C8.39001 19.1004 9.75525 19.3877 11.2244 19.5495C11.3964 20.8002 11.6254 21.9202 11.8982 22.8598C12.0972 23.5449 11.329 24.1011 10.7392 23.6998C10.0259 23.2144 9.3621 22.5675 8.77218 21.7728ZM12.6268 19.6631C13.0777 19.687 13.5358 19.6997 14.0003 19.6997C14.4648 19.6997 14.9228 19.6871 15.3737 19.6631C15.2811 20.2915 15.1728 20.8876 15.0492 21.4415C14.8397 22.3809 14.587 23.1911 14.3184 23.7843L14.3147 23.7923C14.1923 24.0616 13.8082 24.0616 13.6859 23.7923L13.6822 23.7843C13.4136 23.1911 13.1608 22.3809 12.9513 21.4415C12.8278 20.8876 12.7194 20.2915 12.6268 19.6631ZM20.3925 22.5053C21.2955 21.2641 22.0012 19.7613 22.4408 18.0888C22.7326 17.9555 23.0187 17.8099 23.2981 17.6523C22.7226 19.5002 21.7146 21.1572 20.3925 22.5053Z" fill="url(#paint1_linear_213_144)"/>
<path d="M26.8883 24.1991H1.11171C0.497741 24.1991 0 23.7013 0 23.0874V17.4245C0 16.8105 0.497741 16.3128 1.11171 16.3128H26.8882C27.5022 16.3128 27.9999 16.8105 27.9999 17.4245V23.0874C28 23.7013 27.5023 24.1991 26.8883 24.1991Z" fill="url(#paint2_linear_213_144)"/>
<path d="M26.8887 16.3128H24.6689C25.2829 16.3128 25.7807 16.8105 25.7807 17.4245V23.0874C25.7807 23.7013 25.283 24.1991 24.6689 24.1991H26.8887C27.5027 24.1991 28.0005 23.7013 28.0005 23.0874V17.4245C28.0005 16.8105 27.5027 16.3128 26.8887 16.3128Z" fill="url(#paint3_linear_213_144)"/>
<path d="M4.56839 21.9256C4.56839 22.0881 4.32457 22.2507 4.04007 22.2507C3.73531 22.2507 3.51855 22.0881 3.51855 21.9256V17.5027C3.51855 17.3131 3.73531 17.1844 4.04007 17.1844C4.32457 17.1844 4.56839 17.3131 4.56839 17.5027V19.5008C4.69033 19.2366 4.98828 18.986 5.40828 18.986C6.02461 18.986 6.55968 19.6295 6.55968 20.4084V21.9256C6.55968 22.1423 6.29555 22.2507 6.03142 22.2507C5.7876 22.2507 5.5099 22.1423 5.5099 21.9256V20.4084C5.5099 20.151 5.2864 19.9004 5.02221 19.9004C4.7987 19.9004 4.56839 20.09 4.56839 20.4084V21.9256ZM8.17177 21.1061C8.17177 21.3024 8.23946 21.3703 8.44946 21.3703H8.74077C9.04553 21.3703 9.18779 21.5937 9.18779 21.8105C9.18779 22.034 9.04553 22.2508 8.74077 22.2508H8.44946C7.58932 22.2508 7.12194 21.9054 7.12194 21.1061V17.9431C7.12194 17.7534 7.39968 17.6247 7.64345 17.6247C7.90764 17.6247 8.17177 17.7534 8.17177 17.9431V19.0268H8.9371C9.10642 19.0268 9.19448 19.2164 9.19448 19.3993C9.19448 19.589 9.10642 19.7718 8.9371 19.7718H8.17177V21.1061ZM10.6373 21.1061C10.6373 21.3024 10.7049 21.3703 10.9149 21.3703H11.2063C11.511 21.3703 11.6533 21.5937 11.6533 21.8105C11.6533 22.034 11.511 22.2508 11.2063 22.2508H10.9149C10.0548 22.2508 9.58742 21.9054 9.58742 21.1061V17.9431C9.58742 17.7534 9.86517 17.6247 10.1089 17.6247C10.3731 17.6247 10.6373 17.7534 10.6373 17.9431V19.0268H11.4026C11.5719 19.0268 11.66 19.2164 11.66 19.3993C11.66 19.589 11.572 19.7718 11.4026 19.7718H10.6373V21.1061ZM13.0553 19.345V19.5008C13.2111 19.2366 13.5429 18.986 13.9696 18.986C14.6537 18.986 15.182 19.6295 15.182 20.4084V20.8825C15.182 21.6343 14.6334 22.3184 14.0035 22.3184C13.6039 22.3184 13.2517 22.0542 13.123 21.7766V23.3953C13.123 23.5579 12.8859 23.7204 12.5879 23.7204C12.2899 23.7204 12.0732 23.5579 12.0732 23.3953V19.345C12.0732 19.1553 12.2967 19.0267 12.5744 19.0267C12.8521 19.0267 13.0553 19.1553 13.0553 19.345ZM14.1322 20.4084C14.1322 20.151 13.9019 19.9004 13.6174 19.9004C13.3736 19.9004 13.123 20.0901 13.123 20.4084V20.9706C13.123 21.0857 13.3329 21.4041 13.631 21.4041C13.8951 21.4041 14.1322 21.1467 14.1322 20.8825V20.4084ZM17.1938 21.316C17.1938 20.8486 15.6088 21.167 15.6088 20.0292C15.6088 19.5279 15.9205 18.9861 16.8822 18.9861C17.4714 18.9861 18.0336 19.1893 18.0336 19.4738C18.0336 19.6092 17.8981 19.9682 17.6544 19.9682C17.4715 19.9682 17.2616 19.765 16.8958 19.765C16.6249 19.765 16.5097 19.8802 16.5097 19.9817C16.5097 20.361 18.1082 20.0834 18.1082 21.2754C18.1082 21.9121 17.6476 22.3185 16.8009 22.3185C16.0898 22.3185 15.5141 22.0272 15.5141 21.6953C15.5141 21.5328 15.6495 21.2348 15.8595 21.2348C16.0762 21.2348 16.232 21.5395 16.7739 21.5395C17.1328 21.5395 17.1938 21.4108 17.1938 21.316ZM19.5576 19.914C19.5576 20.1917 19.3205 20.4355 19.0428 20.4355C18.7448 20.4355 18.5213 20.1917 18.5213 19.914C18.5213 19.6295 18.7448 19.3925 19.0428 19.3925C19.3205 19.3925 19.5576 19.6295 19.5576 19.914ZM19.5576 21.7698C19.5576 22.0475 19.3205 22.2913 19.0428 22.2913C18.7448 22.2913 18.5213 22.0475 18.5213 21.7698C18.5213 21.4854 18.7448 21.2483 19.0428 21.2483C19.3205 21.2483 19.5576 21.4854 19.5576 21.7698ZM23.0119 17.3808C23.0119 17.4214 23.0051 17.4689 22.9848 17.5095L20.6006 22.393C20.5532 22.4945 20.4245 22.5623 20.2958 22.5623C20.0656 22.5623 19.9166 22.3726 19.9166 22.2033C19.9166 22.1626 19.9301 22.1152 19.9504 22.0746L22.3277 17.1912C22.3819 17.076 22.4903 17.0219 22.6122 17.0219C22.8018 17.0219 23.0119 17.1641 23.0119 17.3808ZM24.6781 17.3808C24.6781 17.4214 24.6713 17.4689 24.651 17.5095L22.2669 22.393C22.2194 22.4945 22.0907 22.5623 21.962 22.5623C21.7318 22.5623 21.5828 22.3726 21.5828 22.2033C21.5828 22.1626 21.5963 22.1152 21.6166 22.0746L23.994 17.1912C24.0482 17.076 24.1565 17.0219 24.2785 17.0219C24.4681 17.0219 24.6781 17.1641 24.6781 17.3808Z" fill="#7A6D79"/>
</g>
<defs>
<linearGradient id="paint0_linear_213_144" x1="1.93848" y1="14.0618" x2="26.0621" y2="14.0618" gradientUnits="userSpaceOnUse">
<stop stop-color="#99E6FC"/>
<stop offset="0.43" stop-color="#01D0FB"/>
<stop offset="0.526" stop-color="#08C6F7"/>
<stop offset="0.692" stop-color="#1DA9EB"/>
<stop offset="0.907" stop-color="#3F7CD9"/>
<stop offset="1" stop-color="#4F66D0"/>
</linearGradient>
<linearGradient id="paint1_linear_213_144" x1="-7.90561" y1="14.0618" x2="25.5961" y2="14.0618" gradientUnits="userSpaceOnUse">
<stop stop-color="#99E6FC"/>
<stop offset="0.43" stop-color="#01D0FB"/>
<stop offset="0.526" stop-color="#08C6F7"/>
<stop offset="0.692" stop-color="#1DA9EB"/>
<stop offset="0.907" stop-color="#3F7CD9"/>
<stop offset="1" stop-color="#4F66D0"/>
</linearGradient>
<linearGradient id="paint2_linear_213_144" x1="0" y1="20.256" x2="32.3905" y2="20.256" gradientUnits="userSpaceOnUse">
<stop stop-color="#F8F6F7"/>
<stop offset="0.179" stop-color="#F8F6F7"/>
<stop offset="1" stop-color="#E7E6F5"/>
</linearGradient>
<linearGradient id="paint3_linear_213_144" x1="12.4083" y1="20.256" x2="24.4324" y2="20.256" gradientUnits="userSpaceOnUse">
<stop stop-color="#F8F6F7"/>
<stop offset="1" stop-color="#D1CEEB"/>
</linearGradient>
<clipPath id="clip0_213_144">
<rect width="28" height="28" fill="white"/>
</clipPath>
</defs>
</svg>
