<svg viewBox="0 0 688 752" fill="none" xmlns="http://www.w3.org/2000/svg">
<g style="mix-blend-mode:luminosity" clip-path="url(#clip0_203_113)">
<g opacity="0.3">
<path d="M654.691 715.688V704.797L651.683 703.125C650.82 708.264 644.755 711.656 639.676 712.369L605.159 732.529L590.07 737.962L541.894 713.181L543.003 712.541C538.886 710.624 536.691 706.223 534.448 702.216L531.218 704.158L529.295 704.699V715.885C529.415 717.151 529.868 718.364 530.608 719.4C531.348 720.436 532.35 721.259 533.511 721.785L581.786 749.566C584.962 751.167 588.471 752.001 592.03 752.001C595.589 752.001 599.098 751.167 602.274 749.566L650.549 721.785C651.688 721.255 652.673 720.444 653.411 719.429C654.148 718.414 654.614 717.228 654.765 715.983V715.688H654.691Z" fill="url(#paint0_linear_203_113)"/>
<path opacity="0.3" d="M639.676 712.369L605.159 732.529L592.018 737.249V752C595.591 752.066 599.121 751.22 602.274 749.542L650.549 721.761C651.688 721.231 652.673 720.42 653.411 719.405C654.149 718.389 654.614 717.203 654.765 715.959V715.664V704.773L652.003 703.248H651.732C650.697 708.337 644.607 711.73 639.676 712.369Z" fill="#0F054C"/>
<path d="M581.712 738.478L533.437 710.698C527.791 707.452 527.791 702.142 533.437 698.897L581.712 671.116C584.888 669.515 588.397 668.681 591.956 668.681C595.515 668.681 599.024 669.515 602.2 671.116L650.475 698.897C656.121 702.142 656.121 707.452 650.475 710.698L602.2 738.478C599.024 740.079 595.515 740.914 591.956 740.914C588.397 740.914 584.888 740.079 581.712 738.478Z" fill="url(#paint1_linear_203_113)"/>
<g opacity="0.3">
<path d="M581.712 738.478L533.437 710.698C527.791 707.452 527.791 702.142 533.437 698.897L581.712 671.116C584.888 669.515 588.397 668.681 591.956 668.681C595.515 668.681 599.024 669.515 602.2 671.116L650.475 698.897C656.121 702.142 656.121 707.452 650.475 710.698L602.2 738.478C599.024 740.079 595.515 740.914 591.956 740.914C588.397 740.914 584.888 740.079 581.712 738.478Z" fill="#0F054C"/>
</g>
</g>
<path d="M591.944 703.371C588.785 703.427 585.663 702.682 582.871 701.208L534.596 673.402C533.462 673.002 532.48 672.262 531.785 671.282C531.09 670.302 530.717 669.132 530.717 667.932C530.717 666.732 531.09 665.562 531.785 664.583C532.48 663.603 533.462 662.862 534.596 662.462L582.969 634.681C585.783 633.25 588.896 632.504 592.055 632.504C595.213 632.504 598.327 633.25 601.14 634.681L649.316 662.56C650.451 662.96 651.433 663.701 652.127 664.681C652.822 665.661 653.195 666.831 653.195 668.031C653.195 669.23 652.822 670.401 652.127 671.38C651.433 672.36 650.451 673.101 649.316 673.501L601.042 701.306C598.232 702.748 595.103 703.459 591.944 703.371ZM583.29 700.47C585.966 701.817 588.922 702.518 591.919 702.518C594.917 702.518 597.872 701.817 600.548 700.47L648.823 672.689C649.878 672.414 650.812 671.798 651.479 670.938C652.146 670.077 652.507 669.02 652.507 667.932C652.507 666.845 652.146 665.788 651.479 664.927C650.812 664.066 649.878 663.45 648.823 663.175L600.622 635.517C597.946 634.171 594.991 633.469 591.993 633.469C588.996 633.469 586.04 634.171 583.364 635.517L535.089 663.298C534.034 663.573 533.1 664.189 532.433 665.05C531.767 665.911 531.405 666.968 531.405 668.055C531.405 669.143 531.767 670.2 532.433 671.06C533.1 671.921 534.034 672.537 535.089 672.812L583.29 700.47Z" fill="#42E8E0"/>
<path opacity="0.4" d="M654.691 657.275V640.778L651.683 639.107C650.82 644.269 644.755 647.638 639.676 648.35L605.159 668.51L590.07 673.943L541.894 649.162L543.004 648.523C538.886 646.605 536.692 642.229 534.448 638.222L531.219 640.139L529.295 640.68V657.447C529.41 658.715 529.861 659.929 530.602 660.966C531.343 662.003 532.347 662.825 533.511 663.347L581.786 691.128C584.962 692.729 588.471 693.563 592.03 693.563C595.589 693.563 599.098 692.729 602.274 691.128L650.549 663.347C651.7 662.833 652.695 662.026 653.435 661.008C654.175 659.99 654.633 658.796 654.765 657.545V657.275H654.691Z" fill="#42E8E0"/>
<path d="M654.691 642.622V631.707L651.683 630.035C650.82 635.198 644.755 638.566 639.676 639.279L605.159 659.438L590.07 664.871L541.894 640.09L543.004 639.451C538.886 637.533 536.692 633.157 534.448 629.15L531.219 631.067L529.295 631.608V642.893C529.41 644.161 529.861 645.375 530.602 646.412C531.343 647.449 532.347 648.271 533.511 648.793L581.786 676.574C584.962 678.175 588.471 679.009 592.03 679.009C595.589 679.009 599.098 678.175 602.274 676.574L650.549 648.793C651.7 648.279 652.695 647.472 653.435 646.454C654.175 645.436 654.633 644.242 654.765 642.991V642.721L654.691 642.622Z" fill="url(#paint2_linear_203_113)"/>
<path opacity="0.3" d="M639.676 639.279L605.159 659.438L592.018 664.183V678.934C595.591 679 599.122 678.153 602.275 676.475L650.549 648.694C651.7 648.18 652.695 647.374 653.435 646.356C654.175 645.337 654.634 644.143 654.765 642.893V642.622V631.706L652.004 630.182H651.733C650.697 635.247 644.607 638.59 639.676 639.279Z" fill="#0F054C"/>
<path d="M581.712 665.412L533.437 637.607C527.791 634.362 527.791 629.076 533.437 625.806L581.712 598.025C584.888 596.424 588.397 595.59 591.956 595.59C595.515 595.59 599.024 596.424 602.2 598.025L650.475 625.831C656.121 629.076 656.121 634.362 650.475 637.607L602.2 665.412C599.024 667.013 595.515 667.847 591.956 667.847C588.397 667.847 584.888 667.013 581.712 665.412Z" fill="url(#paint3_linear_203_113)"/>
<path d="M650.475 637.607L602.2 665.412C599.024 667.013 595.515 667.848 591.956 667.848C588.397 667.848 584.888 667.013 581.712 665.412L533.437 637.607C532.381 637.125 531.454 636.403 530.73 635.497C530.006 634.592 529.506 633.529 529.27 632.395C529.206 633.786 529.571 635.164 530.316 636.342C531.061 637.52 532.15 638.442 533.437 638.984L581.712 666.765C584.888 668.366 588.397 669.2 591.956 669.2C595.515 669.2 599.024 668.366 602.2 666.765L650.475 638.984C651.762 638.442 652.851 637.52 653.596 636.342C654.341 635.164 654.706 633.786 654.642 632.395C654.394 633.524 653.889 634.581 653.166 635.484C652.444 636.388 651.523 637.114 650.475 637.607Z" fill="white"/>
<g opacity="0.3">
<path d="M125.494 701.232V690.341L122.462 688.645C121.624 693.808 115.534 697.176 110.455 697.889L75.9377 718.048L60.8488 723.482L12.6235 698.7L13.7329 698.061C9.6155 696.143 7.39654 691.767 5.17758 687.76L1.92309 689.677L0 690.218V701.404C0.114712 702.676 0.568497 703.893 1.31417 704.931C2.05983 705.968 3.07023 706.788 4.24068 707.305L52.4907 735.086C55.6677 736.698 59.1822 737.539 62.7472 737.539C66.3122 737.539 69.8267 736.698 73.0037 735.086L121.254 707.305C122.406 706.79 123.404 705.984 124.148 704.966C124.891 703.948 125.356 702.754 125.494 701.503V701.232Z" fill="url(#paint4_linear_203_113)"/>
<path opacity="0.3" d="M110.455 697.889L75.9376 718.048L62.7471 722.793V737.544C66.3198 737.607 69.8497 736.761 73.0036 735.086L121.254 707.305C122.406 706.79 123.404 705.984 124.147 704.966C124.891 703.948 125.356 702.754 125.494 701.503V701.232V690.341L122.733 688.792H122.437C121.5 693.857 115.484 697.2 110.455 697.889Z" fill="#0F054C"/>
<path d="M52.4894 724.022L4.23939 696.217C-1.40662 692.972 -1.40662 687.686 4.23939 684.441L52.4894 656.635C55.6705 655.036 59.1834 654.203 62.7459 654.203C66.3085 654.203 69.8214 655.036 73.0025 656.635L121.252 684.441C126.898 687.686 126.898 692.972 121.252 696.217L73.0025 724.022C69.8214 725.622 66.3085 726.455 62.7459 726.455C59.1834 726.455 55.6705 725.622 52.4894 724.022Z" fill="url(#paint5_linear_203_113)"/>
<g opacity="0.3">
<path d="M52.4894 724.022L4.23939 696.217C-1.40662 692.972 -1.40662 687.686 4.23939 684.441L52.4894 656.635C55.6705 655.036 59.1834 654.203 62.7459 654.203C66.3085 654.203 69.8214 655.036 73.0025 656.635L121.252 684.441C126.898 687.686 126.898 692.972 121.252 696.217L73.0025 724.022C69.8214 725.622 66.3085 726.455 62.7459 726.455C59.1834 726.455 55.6705 725.622 52.4894 724.022Z" fill="#0F054C"/>
</g>
</g>
<path d="M62.7471 683.581C59.5789 683.648 56.4464 682.903 53.6494 681.417L5.39941 653.636C4.25645 653.241 3.26529 652.501 2.56379 651.519C1.86228 650.536 1.48535 649.36 1.48535 648.154C1.48535 646.948 1.86228 645.772 2.56379 644.789C3.26529 643.806 4.25645 643.066 5.39941 642.671L53.6494 614.891C56.4713 613.473 59.5872 612.734 62.7471 612.734C65.9071 612.734 69.023 613.473 71.8449 614.891L120.095 642.696C121.229 643.096 122.211 643.837 122.906 644.816C123.601 645.796 123.974 646.966 123.974 648.166C123.974 649.366 123.601 650.536 122.906 651.516C122.211 652.495 121.229 653.236 120.095 653.636L71.8449 681.417C69.0479 682.903 65.9154 683.648 62.7471 683.581ZM62.7471 613.563C59.7253 613.505 56.7383 614.215 54.0686 615.628L5.81858 643.409C4.76334 643.684 3.82933 644.3 3.16271 645.161C2.49608 646.022 2.13446 647.079 2.13446 648.166C2.13446 649.254 2.49608 650.311 3.16271 651.171C3.82933 652.032 4.76334 652.648 5.81858 652.923L54.0686 680.704C56.7464 682.045 59.7014 682.743 62.6979 682.743C65.6943 682.743 68.6493 682.045 71.3271 680.704L119.577 652.923C120.632 652.648 121.566 652.032 122.233 651.171C122.9 650.311 123.261 649.254 123.261 648.166C123.261 647.079 122.9 646.022 122.233 645.161C121.566 644.3 120.632 643.684 119.577 643.409L71.3271 615.628C68.6867 614.231 65.7358 613.521 62.7471 613.563Z" fill="#42E8E0"/>
<path opacity="0.4" d="M125.494 637.509V621.012L122.462 619.34C121.623 624.479 115.534 627.871 110.455 628.584L75.9377 648.744L60.8488 654.177L12.6727 629.396L13.7822 628.756C9.66482 626.839 7.44586 622.438 5.2269 618.455L1.97241 620.373L0.0493164 620.914V637.681C0.16655 638.951 0.621203 640.168 1.36657 641.205C2.11193 642.242 3.12107 643.062 4.28999 643.581L52.5399 671.362C55.721 672.961 59.2339 673.794 62.7964 673.794C66.359 673.794 69.8719 672.961 73.053 671.362L121.303 643.581C122.447 643.054 123.437 642.245 124.179 641.229C124.921 640.214 125.391 639.026 125.544 637.779V637.484L125.494 637.509Z" fill="#42E8E0"/>
<path d="M125.494 622.856V611.94L122.462 610.269C121.623 615.407 115.534 618.8 110.455 619.512L75.9377 639.672L60.8488 645.105L12.6727 620.324L13.7822 619.685C9.66482 617.767 7.44586 613.366 5.2269 609.384L1.97241 611.301L0.0493164 611.842V623.028C0.164029 624.299 0.617738 625.517 1.36341 626.554C2.10907 627.592 3.11955 628.412 4.28999 628.928L52.5399 656.709C55.721 658.309 59.2339 659.142 62.7964 659.142C66.359 659.142 69.8719 658.309 73.053 656.709L121.303 628.928C122.455 628.414 123.453 627.607 124.197 626.59C124.941 625.572 125.405 624.378 125.544 623.126V622.856H125.494Z" fill="url(#paint6_linear_203_113)"/>
<path opacity="0.3" d="M110.455 619.512L75.9376 639.672L62.7471 644.417V659.168C66.3198 659.23 69.8497 658.384 73.0036 656.709L121.254 628.928C122.406 628.414 123.404 627.607 124.147 626.59C124.891 625.572 125.356 624.378 125.494 623.126V622.856V611.94L122.733 610.416H122.437C121.5 615.481 115.484 618.824 110.455 619.512Z" fill="#0F054C"/>
<path d="M52.4909 645.621L4.24086 617.841C-1.40516 614.595 -1.40516 609.31 4.24086 606.04L52.4909 578.259C55.6719 576.66 59.1848 575.827 62.7474 575.827C66.3099 575.827 69.8229 576.66 73.0039 578.259L121.254 606.015C126.9 609.285 126.9 614.571 121.254 617.816L73.0039 645.597C69.8288 647.213 66.3153 648.058 62.7503 648.063C59.1853 648.067 55.6699 647.23 52.4909 645.621Z" fill="url(#paint7_linear_203_113)"/>
<path d="M62.7471 640.582C59.889 640.643 57.0629 639.974 54.5369 638.639L16.8146 616.931C15.7846 616.565 14.8934 615.89 14.2633 614.998C13.6331 614.107 13.2949 613.043 13.2949 611.953C13.2949 610.862 13.6331 609.798 14.2633 608.907C14.8934 608.016 15.7846 607.341 16.8146 606.974L54.5369 585.266C57.0818 583.981 59.8944 583.311 62.7471 583.311C65.5997 583.311 68.4123 583.981 70.9572 585.266L108.679 606.974C109.71 607.341 110.601 608.016 111.231 608.907C111.861 609.798 112.199 610.862 112.199 611.953C112.199 613.043 111.861 614.107 111.231 614.998C110.601 615.89 109.71 616.565 108.679 616.931L70.9572 638.639C68.432 639.976 65.6053 640.645 62.7471 640.582ZM54.956 637.976C57.3714 639.194 60.0402 639.829 62.7471 639.829C65.4539 639.829 68.1228 639.194 70.5381 637.976L108.236 616.267C109.139 615.981 109.927 615.416 110.486 614.654C111.045 613.891 111.347 612.971 111.347 612.026C111.347 611.082 111.045 610.162 110.486 609.399C109.927 608.637 109.139 608.072 108.236 607.786L70.5381 586.077C68.1228 584.859 65.4539 584.224 62.7471 584.224C60.0402 584.224 57.3714 584.859 54.956 586.077L17.2584 607.786C16.3556 608.072 15.5675 608.637 15.0082 609.399C14.4489 610.162 14.1473 611.082 14.1473 612.026C14.1473 612.971 14.4489 613.891 15.0082 614.654C15.5675 615.416 16.3556 615.981 17.2584 616.267L54.956 637.976Z" fill="#5351AF"/>
<path d="M121.254 617.841L73.0037 645.622C69.8267 647.234 66.3122 648.075 62.7472 648.075C59.1822 648.075 55.6677 647.234 52.4907 645.622L4.24069 617.841C3.18885 617.349 2.26405 616.624 1.53742 615.721C0.810792 614.817 0.30174 613.759 0.0493742 612.629C-0.00614048 614.022 0.365176 615.398 1.11396 616.575C1.86275 617.752 2.95342 618.674 4.24069 619.217L52.4907 646.998C55.6718 648.598 59.1847 649.431 62.7472 649.431C66.3098 649.431 69.8227 648.598 73.0037 646.998L121.254 619.217C122.541 618.674 123.632 617.752 124.38 616.575C125.129 615.398 125.501 614.022 125.445 612.629C125.193 613.759 124.684 614.817 123.957 615.721C123.23 616.624 122.306 617.349 121.254 617.841Z" fill="white"/>
<g opacity="0.3">
<path d="M688 390.923V380.032L684.968 378.36C684.129 383.498 678.04 386.891 672.961 387.604L638.444 407.764L623.355 413.197L575.179 388.415L576.288 387.752C572.171 385.834 569.952 381.458 567.733 377.451L564.478 379.393L562.555 379.934V391.12C562.674 392.387 563.13 393.599 563.875 394.632C564.621 395.665 565.629 396.481 566.796 396.995L615.021 424.801C618.202 426.4 621.715 427.233 625.278 427.233C628.84 427.233 632.353 426.4 635.534 424.801L683.76 397.045C684.904 396.518 685.894 395.708 686.636 394.693C687.378 393.677 687.847 392.49 688 391.243V390.948V390.923Z" fill="url(#paint8_linear_203_113)"/>
<path opacity="0.3" d="M672.961 387.604L638.443 407.764L625.302 412.484V427.235C628.875 427.297 632.405 426.451 635.559 424.776L683.759 397.045C684.903 396.518 685.894 395.708 686.636 394.693C687.378 393.677 687.847 392.49 688 391.243V390.948V380.056L685.239 378.532H684.943C684.055 383.572 677.99 386.891 672.961 387.604Z" fill="#0F054C"/>
<path d="M615.021 413.713L566.771 385.932C561.125 382.687 561.125 377.377 566.771 374.132L615.021 346.351C618.202 344.751 621.715 343.918 625.278 343.918C628.84 343.918 632.353 344.751 635.534 346.351L683.784 374.132C689.43 377.377 689.43 382.687 683.784 385.932L635.534 413.713C632.353 415.313 628.84 416.146 625.278 416.146C621.715 416.146 618.202 415.313 615.021 413.713Z" fill="url(#paint9_linear_203_113)"/>
<g opacity="0.3">
<path d="M615.021 413.713L566.771 385.932C561.125 382.687 561.125 377.377 566.771 374.132L615.021 346.351C618.202 344.751 621.715 343.918 625.278 343.918C628.84 343.918 632.353 344.751 635.534 346.351L683.784 374.132C689.43 377.377 689.43 382.687 683.784 385.932L635.534 413.713C632.353 415.313 628.84 416.146 625.278 416.146C621.715 416.146 618.202 415.313 615.021 413.713Z" fill="#0F054C"/>
</g>
</g>
<path d="M625.253 378.68C622.085 378.747 618.952 378.002 616.155 376.516L567.905 348.735C566.762 348.341 565.771 347.6 565.07 346.618C564.368 345.635 563.991 344.459 563.991 343.253C563.991 342.047 564.368 340.871 565.07 339.888C565.771 338.906 566.762 338.165 567.905 337.771L616.155 309.99C618.977 308.572 622.093 307.833 625.253 307.833C628.413 307.833 631.529 308.572 634.351 309.99L682.625 337.771C683.757 338.177 684.736 338.921 685.427 339.902C686.119 340.884 686.49 342.054 686.49 343.253C686.49 344.452 686.119 345.622 685.427 346.604C684.736 347.585 683.757 348.329 682.625 348.735L634.351 376.516C631.554 378.002 628.421 378.747 625.253 378.68ZM616.574 375.803C619.252 377.144 622.207 377.842 625.204 377.842C628.2 377.842 631.155 377.144 633.833 375.803L682.083 348.022C683.138 347.747 684.072 347.131 684.739 346.271C685.406 345.41 685.767 344.353 685.767 343.265C685.767 342.178 685.406 341.121 684.739 340.26C684.072 339.399 683.138 338.783 682.083 338.508L633.833 310.727C631.155 309.387 628.2 308.688 625.204 308.688C622.207 308.688 619.252 309.387 616.574 310.727L568.324 338.508C567.28 338.791 566.358 339.409 565.7 340.267C565.043 341.124 564.687 342.174 564.687 343.253C564.687 344.332 565.043 345.382 565.7 346.239C566.358 347.097 567.28 347.715 568.324 347.998L616.574 375.803Z" fill="#42E8E0"/>
<path opacity="0.4" d="M688 332.608V316.111L684.968 314.44C684.129 319.578 678.04 322.971 672.961 323.684L638.444 343.843L623.355 349.276L575.179 324.495L576.288 323.856C572.171 321.938 569.952 317.537 567.733 313.555L564.478 315.472L562.555 316.013V332.78C562.672 334.05 563.127 335.267 563.873 336.304C564.618 337.341 565.627 338.161 566.796 338.68L615.021 366.461C618.202 368.06 621.715 368.894 625.278 368.894C628.84 368.894 632.353 368.06 635.534 366.461L683.784 338.68C684.928 338.153 685.918 337.344 686.66 336.328C687.402 335.313 687.872 334.125 688.025 332.878V332.583L688 332.608Z" fill="#42E8E0"/>
<path d="M688 317.955V307.04L684.968 305.368C684.129 310.506 678.04 313.899 672.961 314.612L638.443 334.771L623.355 340.205L575.129 315.423L576.239 314.784C572.121 312.866 569.902 308.466 567.683 304.483L564.429 306.4L562.506 306.941V318.127C562.621 319.399 563.074 320.616 563.82 321.654C564.566 322.691 565.576 323.511 566.747 324.028L615.021 351.809C618.202 353.408 621.715 354.241 625.278 354.241C628.84 354.241 632.353 353.408 635.534 351.809L683.784 324.028C684.937 323.513 685.934 322.706 686.678 321.689C687.422 320.671 687.886 319.477 688.025 318.226V317.955H688Z" fill="url(#paint10_linear_203_113)"/>
<path opacity="0.3" d="M672.961 314.612L638.443 334.771L625.302 339.492V354.242C628.875 354.305 632.405 353.459 635.559 351.784L683.809 324.003C684.961 323.488 685.959 322.682 686.703 321.664C687.446 320.647 687.911 319.453 688.049 318.201V317.931V307.015L685.288 305.491H684.992C684.055 310.58 677.99 313.899 672.961 314.612Z" fill="#0F054C"/>
<path d="M615.021 340.721L566.771 312.94C561.125 309.695 561.125 304.409 566.771 301.139L615.021 273.358C618.202 271.759 621.715 270.926 625.278 270.926C628.84 270.926 632.353 271.759 635.534 273.358L683.76 301.164C689.406 304.434 689.406 309.719 683.76 312.965L635.51 340.745C632.334 342.35 628.823 343.184 625.262 343.18C621.702 343.176 618.193 342.333 615.021 340.721Z" fill="url(#paint11_linear_203_113)"/>
<path d="M625.253 335.583C622.391 335.647 619.562 334.97 617.043 333.616L579.345 311.932C578.355 311.543 577.506 310.866 576.908 309.989C576.309 309.112 575.989 308.076 575.989 307.015C575.989 305.954 576.309 304.918 576.908 304.041C577.506 303.164 578.355 302.487 579.345 302.098L617.067 280.39C619.612 279.104 622.425 278.435 625.277 278.435C628.13 278.435 630.943 279.104 633.487 280.39L671.21 302.098C672.181 302.533 673.02 303.218 673.639 304.081C674.258 304.945 674.637 305.958 674.735 307.015C674.629 308.07 674.248 309.079 673.63 309.942C673.011 310.805 672.177 311.491 671.21 311.932L633.487 333.616C630.957 334.965 628.121 335.643 625.253 335.583ZM625.253 279.038C622.538 278.982 619.854 279.625 617.462 280.906L579.764 302.614C578.861 302.9 578.073 303.466 577.514 304.228C576.954 304.99 576.653 305.911 576.653 306.855C576.653 307.8 576.954 308.72 577.514 309.482C578.073 310.245 578.861 310.81 579.764 311.096L617.486 333.124C619.902 334.343 622.57 334.977 625.277 334.977C627.984 334.977 630.653 334.343 633.068 333.124L670.791 311.416C671.693 311.13 672.482 310.564 673.041 309.802C673.6 309.04 673.902 308.12 673.902 307.175C673.902 306.23 673.6 305.31 673.041 304.548C672.482 303.785 671.693 303.22 670.791 302.934L633.093 281.226C630.698 279.894 627.995 279.207 625.253 279.234V279.038Z" fill="#5351AF"/>
<path d="M683.76 312.94L635.509 340.721C632.332 342.333 628.818 343.174 625.253 343.174C621.688 343.174 618.173 342.333 614.996 340.721L566.747 312.94C565.698 312.444 564.776 311.717 564.05 310.815C563.324 309.912 562.813 308.856 562.555 307.728C562.498 309.118 562.869 310.492 563.618 311.666C564.367 312.839 565.459 313.756 566.747 314.292L615.021 342.098C618.202 343.697 621.715 344.53 625.278 344.53C628.84 344.53 632.353 343.697 635.534 342.098L683.784 314.292C685.072 313.756 686.163 312.839 686.913 311.666C687.662 310.492 688.033 309.118 687.976 307.728C687.721 308.861 687.208 309.92 686.477 310.824C685.746 311.728 684.816 312.452 683.76 312.94Z" fill="white"/>
<path d="M362.602 659.881C360.356 659.903 358.141 659.353 356.167 658.283L60.2816 488.008C59.4836 487.662 58.7918 487.111 58.2764 486.411C57.7611 485.712 57.4406 484.889 57.3477 484.026C57.3828 483.353 57.6011 482.702 57.9789 482.143C58.3568 481.585 58.8801 481.139 59.4926 480.854L236.048 379.196C237.86 378.383 239.837 378.001 241.823 378.083C243.809 378.164 245.748 378.705 247.488 379.663L543.349 549.987C544.15 550.335 544.844 550.89 545.36 551.594C545.875 552.298 546.194 553.127 546.283 553.994C546.243 554.663 546.023 555.308 545.645 555.862C545.268 556.416 544.747 556.858 544.138 557.141L367.583 658.799C366.04 659.571 364.327 659.943 362.602 659.881ZM241.077 378.999C239.51 378.956 237.957 379.312 236.565 380.032L60.0104 481.665C59.5599 481.875 59.1723 482.198 58.8867 482.604C58.6011 483.009 58.4275 483.483 58.3832 483.976C58.4933 484.663 58.7775 485.311 59.2091 485.857C59.6406 486.404 60.205 486.831 60.8487 487.099L356.71 657.422C358.297 658.305 360.069 658.804 361.884 658.881C363.699 658.958 365.507 658.61 367.163 657.865L543.694 556.231C544.147 556.03 544.539 555.712 544.829 555.31C545.119 554.909 545.297 554.437 545.346 553.945C545.24 553.254 544.957 552.601 544.525 552.05C544.094 551.499 543.527 551.068 542.88 550.798L247.019 380.474C245.195 379.492 243.151 378.985 241.077 378.999Z" fill="#42E8E0"/>
<path d="M545.789 524.492L529.517 522.157L247.266 359.651C245.604 358.726 243.747 358.204 241.845 358.127C239.944 358.05 238.05 358.421 236.319 359.209L68.2206 456.048L57.8901 454.573V468.267C57.9874 469.03 58.2817 469.755 58.7441 470.372C59.2064 470.988 59.8212 471.474 60.5282 471.782L356.389 642.106C358.054 643.02 359.909 643.538 361.808 643.619C363.707 643.7 365.599 643.342 367.336 642.573L543.891 540.939C544.429 540.689 544.888 540.294 545.214 539.799C545.541 539.305 545.723 538.729 545.74 538.137L545.789 524.492Z" fill="url(#paint12_linear_203_113)"/>
<path d="M60.5527 458.113L356.414 628.437C358.076 629.362 359.933 629.884 361.834 629.961C363.736 630.037 365.629 629.667 367.361 628.879L543.916 527.344C546.702 525.721 546.381 522.919 543.127 521.05L247.266 350.727C245.601 349.813 243.746 349.295 241.847 349.214C239.948 349.133 238.056 349.491 236.319 350.26L59.7638 451.893C56.9778 453.418 57.3229 456.245 60.5527 458.113Z" fill="url(#paint13_linear_203_113)"/>
<path opacity="0.3" d="M86.1694 461.432L350.62 613.686C352.115 614.525 353.789 614.997 355.503 615.066C357.218 615.134 358.924 614.796 360.482 614.079L518.274 523.238C520.74 521.788 520.469 519.28 517.584 517.609L253.06 365.379C251.566 364.537 249.893 364.06 248.179 363.987C246.465 363.915 244.757 364.248 243.198 364.961L85.4051 455.925C82.9643 457.253 83.2848 459.785 86.1694 461.432Z" fill="#24126A"/>
<path d="M543.916 525.771L367.361 627.404C365.625 628.177 363.734 628.539 361.835 628.462C359.936 628.385 358.081 627.872 356.414 626.962L60.5528 456.614C59.4111 456.016 58.5324 455.018 58.0873 453.811C57.6435 455.237 58.5064 456.884 60.5528 458.113L356.414 628.437C358.076 629.362 359.933 629.884 361.834 629.961C363.736 630.037 365.629 629.667 367.361 628.879L543.916 527.344C544.569 527.063 545.102 526.561 545.422 525.928C545.742 525.294 545.829 524.568 545.666 523.878C545.322 524.693 544.703 525.363 543.916 525.771Z" fill="white"/>
<path d="M246.723 297.525L284.125 76.2621L281.117 74.9837L285.629 72.5252C286.171 72.2327 286.784 72.0983 287.399 72.1374C288.014 72.1766 288.605 72.3876 289.106 72.7464L588.024 244.84C589.282 245.649 590.302 246.776 590.982 248.106C591.662 249.436 591.977 250.922 591.895 252.412L554.197 475.421C554.154 475.902 553.986 476.364 553.709 476.761C553.432 477.157 553.057 477.475 552.619 477.683L548.206 480.141L547.441 476.011H547.688L250.619 305.097C249.356 304.291 248.331 303.166 247.646 301.836C246.962 300.505 246.644 299.018 246.723 297.525Z" fill="url(#paint14_linear_203_113)"/>
<path d="M586.347 250.814L591.278 248.651C591.849 249.791 592.072 251.073 591.919 252.338L554.222 475.347C554.179 475.829 554.01 476.29 553.734 476.687C553.457 477.084 553.081 477.401 552.644 477.609L548.231 480.068L547.466 475.937H547.713L532.698 467.283L586.347 250.814Z" fill="url(#paint15_linear_203_113)"/>
<path d="M245.91 307.777L544.828 479.871C547.121 481.198 549.093 480.436 549.512 478.052L587.21 255.043C587.292 253.55 586.975 252.061 586.291 250.731C585.606 249.4 584.579 248.275 583.315 247.471L284.421 75.377C282.128 74.0494 280.131 74.8116 279.737 77.1963L242.039 300.205C241.959 301.695 242.275 303.18 242.955 304.509C243.634 305.839 244.654 306.966 245.91 307.777Z" fill="#24126A"/>
<g opacity="0.51">
<path d="M283.41 79.5073L583.709 252.314L545.79 475.888L245.688 303.204L283.41 79.5073Z" fill="#453C9E"/>
</g>
<path d="M58.0381 413.344L74.3597 421.851L237.922 327.691C239.612 326.928 241.458 326.571 243.312 326.648C245.166 326.725 246.976 327.234 248.597 328.133L530.676 490.467C533.388 488.942 545.691 483.091 545.691 483.091L539.724 492.925C539.404 493.72 538.809 494.374 538.048 494.769L365.758 593.723C364.068 594.487 362.222 594.845 360.368 594.769C358.513 594.692 356.703 594.182 355.083 593.28L66.4208 427.087C65.3398 426.575 64.469 425.707 63.9553 424.629L58.0381 413.344Z" fill="url(#paint16_linear_203_113)"/>
<path d="M60.5527 416.024L356.414 586.348C358.079 587.262 359.933 587.779 361.832 587.86C363.731 587.941 365.623 587.584 367.361 586.815L543.916 485.156C546.702 483.558 546.381 480.731 543.127 478.863L247.266 308.539C245.604 307.614 243.747 307.092 241.845 307.015C239.944 306.939 238.05 307.309 236.319 308.097L59.7638 409.73C56.9778 411.353 57.3229 414.254 60.5527 416.024Z" fill="url(#paint17_linear_203_113)"/>
<path d="M60.5527 416.024L356.414 586.348C358.079 587.262 359.933 587.779 361.832 587.86C363.731 587.941 365.623 587.584 367.361 586.815L543.916 485.156C546.702 483.558 546.381 480.731 543.127 478.863L247.266 308.539C245.604 307.614 243.747 307.092 241.845 307.015C239.944 306.939 238.05 307.309 236.319 308.097L59.7638 409.73C56.9778 411.353 57.3229 414.254 60.5527 416.024Z" fill="#24126A"/>
<path opacity="0.51" d="M60.5527 416.024L356.414 586.348C358.079 587.262 359.933 587.779 361.832 587.86C363.731 587.941 365.623 587.584 367.361 586.815L543.916 485.156C546.702 483.558 546.381 480.731 543.127 478.863L247.266 308.539C245.604 307.614 243.747 307.092 241.845 307.015C239.944 306.939 238.05 307.309 236.319 308.097L59.7638 409.73C56.9778 411.353 57.3229 414.254 60.5527 416.024Z" fill="#453C9E"/>
<g opacity="0.3">
<path style="mix-blend-mode:lighten" opacity="0.5" d="M60.5527 409.755L356.414 580.078C358.079 580.993 359.933 581.51 361.832 581.591C363.731 581.672 365.623 581.314 367.361 580.546L543.916 478.887C546.702 477.289 546.381 474.462 543.127 472.594L247.266 302.27C245.604 301.345 243.747 300.823 241.845 300.746C239.944 300.669 238.05 301.04 236.319 301.828L59.7638 403.461C56.9778 405.059 57.3229 407.886 60.5527 409.755Z" fill="url(#paint18_radial_203_113)"/>
<mask id="mask0_203_113" style="mask-type:luminance" maskUnits="userSpaceOnUse" x="57" y="300" width="489" height="282">
<path d="M60.5527 409.755L356.414 580.078C358.079 580.993 359.933 581.51 361.832 581.591C363.731 581.672 365.623 581.314 367.361 580.546L543.916 478.887C546.702 477.289 546.381 474.462 543.127 472.594L247.266 302.27C245.604 301.345 243.747 300.823 241.845 300.746C239.944 300.669 238.05 301.04 236.319 301.828L59.7638 403.461C56.9778 405.059 57.3229 407.886 60.5527 409.755Z" fill="white"/>
</mask>
<g mask="url(#mask0_203_113)">
<path d="M220.219 597.017C220.219 531.499 259.347 478.396 307.622 478.396C355.896 478.396 394.999 531.499 394.999 597.017C394.999 662.536 355.872 682.228 307.622 682.228C259.372 682.228 220.219 662.56 220.219 597.017Z" fill="url(#paint19_radial_203_113)"/>
</g>
</g>
<path style="mix-blend-mode:lighten" opacity="0.8" d="M362.602 582.34C360.32 582.352 358.071 581.786 356.069 580.693L60.2816 410.369C59.4559 409.995 58.7421 409.413 58.2104 408.68C57.6787 407.947 57.3474 407.089 57.249 406.19C57.2892 405.484 57.5185 404.801 57.9131 404.213C58.3077 403.625 58.8531 403.153 59.4926 402.847L235.974 301.164C237.811 300.316 239.823 299.915 241.846 299.991C243.868 300.068 245.844 300.622 247.611 301.606L543.472 471.954C544.299 472.321 545.014 472.897 545.546 473.627C546.079 474.356 546.409 475.212 546.504 476.109C546.464 476.816 546.235 477.498 545.84 478.086C545.446 478.674 544.9 479.146 544.261 479.453L367.706 581.086C366.144 581.941 364.384 582.374 362.602 582.34ZM60.898 409.165L356.759 579.488C358.316 580.352 360.054 580.841 361.835 580.918C363.615 580.995 365.389 580.657 367.015 579.931L543.521 478.297C543.945 478.107 544.311 477.809 544.583 477.434C544.856 477.059 545.025 476.619 545.074 476.158C544.976 475.509 544.711 474.896 544.305 474.38C543.898 473.863 543.365 473.459 542.757 473.208L246.896 302.86C245.338 301.997 243.601 301.507 241.82 301.43C240.04 301.353 238.266 301.691 236.639 302.418L60.0844 404.051C59.6669 404.247 59.307 404.547 59.0392 404.921C58.7715 405.296 58.605 405.733 58.5557 406.19C58.6573 406.841 58.9233 407.456 59.3288 407.976C59.7342 408.497 60.2657 408.906 60.8733 409.165H60.898Z" fill="url(#paint20_linear_203_113)"/>
<path d="M60.5529 414.697L356.414 585.02C358.079 585.934 359.933 586.452 361.832 586.533C363.731 586.614 365.623 586.256 367.361 585.487L543.916 483.854C544.751 483.418 545.387 482.678 545.691 481.788C545.827 482.468 545.724 483.173 545.401 483.786C545.078 484.399 544.554 484.883 543.916 485.157L367.361 586.815C365.623 587.584 363.731 587.942 361.832 587.861C359.933 587.78 358.079 587.262 356.414 586.348L60.5529 416.024C58.4572 414.819 57.5943 413.221 58.0874 411.796C58.2846 412.418 58.6042 412.995 59.0275 413.493C59.4508 413.991 59.9694 414.4 60.5529 414.697Z" fill="white"/>
<path d="M533.018 263.18C532.243 263.164 531.486 262.944 530.824 262.541C529.726 261.896 528.847 260.938 528.302 259.789C527.757 258.641 527.571 257.355 527.767 256.1C527.859 255.593 528.074 255.115 528.391 254.709C528.709 254.302 529.121 253.978 529.591 253.764C530.159 253.55 530.77 253.471 531.373 253.535C531.977 253.599 532.558 253.804 533.068 254.133C534.161 254.789 535.034 255.754 535.578 256.904C536.122 258.055 536.312 259.341 536.125 260.599C535.982 261.324 535.593 261.977 535.022 262.447C534.451 262.918 533.734 263.177 532.994 263.18H533.018ZM530.898 254.502C530.584 254.509 530.274 254.576 529.986 254.699C529.664 254.853 529.383 255.08 529.164 255.361C528.946 255.643 528.797 255.972 528.728 256.321C528.584 257.369 528.753 258.437 529.213 259.39C529.673 260.343 530.405 261.14 531.317 261.681C531.695 261.929 532.125 262.088 532.574 262.143C533.023 262.199 533.479 262.15 533.906 262C534.234 261.849 534.52 261.619 534.74 261.332C534.959 261.045 535.104 260.709 535.163 260.353C535.317 259.304 535.153 258.233 534.692 257.278C534.231 256.323 533.493 255.527 532.574 254.994C532.071 254.674 531.494 254.488 530.898 254.453V254.502Z" fill="#42E8E0"/>
<path d="M544.976 270.064C544.2 270.048 543.443 269.827 542.781 269.425C541.683 268.78 540.805 267.821 540.26 266.673C539.715 265.524 539.528 264.239 539.724 262.984C539.823 262.479 540.039 262.004 540.356 261.598C540.673 261.192 541.082 260.867 541.549 260.648C542.117 260.437 542.727 260.361 543.33 260.425C543.934 260.489 544.514 260.691 545.025 261.017C546.122 261.67 547.001 262.633 547.55 263.783C548.098 264.934 548.292 266.222 548.107 267.483C547.94 268.185 547.54 268.81 546.971 269.256C546.403 269.703 545.699 269.944 544.976 269.941V270.064ZM542.855 261.386C542.549 261.386 542.246 261.453 541.968 261.582C541.64 261.728 541.353 261.952 541.134 262.236C540.915 262.519 540.769 262.852 540.71 263.205C540.544 264.241 540.69 265.303 541.129 266.257C541.567 267.211 542.28 268.014 543.176 268.564C543.553 268.813 543.984 268.971 544.433 269.027C544.882 269.082 545.338 269.033 545.765 268.884C546.093 268.732 546.379 268.503 546.599 268.216C546.818 267.929 546.963 267.593 547.022 267.237C547.188 266.2 547.043 265.138 546.604 264.184C546.165 263.231 545.453 262.428 544.557 261.877C544.043 261.568 543.456 261.398 542.855 261.386Z" fill="#42E8E0"/>
<path d="M559.572 274.243C559.472 274.721 559.252 275.165 558.931 275.533C558.611 275.901 558.201 276.181 557.741 276.346C557.281 276.511 556.786 276.556 556.304 276.476C555.822 276.397 555.368 276.195 554.986 275.891C553.98 275.3 553.175 274.422 552.674 273.37C552.173 272.318 551.999 271.141 552.175 269.99C552.271 269.513 552.488 269.069 552.806 268.7C553.124 268.331 553.532 268.051 553.99 267.885C554.449 267.719 554.943 267.675 555.424 267.755C555.905 267.835 556.357 268.038 556.737 268.343C557.747 268.931 558.558 269.807 559.063 270.859C559.569 271.911 559.746 273.09 559.572 274.243Z" fill="#42E8E0"/>
<path d="M330.255 142.666L323.869 138.978L324.362 136.028L330.773 139.715L330.255 142.666Z" fill="#42E8E0"/>
<path d="M339.55 148L333.164 144.337L333.657 141.387L340.067 145.075L339.55 148Z" fill="#42E8E0"/>
<path d="M321.059 137.355L307.03 129.291L307.523 126.341L321.552 134.405L321.059 137.355Z" fill="#42E8E0"/>
<g opacity="0.5">
<path opacity="0.67" d="M313.563 514.879C372.156 514.879 419.654 487.538 419.654 453.811C419.654 420.084 372.156 392.742 313.563 392.742C254.971 392.742 207.473 420.084 207.473 453.811C207.473 487.538 254.971 514.879 313.563 514.879Z" fill="#0F054C"/>
<path opacity="0.67" d="M313.563 504.283C361.97 504.283 401.212 481.686 401.212 453.811C401.212 425.936 361.97 403.338 313.563 403.338C265.156 403.338 225.915 425.936 225.915 453.811C225.915 481.686 265.156 504.283 313.563 504.283Z" fill="#0F054C"/>
<path opacity="0.9" d="M313.563 493.737C351.853 493.737 382.894 475.861 382.894 453.811C382.894 431.76 351.853 413.885 313.563 413.885C275.274 413.885 244.233 431.76 244.233 453.811C244.233 475.861 275.274 493.737 313.563 493.737Z" fill="#080344"/>
</g>
<path opacity="0.4" d="M411.197 222.665C411.933 221.98 412.449 221.094 412.679 220.117C412.909 219.14 412.842 218.117 412.488 217.178C412.134 216.238 411.508 215.425 410.69 214.841C409.871 214.257 408.898 213.929 407.892 213.898C406.886 213.867 405.894 214.134 405.04 214.667C404.187 215.199 403.512 215.972 403.1 216.887C402.688 217.803 402.558 218.819 402.727 219.809C402.896 220.798 403.355 221.715 404.047 222.443C404.493 222.941 405.035 223.344 405.642 223.626C406.248 223.908 406.906 224.065 407.575 224.085C408.244 224.106 408.91 223.991 409.533 223.747C410.155 223.502 410.722 223.134 411.197 222.665Z" fill="#42E8E0"/>
<path d="M469.753 218.313C470.631 217.374 471.118 216.138 471.116 214.854C471.115 213.57 470.624 212.335 469.744 211.398C468.864 210.461 467.66 209.893 466.376 209.807C465.091 209.722 463.822 210.126 462.825 210.938C461.947 211.877 461.46 213.113 461.462 214.397C461.464 215.68 461.954 216.916 462.834 217.852C463.714 218.789 464.918 219.358 466.202 219.443C467.487 219.529 468.756 219.125 469.753 218.313Z" fill="#42E8E0"/>
<path opacity="0.4" d="M455.306 140.06C456.089 139.324 456.637 138.372 456.879 137.326C457.121 136.28 457.047 135.186 456.666 134.181C456.285 133.177 455.614 132.308 454.738 131.684C453.862 131.06 452.82 130.708 451.744 130.674C450.668 130.64 449.605 130.924 448.691 131.491C447.777 132.059 447.052 132.883 446.607 133.861C446.163 134.839 446.019 135.926 446.193 136.986C446.368 138.045 446.853 139.029 447.589 139.814C448.078 140.336 448.667 140.758 449.32 141.053C449.973 141.348 450.679 141.512 451.396 141.535C452.113 141.558 452.827 141.439 453.498 141.186C454.169 140.933 454.783 140.55 455.306 140.06Z" fill="#42E8E0"/>
<path opacity="0.4" d="M449.191 155.499C449.662 155.061 449.993 154.493 450.14 153.867C450.288 153.242 450.246 152.586 450.019 151.985C449.793 151.383 449.392 150.862 448.869 150.487C448.345 150.113 447.721 149.902 447.077 149.881C446.433 149.86 445.797 150.031 445.25 150.371C444.703 150.711 444.27 151.205 444.005 151.791C443.74 152.377 443.656 153.028 443.763 153.662C443.87 154.296 444.163 154.884 444.605 155.351C444.895 155.663 445.245 155.914 445.633 156.09C446.021 156.267 446.441 156.365 446.867 156.378C447.293 156.392 447.718 156.321 448.117 156.17C448.516 156.019 448.881 155.791 449.191 155.499Z" fill="#42E8E0"/>
<path opacity="0.8" d="M442.435 147.484C442.729 147.192 442.929 146.82 443.011 146.414C443.092 146.009 443.051 145.588 442.893 145.206C442.734 144.824 442.466 144.497 442.121 144.267C441.776 144.037 441.371 143.914 440.956 143.914C440.541 143.914 440.136 144.037 439.791 144.267C439.446 144.497 439.178 144.824 439.019 145.206C438.861 145.588 438.82 146.009 438.901 146.414C438.983 146.82 439.183 147.192 439.477 147.484C439.67 147.68 439.9 147.836 440.154 147.943C440.408 148.049 440.68 148.104 440.956 148.104C441.232 148.104 441.504 148.049 441.758 147.943C442.012 147.836 442.242 147.68 442.435 147.484Z" fill="#42E8E0"/>
<path opacity="0.8" d="M456.415 193.704C456.709 193.412 456.909 193.039 456.99 192.634C457.072 192.228 457.031 191.808 456.872 191.425C456.714 191.043 456.445 190.716 456.101 190.486C455.756 190.256 455.35 190.134 454.936 190.134C454.521 190.134 454.115 190.256 453.771 190.486C453.426 190.716 453.157 191.043 452.999 191.425C452.84 191.808 452.799 192.228 452.881 192.634C452.962 193.039 453.162 193.412 453.456 193.704C453.849 194.094 454.381 194.313 454.936 194.313C455.49 194.313 456.022 194.094 456.415 193.704Z" fill="#42E8E0"/>
<path opacity="0.4" d="M426.903 133.987C427.006 133.868 427.061 133.716 427.059 133.559C427.056 133.402 426.996 133.252 426.889 133.136C426.782 133.021 426.637 132.949 426.48 132.933C426.324 132.918 426.167 132.96 426.04 133.053C425.979 133.112 425.931 133.183 425.899 133.261C425.866 133.339 425.849 133.423 425.849 133.508C425.849 133.592 425.866 133.676 425.899 133.754C425.931 133.832 425.979 133.903 426.04 133.963C426.152 134.079 426.305 134.146 426.466 134.151C426.628 134.155 426.784 134.097 426.903 133.987Z" fill="#42E8E0"/>
<path opacity="0.8" d="M430.724 160.219C430.84 160.096 430.905 159.933 430.905 159.764C430.905 159.595 430.84 159.433 430.724 159.31C430.667 159.25 430.598 159.203 430.521 159.17C430.445 159.138 430.363 159.121 430.28 159.121C430.198 159.121 430.116 159.138 430.039 159.17C429.963 159.203 429.894 159.25 429.837 159.31C429.72 159.433 429.656 159.595 429.656 159.764C429.656 159.933 429.72 160.096 429.837 160.219C429.961 160.323 430.118 160.38 430.28 160.38C430.443 160.38 430.6 160.323 430.724 160.219Z" fill="#42E8E0"/>
<path opacity="0.8" d="M438.91 210.2C439.013 210.081 439.068 209.929 439.066 209.772C439.063 209.615 439.003 209.465 438.896 209.349C438.79 209.234 438.644 209.162 438.488 209.146C438.331 209.131 438.174 209.173 438.047 209.266C437.987 209.325 437.939 209.396 437.906 209.474C437.873 209.552 437.856 209.636 437.856 209.721C437.856 209.805 437.873 209.889 437.906 209.967C437.939 210.045 437.987 210.116 438.047 210.176C438.159 210.292 438.312 210.359 438.473 210.364C438.635 210.368 438.792 210.31 438.91 210.2Z" fill="#42E8E0"/>
<path opacity="0.8" d="M433.116 202.161C433.177 202.103 433.227 202.033 433.261 201.956C433.296 201.879 433.315 201.796 433.317 201.711C433.319 201.627 433.305 201.543 433.275 201.464C433.244 201.385 433.199 201.313 433.141 201.251C433.082 201.19 433.012 201.141 432.935 201.106C432.858 201.072 432.774 201.053 432.69 201.051C432.605 201.048 432.521 201.063 432.441 201.093C432.362 201.123 432.29 201.169 432.228 201.227C432.104 201.344 432.032 201.506 432.027 201.676C432.022 201.847 432.086 202.012 432.204 202.136C432.321 202.26 432.484 202.332 432.655 202.337C432.826 202.342 432.992 202.278 433.116 202.161Z" fill="#42E8E0"/>
<path opacity="0.4" d="M411.469 163.759C412.569 162.708 413.333 161.355 413.664 159.872C413.994 158.388 413.877 156.84 413.326 155.423C412.775 154.006 411.816 152.783 410.57 151.909C409.323 151.035 407.845 150.548 406.321 150.51C404.798 150.473 403.297 150.886 402.008 151.697C400.72 152.509 399.701 153.683 399.081 155.071C398.461 156.459 398.267 158 398.523 159.498C398.78 160.996 399.475 162.385 400.522 163.489C401.221 164.226 402.06 164.819 402.989 165.232C403.919 165.645 404.922 165.87 405.939 165.896C406.957 165.921 407.969 165.745 408.918 165.378C409.867 165.012 410.734 164.461 411.469 163.759Z" fill="#42E8E0"/>
<path d="M369.875 178.756C370.428 178.236 370.814 177.565 370.985 176.826C371.155 176.088 371.103 175.315 370.834 174.607C370.564 173.898 370.091 173.285 369.472 172.844C368.854 172.404 368.118 172.156 367.359 172.132C366.599 172.108 365.849 172.309 365.204 172.71C364.559 173.11 364.047 173.692 363.734 174.383C363.42 175.073 363.318 175.84 363.442 176.588C363.565 177.336 363.908 178.03 364.427 178.584C364.772 178.953 365.188 179.25 365.649 179.459C366.111 179.667 366.609 179.783 367.115 179.799C367.621 179.815 368.126 179.731 368.6 179.552C369.073 179.373 369.507 179.103 369.875 178.756Z" fill="#42E8E0"/>
<path opacity="0.4" d="M436.74 179.715C438.864 179.715 440.586 177.998 440.586 175.88C440.586 173.762 438.864 172.044 436.74 172.044C434.616 172.044 432.894 173.762 432.894 175.88C432.894 177.998 434.616 179.715 436.74 179.715Z" fill="#42E8E0"/>
<path opacity="0.4" d="M411.469 115.426C412.025 114.907 412.415 114.236 412.588 113.497C412.762 112.757 412.711 111.983 412.443 111.273C412.175 110.562 411.702 109.947 411.083 109.505C410.463 109.063 409.727 108.814 408.966 108.79C408.205 108.765 407.453 108.967 406.807 109.369C406.161 109.771 405.649 110.355 405.337 111.047C405.024 111.74 404.924 112.509 405.05 113.258C405.176 114.006 405.522 114.701 406.045 115.254C406.388 115.622 406.802 115.919 407.261 116.127C407.72 116.335 408.216 116.45 408.721 116.466C409.225 116.482 409.727 116.399 410.199 116.22C410.671 116.041 411.102 115.771 411.469 115.426Z" fill="#42E8E0"/>
<path opacity="0.4" d="M362.898 142.961C363.455 142.442 363.844 141.771 364.018 141.032C364.191 140.292 364.141 139.518 363.873 138.808C363.605 138.097 363.131 137.482 362.512 137.04C361.893 136.598 361.156 136.349 360.395 136.325C359.634 136.3 358.883 136.502 358.237 136.904C357.591 137.306 357.079 137.89 356.766 138.582C356.454 139.274 356.354 140.044 356.48 140.793C356.606 141.541 356.952 142.236 357.474 142.789C357.818 143.157 358.231 143.454 358.691 143.662C359.15 143.87 359.646 143.985 360.15 144.001C360.655 144.017 361.157 143.934 361.629 143.755C362.1 143.576 362.532 143.306 362.898 142.961Z" fill="#42E8E0"/>
<path opacity="0.4" d="M494.827 154.909C495.38 154.389 495.766 153.717 495.937 152.979C496.108 152.24 496.055 151.468 495.786 150.76C495.516 150.051 495.043 149.438 494.424 148.997C493.806 148.557 493.07 148.309 492.311 148.285C491.551 148.261 490.801 148.462 490.156 148.862C489.511 149.263 488.999 149.845 488.686 150.535C488.372 151.226 488.27 151.993 488.394 152.741C488.517 153.488 488.86 154.183 489.379 154.737C489.725 155.106 490.14 155.403 490.601 155.612C491.063 155.82 491.561 155.936 492.067 155.952C492.573 155.968 493.078 155.884 493.552 155.705C494.025 155.526 494.459 155.255 494.827 154.909Z" fill="#42E8E0"/>
<path opacity="0.4" d="M467.091 87.8169C467.647 87.2986 468.037 86.6273 468.21 85.888C468.384 85.1487 468.333 84.3747 468.065 83.664C467.797 82.9533 467.324 82.338 466.705 81.8959C466.085 81.4538 465.349 81.205 464.588 81.1808C463.827 81.1567 463.075 81.3584 462.429 81.7603C461.783 82.1622 461.272 82.7463 460.959 83.4385C460.646 84.1308 460.546 84.9 460.672 85.6488C460.798 86.3977 461.144 87.0923 461.667 87.6448C462.364 88.3828 463.327 88.8152 464.343 88.8474C465.36 88.8797 466.347 88.5092 467.091 87.8169Z" fill="#42E8E0"/>
<path d="M517.658 94.9957C517.946 94.654 518.1 94.2197 518.092 93.7733C518.083 93.327 517.912 92.8989 517.611 92.5686C517.31 92.2382 516.899 92.0281 516.454 91.9771C516.009 91.9261 515.561 92.0378 515.193 92.2914C514.905 92.633 514.751 93.0673 514.759 93.5137C514.768 93.9601 514.939 94.3881 515.24 94.7185C515.541 95.0488 515.952 95.259 516.397 95.31C516.842 95.3609 517.29 95.2493 517.658 94.9957Z" fill="#42E8E0"/>
<path opacity="0.4" d="M422.711 209.733C423.021 209.418 423.23 209.02 423.313 208.587C423.395 208.154 423.348 207.707 423.177 207.301C423.006 206.894 422.719 206.548 422.351 206.304C421.983 206.06 421.551 205.93 421.109 205.93C420.667 205.93 420.235 206.06 419.867 206.304C419.499 206.548 419.212 206.894 419.04 207.301C418.869 207.707 418.822 208.154 418.905 208.587C418.988 209.02 419.197 209.418 419.506 209.733C419.932 210.156 420.508 210.394 421.109 210.394C421.71 210.394 422.286 210.156 422.711 209.733Z" fill="#42E8E0"/>
<path d="M418.323 146.107C418.74 145.684 418.974 145.115 418.974 144.522C418.974 143.929 418.74 143.359 418.323 142.936C418.009 142.624 417.609 142.412 417.174 142.327C416.739 142.241 416.288 142.286 415.879 142.456C415.47 142.626 415.12 142.912 414.874 143.28C414.628 143.648 414.497 144.08 414.497 144.522C414.497 144.964 414.628 145.396 414.874 145.764C415.12 146.131 415.47 146.418 415.879 146.588C416.288 146.757 416.739 146.802 417.174 146.717C417.609 146.631 418.009 146.419 418.323 146.107Z" fill="#42E8E0"/>
<path d="M389.452 145.247C389.668 145.035 389.816 144.763 389.877 144.467C389.938 144.171 389.909 143.863 389.794 143.583C389.679 143.303 389.483 143.064 389.231 142.895C388.979 142.727 388.683 142.637 388.379 142.637C388.076 142.637 387.779 142.727 387.528 142.895C387.276 143.064 387.08 143.303 386.965 143.583C386.85 143.863 386.821 144.171 386.882 144.467C386.943 144.763 387.091 145.035 387.307 145.247C387.593 145.528 387.978 145.685 388.379 145.685C388.781 145.685 389.166 145.528 389.452 145.247Z" fill="#42E8E0"/>
<path d="M385.137 145.124C385.444 144.818 385.652 144.428 385.736 144.004C385.821 143.579 385.777 143.14 385.611 142.74C385.445 142.341 385.163 141.999 384.803 141.759C384.442 141.519 384.018 141.391 383.584 141.391C383.15 141.391 382.726 141.519 382.365 141.759C382.005 141.999 381.723 142.341 381.557 142.74C381.391 143.14 381.347 143.579 381.431 144.004C381.516 144.428 381.724 144.818 382.031 145.124C382.235 145.328 382.477 145.489 382.743 145.6C383.01 145.71 383.295 145.767 383.584 145.767C383.873 145.767 384.158 145.71 384.425 145.6C384.691 145.489 384.933 145.328 385.137 145.124Z" fill="#42E8E0"/>
<path d="M384.373 150.385C384.488 150.273 384.579 150.139 384.641 149.991C384.703 149.844 384.735 149.685 384.735 149.525C384.735 149.364 384.703 149.206 384.641 149.058C384.579 148.91 384.488 148.776 384.373 148.664C384.271 148.521 384.139 148.401 383.986 148.313C383.834 148.225 383.664 148.17 383.489 148.153C383.313 148.136 383.136 148.156 382.969 148.213C382.802 148.27 382.65 148.362 382.522 148.483C382.393 148.603 382.293 148.75 382.226 148.913C382.16 149.076 382.129 149.251 382.136 149.427C382.144 149.602 382.188 149.774 382.268 149.931C382.348 150.088 382.46 150.226 382.598 150.336C382.827 150.577 383.142 150.717 383.475 150.727C383.808 150.736 384.131 150.613 384.373 150.385Z" fill="#42E8E0"/>
<path opacity="0.4" d="M405.576 186.599C405.884 186.312 406.064 185.915 406.078 185.495C406.092 185.076 405.938 184.668 405.65 184.361C405.363 184.055 404.965 183.875 404.544 183.861C404.123 183.847 403.714 184.001 403.407 184.288C403.258 184.434 403.141 184.608 403.06 184.8C402.98 184.992 402.938 185.198 402.938 185.406C402.938 185.614 402.98 185.82 403.06 186.012C403.141 186.204 403.258 186.379 403.407 186.525C403.693 186.806 404.075 186.97 404.477 186.984C404.879 186.998 405.271 186.86 405.576 186.599Z" fill="#42E8E0"/>
<path opacity="0.4" d="M451.829 192.991C451.981 192.849 452.104 192.678 452.19 192.489C452.276 192.299 452.324 192.095 452.33 191.887C452.337 191.68 452.303 191.473 452.23 191.278C452.156 191.083 452.045 190.905 451.903 190.753C451.76 190.602 451.589 190.479 451.399 190.394C451.21 190.308 451.005 190.26 450.796 190.253C450.588 190.246 450.38 190.281 450.185 190.354C449.99 190.427 449.811 190.538 449.659 190.68C449.511 190.826 449.393 191 449.313 191.192C449.232 191.384 449.191 191.59 449.191 191.798C449.191 192.006 449.232 192.212 449.313 192.404C449.393 192.596 449.511 192.771 449.659 192.917C449.946 193.198 450.328 193.362 450.73 193.376C451.131 193.39 451.524 193.252 451.829 192.991Z" fill="#42E8E0"/>
<path d="M415.315 189.057C415.874 188.53 416.264 187.85 416.436 187.102C416.608 186.354 416.554 185.572 416.281 184.855C416.008 184.138 415.528 183.517 414.901 183.071C414.275 182.626 413.53 182.375 412.761 182.351C411.992 182.327 411.233 182.531 410.58 182.937C409.926 183.342 409.408 183.932 409.091 184.631C408.773 185.33 408.67 186.107 408.795 186.864C408.92 187.621 409.267 188.324 409.792 188.885C410.142 189.259 410.564 189.561 411.031 189.772C411.499 189.983 412.004 190.1 412.517 190.116C413.031 190.132 413.542 190.047 414.022 189.865C414.502 189.683 414.942 189.409 415.315 189.057Z" fill="#42E8E0"/>
<path d="M200.323 354.734C196.748 366.584 177.541 389.62 165.633 386.031C153.724 382.441 153.7 353.652 157.299 341.778C159.019 336.089 162.935 331.314 168.185 328.504C173.435 325.694 179.59 325.079 185.295 326.794C191 328.508 195.789 332.413 198.607 337.648C201.425 342.883 202.042 349.021 200.323 354.71V354.734Z" fill="url(#paint21_radial_203_113)"/>
<g style="mix-blend-mode:lighten">
<path d="M200.323 354.734C196.748 366.584 177.541 389.62 165.633 386.031C153.724 382.441 153.7 353.652 157.299 341.778C159.019 336.089 162.935 331.314 168.185 328.504C173.435 325.694 179.59 325.079 185.295 326.794C191 328.508 195.789 332.413 198.607 337.648C201.425 342.883 202.042 349.021 200.323 354.71V354.734Z" fill="url(#paint22_linear_203_113)"/>
</g>
<path d="M177.442 326.953C180.858 326.829 184.254 327.51 187.356 328.941C190.458 330.372 193.177 332.513 195.293 335.189C198.892 340.303 196.747 344.9 190.51 345.466C187.094 345.577 183.699 344.888 180.599 343.453C177.499 342.019 174.779 339.879 172.659 337.205C169.06 332.092 171.229 327.494 177.442 326.953Z" fill="#251C72"/>
<path style="mix-blend-mode:lighten" opacity="0.5" d="M177.442 326.953C180.858 326.829 184.254 327.51 187.356 328.941C190.458 330.372 193.177 332.513 195.293 335.189C198.892 340.303 196.747 344.9 190.51 345.466C187.094 345.577 183.699 344.888 180.599 343.453C177.499 342.019 174.779 339.879 172.659 337.205C169.06 332.092 171.229 327.494 177.442 326.953Z" fill="url(#paint23_radial_203_113)"/>
<path d="M170.934 332.755C172.3 331.696 173.963 331.086 175.692 331.01C179.089 330.906 182.463 331.599 185.542 333.034C188.622 334.469 191.32 336.605 193.419 339.27C194.405 340.563 195.011 342.104 195.17 343.72C197.413 341.827 197.635 338.631 195.17 335.189C193.054 332.513 190.335 330.372 187.233 328.941C184.131 327.51 180.735 326.829 177.319 326.953C173.128 327.322 170.761 329.658 170.934 332.755Z" fill="#42E8E0"/>
<path opacity="0.6" d="M198.35 320.832C197.999 320.822 197.653 320.916 197.356 321.103C197.059 321.289 196.824 321.559 196.681 321.879C196.538 322.198 196.493 322.553 196.552 322.898C196.61 323.243 196.771 323.563 197.012 323.818C197.253 324.072 197.565 324.249 197.907 324.327C198.249 324.405 198.607 324.38 198.935 324.255C199.263 324.13 199.546 323.911 199.749 323.625C199.952 323.34 200.066 323.001 200.076 322.651C200.083 322.418 200.043 322.187 199.96 321.97C199.877 321.752 199.751 321.554 199.591 321.385C199.431 321.216 199.239 321.08 199.026 320.985C198.813 320.89 198.583 320.838 198.35 320.832Z" fill="#42E8E0"/>
<path d="M181.683 308.539C180.801 308.52 179.933 308.762 179.188 309.235C178.444 309.708 177.857 310.39 177.501 311.195C177.146 312.001 177.038 312.893 177.191 313.76C177.344 314.626 177.751 315.428 178.361 316.064C178.971 316.7 179.757 317.141 180.618 317.332C181.48 317.523 182.379 317.455 183.201 317.136C184.024 316.817 184.733 316.263 185.24 315.542C185.747 314.821 186.027 313.967 186.047 313.087C186.063 312.502 185.963 311.92 185.752 311.373C185.541 310.827 185.223 310.328 184.818 309.905C184.412 309.482 183.926 309.143 183.388 308.909C182.85 308.674 182.27 308.549 181.683 308.539Z" fill="#42E8E0"/>
<path opacity="0.6" d="M207.275 298.533C206.787 298.533 206.311 298.677 205.905 298.948C205.5 299.218 205.184 299.602 204.997 300.051C204.811 300.5 204.762 300.994 204.857 301.471C204.952 301.948 205.187 302.386 205.532 302.73C205.877 303.074 206.316 303.308 206.794 303.403C207.272 303.498 207.768 303.449 208.219 303.263C208.669 303.077 209.054 302.762 209.325 302.358C209.596 301.953 209.741 301.478 209.741 300.992C209.741 300.34 209.481 299.714 209.018 299.253C208.556 298.792 207.929 298.533 207.275 298.533Z" fill="#42E8E0"/>
<path d="M197.265 300.525C196.923 300.515 196.586 300.607 196.296 300.789C196.006 300.971 195.778 301.235 195.639 301.547C195.5 301.859 195.457 302.205 195.516 302.541C195.575 302.877 195.733 303.189 195.97 303.435C196.207 303.682 196.511 303.852 196.846 303.926C197.18 303.999 197.529 303.971 197.848 303.846C198.166 303.722 198.44 303.505 198.635 303.224C198.83 302.944 198.937 302.611 198.942 302.27C198.948 302.045 198.91 301.821 198.829 301.612C198.748 301.402 198.626 301.21 198.47 301.047C198.314 300.885 198.127 300.755 197.92 300.665C197.713 300.576 197.491 300.528 197.265 300.525Z" fill="#42E8E0"/>
<path d="M199.164 296.689C199.011 296.683 198.858 296.707 198.715 296.761C198.571 296.815 198.441 296.897 198.33 297.003C198.219 297.108 198.131 297.235 198.071 297.376C198.011 297.516 197.98 297.668 197.981 297.82C197.974 297.974 197.998 298.128 198.052 298.272C198.106 298.416 198.188 298.548 198.293 298.661C198.399 298.773 198.526 298.863 198.667 298.925C198.808 298.988 198.96 299.022 199.115 299.025C199.283 299.049 199.454 299.037 199.617 298.99C199.78 298.942 199.931 298.86 200.059 298.75C200.188 298.639 200.291 298.502 200.361 298.348C200.432 298.194 200.468 298.027 200.468 297.857C200.468 297.688 200.432 297.521 200.361 297.367C200.291 297.213 200.188 297.076 200.059 296.965C199.931 296.854 199.78 296.772 199.617 296.725C199.454 296.677 199.283 296.665 199.115 296.689H199.164Z" fill="#42E8E0"/>
<path opacity="0.6" d="M184.74 329.559C184.417 329.551 184.094 329.607 183.792 329.723C183.49 329.839 183.214 330.013 182.979 330.236C182.744 330.458 182.556 330.725 182.424 331.02C182.293 331.315 182.221 331.633 182.213 331.956C182.205 332.279 182.261 332.6 182.377 332.902C182.494 333.203 182.669 333.479 182.892 333.713C183.115 333.947 183.382 334.135 183.678 334.266C183.974 334.397 184.293 334.468 184.617 334.476C184.941 334.484 185.263 334.429 185.565 334.313C185.867 334.197 186.144 334.022 186.379 333.8C186.613 333.577 186.802 333.311 186.933 333.015C187.064 332.72 187.136 332.402 187.144 332.079C187.152 331.756 187.097 331.435 186.98 331.134C186.864 330.832 186.689 330.557 186.466 330.323C186.242 330.089 185.975 329.901 185.679 329.77C185.383 329.639 185.064 329.567 184.74 329.559Z" fill="#42E8E0"/>
<path d="M192.26 328.748C191.523 328.729 190.797 328.928 190.174 329.321C189.55 329.713 189.058 330.282 188.759 330.954C188.46 331.626 188.368 332.371 188.495 333.096C188.621 333.82 188.96 334.49 189.469 335.022C189.978 335.554 190.634 335.923 191.354 336.083C192.074 336.242 192.825 336.185 193.512 335.919C194.199 335.652 194.791 335.188 195.214 334.586C195.636 333.983 195.87 333.269 195.885 332.534C195.904 331.554 195.534 330.605 194.855 329.896C194.176 329.186 193.243 328.774 192.26 328.748Z" fill="#42E8E0"/>
<path d="M265.611 285.04C268.335 266.596 255.55 249.443 237.054 246.726C218.558 244.009 201.355 256.758 198.631 275.201C195.906 293.644 208.691 310.798 227.187 313.515C245.683 316.232 262.886 303.483 265.611 285.04Z" fill="url(#paint24_radial_203_113)"/>
<g style="mix-blend-mode:lighten">
<path d="M246.812 310.492C263.659 302.411 270.747 282.241 262.642 265.441C254.538 248.642 234.31 241.574 217.462 249.656C200.615 257.737 193.527 277.907 201.632 294.707C209.736 311.506 229.964 318.574 246.812 310.492Z" fill="url(#paint25_linear_203_113)"/>
</g>
<path d="M400.966 341.434C400.966 406.952 361.838 460.055 313.563 460.055C265.289 460.055 226.161 406.952 226.161 341.434C226.161 275.915 265.289 256.297 313.563 256.297C361.838 256.297 400.966 275.915 400.966 341.434Z" fill="url(#paint26_radial_203_113)"/>
<g style="mix-blend-mode:lighten">
<path d="M400.966 341.434C400.966 406.952 361.838 460.055 313.563 460.055C265.289 460.055 226.161 406.952 226.161 341.434C226.161 275.915 265.289 256.297 313.563 256.297C361.838 256.297 400.966 275.915 400.966 341.434Z" fill="url(#paint27_linear_203_113)"/>
</g>
<path d="M313.563 325.847C346.502 325.847 373.204 310.47 373.204 291.502C373.204 272.534 346.502 257.157 313.563 257.157C280.625 257.157 253.923 272.534 253.923 291.502C253.923 310.47 280.625 325.847 313.563 325.847Z" fill="#251C72"/>
<path style="mix-blend-mode:lighten" opacity="0.5" d="M313.563 325.847C346.502 325.847 373.204 310.47 373.204 291.502C373.204 272.534 346.502 257.157 313.563 257.157C280.625 257.157 253.923 272.534 253.923 291.502C253.923 310.47 280.625 325.847 313.563 325.847Z" fill="url(#paint28_radial_203_113)"/>
<path d="M271.378 276.382C294.677 262.959 332.449 262.959 355.748 276.382C365.363 281.914 370.985 288.871 372.661 296.05C375.127 285.823 369.407 275.079 355.748 267.212C332.449 253.789 294.677 253.789 271.378 267.212C257.719 275.079 252.073 285.823 254.465 296.05C256.141 288.871 261.763 281.914 271.378 276.382Z" fill="#42E8E0"/>
<path d="M280.156 189.365C289.98 172.397 289.981 154.058 280.158 148.403C270.335 142.747 254.408 151.918 244.584 168.886C234.759 185.854 234.758 204.193 244.581 209.849C254.404 215.504 270.331 206.333 280.156 189.365Z" fill="#BCBEFF"/>
<path d="M317.04 298.435C366.264 298.435 406.168 258.645 406.168 209.561C406.168 160.477 366.264 120.687 317.04 120.687C267.816 120.687 227.912 160.477 227.912 209.561C227.912 258.645 267.816 298.435 317.04 298.435Z" fill="url(#paint29_radial_203_113)"/>
<g style="mix-blend-mode:lighten">
<path d="M317.04 298.435C366.264 298.435 406.168 258.645 406.168 209.561C406.168 160.477 366.264 120.687 317.04 120.687C267.816 120.687 227.912 160.477 227.912 209.561C227.912 258.645 267.816 298.435 317.04 298.435Z" fill="url(#paint30_linear_203_113)"/>
</g>
<path d="M289.229 251.65C286.936 269.13 273.721 274.612 259.643 263.942C245.565 253.273 236.072 230.384 238.341 212.904C240.609 195.425 253.849 189.942 267.927 200.612C282.005 211.282 291.497 234.17 289.229 251.65Z" fill="#251C72"/>
<path style="mix-blend-mode:lighten" opacity="0.5" d="M289.229 251.65C286.936 269.13 273.721 274.612 259.643 263.942C245.565 253.273 236.072 230.384 238.341 212.904C240.609 195.425 253.849 189.942 267.927 200.612C282.005 211.282 291.497 234.17 289.229 251.65Z" fill="url(#paint31_radial_203_113)"/>
<path d="M277.616 236.506C276.803 242.873 271.995 244.865 266.891 240.98C264.223 238.716 262.13 235.853 260.784 232.627C259.439 229.401 258.878 225.902 259.149 222.419C259.963 216.076 264.771 214.084 269.874 217.969C272.539 220.231 274.63 223.09 275.976 226.311C277.321 229.533 277.883 233.026 277.616 236.506Z" fill="#42E8E0"/>
<path d="M266.423 261.361C252.369 250.667 242.828 227.803 245.121 210.323C246.033 203.218 248.794 198.031 252.665 195.228C245.269 195.916 239.771 202.112 238.365 212.88C236.097 230.36 245.638 253.199 259.667 263.918C268.001 270.261 276.014 270.9 281.66 266.77C276.081 266.93 270.645 265.001 266.423 261.361Z" fill="#42E8E0"/>
<path d="M260.875 263.352C246.847 252.633 237.305 229.794 239.573 212.314C240.634 204.226 244.036 198.694 248.794 196.162C243.42 198.375 239.524 204.128 238.365 212.88C236.097 230.36 245.638 253.199 259.667 263.918C267.212 269.671 274.46 270.728 280.008 267.778C274.781 269.966 267.877 268.687 260.875 263.352Z" fill="#42E8E0"/>
<path d="M418.957 396.486C436.925 391.334 447.303 372.634 442.137 354.718C436.971 336.801 418.218 326.453 400.25 331.604C382.282 336.755 371.904 355.455 377.07 373.371C382.235 391.288 400.989 401.637 418.957 396.486Z" fill="url(#paint32_radial_203_113)"/>
<g style="mix-blend-mode:lighten">
<path d="M418.957 396.486C436.925 391.334 447.303 372.634 442.137 354.718C436.971 336.801 418.218 326.453 400.25 331.604C382.282 336.755 371.904 355.455 377.07 373.371C382.235 391.288 400.989 401.637 418.957 396.486Z" fill="url(#paint33_linear_203_113)"/>
</g>
<path d="M442.14 364.642C441.86 369.819 440.359 374.858 437.759 379.347C435.158 383.837 431.532 387.652 427.174 390.48C418.914 395.225 412.233 391.39 412.233 381.876C412.51 376.697 414.007 371.657 416.603 367.163C419.199 362.669 422.82 358.849 427.174 356.013C435.458 351.268 442.14 355.25 442.14 364.642Z" fill="#251C72"/>
<path style="mix-blend-mode:lighten" opacity="0.5" d="M442.14 364.642C441.86 369.819 440.359 374.858 437.759 379.347C435.158 383.837 431.532 387.652 427.174 390.48C418.914 395.225 412.233 391.39 412.233 381.876C412.51 376.697 414.007 371.657 416.603 367.163C419.199 362.669 422.82 358.849 427.174 356.013C435.458 351.268 442.14 355.25 442.14 364.642Z" fill="url(#paint34_radial_203_113)"/>
<path d="M434.201 353.997C435.601 356.197 436.297 358.769 436.198 361.372C435.922 366.55 434.423 371.59 431.822 376.081C429.221 380.571 425.593 384.385 421.232 387.211C419.128 388.531 416.692 389.23 414.206 389.227C416.794 392.914 421.602 393.627 427.174 390.431C431.532 387.603 435.158 383.788 437.759 379.298C440.359 374.808 441.86 369.77 442.14 364.593C442.14 358.053 438.935 354.169 434.201 353.997Z" fill="#42E8E0"/>
<path d="M392.263 242.062L359.964 260.648V223.476L392.263 204.89V242.062Z" fill="#251C72"/>
<path opacity="0.8" d="M387.455 207.643V239.481L359.964 255.289V260.648L392.263 242.062V204.89L387.455 207.643Z" fill="url(#paint35_radial_203_113)"/>
<path d="M366.128 233.629L363.243 235.301V231.982L366.128 230.31V233.629Z" fill="#42E8E0"/>
<path d="M372.267 225.836L369.382 227.508V224.164L372.267 222.492V225.836Z" fill="#42E8E0"/>
<path d="M378.406 226.574L375.521 228.221V224.902L378.406 223.23V226.574Z" fill="#42E8E0"/>
<path d="M378.406 235.301L375.521 236.973V233.629L378.406 231.982V235.301Z" fill="#42E8E0"/>
<path d="M374.708 242.013L371.823 243.685V240.341L374.708 238.694V242.013Z" fill="#42E8E0"/>
<path d="M384.743 231.663L381.858 233.334V229.991L384.743 228.319V231.663Z" fill="#42E8E0"/>
<path d="M418.273 232.253L421.824 226.156L418.273 224.14L386 242.726V279.898L389.526 281.914L393.051 275.817L418.273 261.312V232.253Z" fill="url(#paint36_linear_203_113)"/>
<path d="M421.824 263.328L389.526 281.914V244.742L421.824 226.156V263.328Z" fill="url(#paint37_linear_203_113)"/>
<path style="mix-blend-mode:lighten" d="M421.824 263.328L389.526 281.914V244.742L421.824 226.156V263.328Z" fill="url(#paint38_linear_203_113)"/>
<path d="M383.904 231.122L383.288 230.532L418.964 192.499H520.543L558.019 155.13V2.8764H558.857V155.499L520.888 193.36H419.334L383.904 231.122Z" fill="#42E8E0"/>
<path d="M558.142 117.27L540.514 99.6914V37.0247H541.377V99.3472L558.734 116.655L558.142 117.27Z" fill="#42E8E0"/>
<path d="M449.807 193.237L449.191 192.622L469.162 172.708H512.604L533.437 151.909L534.054 152.524L512.949 173.544H469.531L449.807 193.237Z" fill="#42E8E0"/>
<path d="M533.659 155.106C533.082 155.11 532.516 154.944 532.034 154.627C531.552 154.31 531.175 153.857 530.952 153.326C530.729 152.795 530.669 152.21 530.78 151.645C530.892 151.08 531.169 150.56 531.578 150.153C531.986 149.746 532.507 149.469 533.073 149.358C533.64 149.247 534.227 149.307 534.76 149.529C535.292 149.752 535.746 150.127 536.064 150.608C536.382 151.089 536.549 151.653 536.544 152.229C536.544 152.992 536.24 153.724 535.699 154.263C535.158 154.802 534.424 155.106 533.659 155.106Z" fill="#42E8E0"/>
<path d="M504.517 135.684C503.94 135.688 503.376 135.522 502.894 135.207C502.412 134.891 502.036 134.439 501.812 133.91C501.588 133.38 501.526 132.796 501.636 132.232C501.745 131.667 502.02 131.148 502.426 130.74C502.832 130.332 503.351 130.053 503.916 129.939C504.481 129.825 505.067 129.881 505.6 130.1C506.133 130.319 506.589 130.691 506.91 131.168C507.23 131.646 507.402 132.208 507.402 132.782C507.402 133.548 507.098 134.282 506.558 134.825C506.018 135.369 505.284 135.677 504.517 135.684Z" fill="#42E8E0"/>
<path d="M527.668 107.214C527.097 107.214 526.54 107.046 526.065 106.73C525.591 106.414 525.221 105.964 525.003 105.439C524.784 104.913 524.727 104.335 524.839 103.777C524.95 103.219 525.225 102.706 525.628 102.304C526.031 101.902 526.545 101.628 527.105 101.517C527.665 101.406 528.245 101.463 528.772 101.68C529.299 101.898 529.749 102.267 530.066 102.74C530.383 103.213 530.552 103.769 530.552 104.338C530.552 104.716 530.478 105.09 530.333 105.439C530.188 105.788 529.975 106.105 529.708 106.372C529.44 106.639 529.122 106.851 528.772 106.995C528.422 107.14 528.047 107.214 527.668 107.214Z" fill="#42E8E0"/>
<path d="M516.228 34.9842C515.653 34.9842 515.09 34.814 514.612 34.4952C514.133 34.1765 513.76 33.7234 513.54 33.1933C513.32 32.6632 513.263 32.0799 513.375 31.5172C513.487 30.9544 513.764 30.4375 514.171 30.0318C514.578 29.6261 515.096 29.3498 515.661 29.2379C516.225 29.1259 516.81 29.1834 517.341 29.403C517.873 29.6225 518.327 29.9944 518.647 30.4714C518.967 30.9485 519.137 31.5094 519.137 32.0832C519.137 32.4641 519.062 32.8413 518.916 33.1933C518.77 33.5453 518.555 33.8651 518.285 34.1345C518.015 34.4038 517.694 34.6175 517.341 34.7633C516.989 34.9091 516.61 34.9842 516.228 34.9842Z" fill="#42E8E0"/>
<path d="M541.056 39.9257C540.48 39.9257 539.918 39.7556 539.439 39.4368C538.961 39.118 538.588 38.665 538.368 38.1349C538.148 37.6048 538.09 37.0215 538.202 36.4587C538.315 35.896 538.592 35.3791 538.999 34.9734C539.405 34.5677 539.924 34.2914 540.488 34.1794C541.053 34.0675 541.638 34.125 542.169 34.3445C542.701 34.5641 543.155 34.9359 543.475 35.413C543.794 35.8901 543.965 36.4509 543.965 37.0247C543.965 37.7941 543.659 38.532 543.113 39.076C542.567 39.6201 541.827 39.9257 541.056 39.9257Z" fill="#42E8E0"/>
<path d="M558.437 5.77734C557.861 5.78221 557.296 5.61622 556.814 5.30043C556.333 4.98464 555.956 4.53329 555.732 4.00365C555.508 3.47401 555.447 2.88995 555.556 2.3256C555.666 1.76125 555.941 1.24204 556.347 0.833866C556.753 0.42569 557.271 0.146945 557.836 0.0330016C558.401 -0.0809415 558.987 -0.024942 559.52 0.193887C560.053 0.412717 560.509 0.784515 560.83 1.2621C561.151 1.73969 561.322 2.30152 561.322 2.87633C561.325 3.25613 561.253 3.63282 561.11 3.98465C560.966 4.33647 560.754 4.65648 560.486 4.92619C560.218 5.1959 559.899 5.40997 559.547 5.55606C559.195 5.70215 558.818 5.77735 558.437 5.77734Z" fill="#42E8E0"/>
<path d="M420.246 126.612C419.843 126.649 419.437 126.602 419.053 126.473C418.669 126.345 418.317 126.138 418.018 125.867C417.719 125.595 417.48 125.264 417.317 124.895C417.153 124.526 417.069 124.126 417.069 123.723C417.069 123.32 417.153 122.921 417.317 122.551C417.48 122.182 417.719 121.851 418.018 121.579C418.317 121.308 418.669 121.101 419.053 120.973C419.437 120.844 419.843 120.797 420.246 120.834C420.968 120.901 421.639 121.234 422.128 121.768C422.617 122.303 422.887 123 422.887 123.723C422.887 124.446 422.617 125.143 422.128 125.678C421.639 126.212 420.968 126.545 420.246 126.612Z" fill="#42E8E0"/>
<path d="M365.117 232.794H364.254V215.953L364.378 215.83L404.812 174.896V116.778L438.343 83.3425H504.172L515.809 71.7385V32.0832H516.672V72.0826L504.517 84.2029H438.688L405.675 117.147V175.24L405.552 175.363L365.117 216.297V232.794Z" fill="#42E8E0"/>
<path d="M405.551 161.645L404.935 161.03L419.777 146.23V123.637H420.64V146.575L405.551 161.645Z" fill="#42E8E0"/>
<path d="M371.133 225.566L370.517 224.951L463.368 132.365H503.851V133.225H463.737L371.133 225.566Z" fill="#42E8E0"/>
<path d="M446.652 150.066H445.789V120.588L462.505 103.92H527.668V104.756H462.875L446.652 120.933V150.066Z" fill="#42E8E0"/>
<path d="M432.869 458.752C429.27 470.602 410.063 493.638 398.179 490.073C386.296 486.509 386.246 457.671 389.821 445.821C390.619 442.941 391.986 440.248 393.842 437.902C395.698 435.556 398.006 433.604 400.629 432.16C403.253 430.716 406.139 429.809 409.119 429.494C412.099 429.178 415.112 429.459 417.982 430.321C420.851 431.183 423.518 432.608 425.827 434.513C428.136 436.417 430.04 438.763 431.427 441.412C432.814 444.061 433.656 446.959 433.904 449.937C434.152 452.915 433.8 455.912 432.869 458.752Z" fill="url(#paint39_radial_203_113)"/>
<g style="mix-blend-mode:lighten">
<path d="M432.869 458.752C429.27 470.602 410.063 493.638 398.179 490.073C386.296 486.509 386.246 457.671 389.821 445.821C390.619 442.941 391.986 440.248 393.842 437.902C395.698 435.556 398.006 433.604 400.629 432.16C403.253 430.716 406.139 429.809 409.119 429.494C412.099 429.178 415.112 429.459 417.982 430.321C420.851 431.183 423.518 432.608 425.827 434.513C428.136 436.417 430.04 438.763 431.427 441.412C432.814 444.061 433.656 446.959 433.904 449.937C434.152 452.915 433.8 455.912 432.869 458.752Z" fill="url(#paint40_linear_203_113)"/>
</g>
<path d="M409.989 430.972C413.401 430.847 416.794 431.529 419.892 432.96C422.99 434.391 425.704 436.532 427.815 439.208C431.415 444.321 429.27 448.919 423.032 449.484C419.624 449.612 416.235 448.938 413.138 447.515C410.041 446.093 407.323 443.963 405.206 441.297C401.607 436.11 403.727 431.463 409.989 430.972Z" fill="#251C72"/>
<path style="mix-blend-mode:lighten" opacity="0.5" d="M409.989 430.972C413.401 430.847 416.794 431.529 419.892 432.96C422.99 434.391 425.704 436.532 427.815 439.208C431.415 444.321 429.27 448.919 423.032 449.484C419.624 449.612 416.235 448.938 413.138 447.515C410.041 446.093 407.323 443.963 405.206 441.297C401.607 436.11 403.727 431.463 409.989 430.972Z" fill="url(#paint41_radial_203_113)"/>
<path d="M403.456 436.774C404.828 435.724 406.487 435.116 408.214 435.028C411.627 434.915 415.019 435.603 418.115 437.038C421.212 438.473 423.926 440.614 426.04 443.289C427.026 444.581 427.632 446.122 427.79 447.738C430.059 445.845 430.256 442.649 427.79 439.208C425.68 436.532 422.965 434.391 419.867 432.96C416.77 431.529 413.377 430.847 409.965 430.972C405.65 431.463 403.308 433.676 403.456 436.774Z" fill="#42E8E0"/>
<path opacity="0.6" d="M427.643 416.712C427.807 416.552 427.937 416.361 428.026 416.15C428.115 415.939 428.161 415.712 428.161 415.483C428.161 415.254 428.115 415.028 428.026 414.816C427.937 414.605 427.807 414.414 427.643 414.254C427.315 413.93 426.872 413.748 426.41 413.748C425.948 413.748 425.505 413.93 425.177 414.254C424.858 414.584 424.679 415.025 424.679 415.483C424.679 415.942 424.858 416.382 425.177 416.712C425.505 417.037 425.948 417.219 426.41 417.219C426.872 417.219 427.315 417.037 427.643 416.712Z" fill="#42E8E0"/>
<path d="M448.18 413.836C448.823 413.233 449.272 412.454 449.471 411.597C449.669 410.739 449.609 409.843 449.296 409.02C448.984 408.197 448.434 407.485 447.716 406.973C446.998 406.462 446.144 406.174 445.262 406.147C444.38 406.119 443.51 406.353 442.761 406.819C442.012 407.284 441.419 407.961 441.056 408.763C440.693 409.565 440.576 410.456 440.721 411.324C440.865 412.192 441.265 412.998 441.868 413.639C442.27 414.066 442.751 414.409 443.286 414.65C443.82 414.891 444.397 415.024 444.983 415.042C445.57 415.06 446.154 414.963 446.702 414.756C447.251 414.549 447.753 414.237 448.18 413.836Z" fill="#42E8E0"/>
<path opacity="0.6" d="M436.987 438.839C437.226 438.614 437.419 438.345 437.554 438.046C437.69 437.748 437.764 437.425 437.775 437.098C437.785 436.77 437.731 436.444 437.614 436.137C437.498 435.83 437.323 435.55 437.097 435.311C436.872 435.072 436.602 434.879 436.303 434.745C436.003 434.61 435.68 434.535 435.352 434.525C435.023 434.515 434.696 434.569 434.388 434.685C434.081 434.801 433.799 434.976 433.559 435.2C433.076 435.653 432.792 436.28 432.771 436.941C432.75 437.603 432.994 438.246 433.449 438.728C433.903 439.211 434.531 439.493 435.195 439.514C435.858 439.535 436.503 439.292 436.987 438.839Z" fill="#42E8E0"/>
<path d="M442.731 430.48C442.899 430.321 443.032 430.131 443.123 429.919C443.214 429.708 443.26 429.481 443.26 429.251C443.26 429.021 443.214 428.793 443.123 428.582C443.032 428.371 442.899 428.18 442.731 428.021C442.592 427.813 442.408 427.637 442.193 427.506C441.979 427.375 441.738 427.293 441.488 427.265C441.237 427.237 440.984 427.264 440.746 427.344C440.507 427.424 440.289 427.555 440.106 427.728C439.924 427.901 439.782 428.111 439.689 428.345C439.597 428.578 439.557 428.829 439.572 429.079C439.588 429.33 439.658 429.574 439.777 429.795C439.897 430.015 440.064 430.207 440.266 430.357C440.416 430.532 440.601 430.674 440.808 430.776C441.016 430.877 441.242 430.935 441.472 430.947C441.703 430.958 441.934 430.923 442.15 430.842C442.367 430.762 442.564 430.639 442.731 430.48Z" fill="#42E8E0"/>
<path d="M444.087 434.536C444.248 434.374 444.356 434.168 444.399 433.944C444.442 433.721 444.418 433.489 444.33 433.279C444.242 433.069 444.093 432.89 443.903 432.764C443.713 432.638 443.49 432.57 443.261 432.57C443.033 432.57 442.81 432.638 442.62 432.764C442.429 432.89 442.281 433.069 442.193 433.279C442.104 433.489 442.08 433.721 442.123 433.944C442.167 434.168 442.275 434.374 442.435 434.536C442.543 434.646 442.672 434.732 442.814 434.792C442.955 434.851 443.108 434.881 443.261 434.881C443.415 434.881 443.567 434.851 443.709 434.792C443.851 434.732 443.98 434.646 444.087 434.536Z" fill="#42E8E0"/>
<path opacity="0.6" d="M431.267 401.003C431.606 400.657 431.836 400.219 431.926 399.743C432.017 399.268 431.965 398.776 431.777 398.33C431.588 397.884 431.272 397.504 430.868 397.236C430.464 396.968 429.989 396.826 429.504 396.826C429.019 396.826 428.544 396.968 428.14 397.236C427.736 397.504 427.42 397.884 427.232 398.33C427.043 398.776 426.991 399.268 427.082 399.743C427.173 400.219 427.402 400.657 427.741 401.003C427.971 401.237 428.245 401.423 428.548 401.55C428.85 401.677 429.176 401.743 429.504 401.743C429.833 401.743 430.158 401.677 430.46 401.55C430.763 401.423 431.037 401.237 431.267 401.003Z" fill="#42E8E0"/>
<path d="M426.483 406.878C427.197 406.203 427.614 405.272 427.642 404.291C427.669 403.309 427.306 402.357 426.631 401.642C426.127 401.115 425.479 400.749 424.766 400.589C424.054 400.43 423.31 400.484 422.629 400.745C421.947 401.006 421.359 401.462 420.937 402.056C420.515 402.65 420.279 403.356 420.258 404.083C420.238 404.811 420.434 405.528 420.821 406.145C421.209 406.762 421.771 407.251 422.437 407.55C423.102 407.849 423.842 407.944 424.562 407.825C425.282 407.705 425.951 407.376 426.483 406.878Z" fill="#42E8E0"/>
<path d="M353.011 176.298L168.912 71.0992C167.788 70.2836 166.456 69.8002 165.07 69.7046C163.683 69.6089 162.297 69.9048 161.072 70.5584L149.706 77.1225L157.102 82.4574V88.4315L152.911 90.2017L153.133 314.218L165.608 326.191L208.212 350.604L338.884 423.154H344.431C344.678 423.154 344.999 422.49 345.294 421.605L350.891 424.825L349.116 433.332L360.679 426.694C363.145 425.268 364.846 421.924 364.846 417.13V198.793C364.821 190.139 359.52 180.059 353.011 176.298ZM347.932 410.714L170.588 309.375C169.772 308.785 169.104 308.013 168.638 307.122C168.171 306.23 167.919 305.243 167.901 304.237V88.7757L205.525 112.918L341.991 193.163L346.009 199.383L348.228 296.96L347.932 410.714Z" fill="url(#paint42_linear_203_113)"/>
<path opacity="0.6" d="M361.074 185.197L343.421 195.449L346.01 199.481L348.229 297.058L347.933 410.812L344.678 408.919C344.678 412.435 349.116 429.792 349.116 433.504L358.51 428.12L360.679 426.866C363.145 425.44 364.846 422.097 364.846 417.302V198.793C364.719 194.022 363.424 189.355 361.074 185.197Z" fill="#0F054C"/>
<path d="M341.103 183.157L157.028 77.9338C150.494 74.1723 145.218 78.1551 145.218 86.8335V305.171C145.218 313.85 150.494 323.929 157.028 327.666L341.103 432.889C347.636 436.651 352.913 432.668 352.913 423.989V205.652C352.913 196.973 347.636 186.894 341.103 183.157ZM342.138 417.474C342.138 419.441 340.93 420.351 339.426 419.515L158.705 316.259C157.878 315.677 157.201 314.908 156.73 314.015C156.258 313.121 156.006 312.13 155.993 311.121V93.3485C155.993 91.3817 157.201 90.4721 158.705 91.3079L339.426 194.564C340.253 195.146 340.93 195.915 341.401 196.808C341.873 197.701 342.125 198.693 342.138 199.702V417.474Z" fill="url(#paint43_linear_203_113)"/>
<path d="M341.103 183.157L157.028 77.9338C150.494 74.1723 145.218 78.1551 145.218 86.8335V305.171C145.218 313.85 150.494 323.929 157.028 327.666L341.103 432.889C347.636 436.651 352.913 432.668 352.913 423.989V205.652C352.913 196.973 347.636 186.894 341.103 183.157ZM342.138 417.474C342.138 419.441 340.93 420.351 339.426 419.515L158.705 316.259C157.878 315.677 157.201 314.908 156.73 314.015C156.258 313.121 156.006 312.13 155.993 311.121V93.3485C155.993 91.3817 157.201 90.4721 158.705 91.3079L339.426 194.564C340.253 195.146 340.93 195.915 341.401 196.808C341.873 197.701 342.125 198.693 342.138 199.702V417.474Z" fill="url(#paint44_linear_203_113)"/>
<path d="M170.588 309.375C169.772 308.785 169.104 308.013 168.638 307.122C168.171 306.23 167.919 305.242 167.901 304.237V96.6183L158.705 91.308C157.201 90.4721 155.993 91.308 155.993 93.3485V310.998C156.006 312.007 156.258 312.999 156.73 313.892C157.201 314.785 157.878 315.554 158.705 316.136L339.426 419.392C340.93 420.228 342.139 419.392 342.139 417.352V407.37L170.588 309.375Z" fill="#251C72"/>
<path opacity="0.4" d="M342.139 417.475C342.139 419.441 340.93 420.351 339.426 419.515L158.705 316.259C157.878 315.677 157.201 314.908 156.73 314.015C156.258 313.122 156.006 312.13 155.993 311.121V93.3485C155.993 91.3817 157.201 90.4721 158.705 91.308L339.426 194.564C340.253 195.146 340.93 195.915 341.401 196.808C341.873 197.702 342.125 198.693 342.139 199.702V417.475Z" fill="#42E8E0"/>
<g opacity="0.4">
<path d="M211.762 188.492L194.159 178.363V173.962L211.762 184.066V188.492Z" fill="#42E8E0"/>
<path d="M226.753 197.121L217.951 192.057V187.656L226.753 192.72V197.121Z" fill="#42E8E0"/>
<path d="M216.94 201.817L209.445 197.514V193.089L216.94 197.416V201.817Z" fill="#42E8E0"/>
<path d="M229.489 209.045L220.688 203.98V199.579L229.489 204.644V209.045Z" fill="#42E8E0"/>
<path d="M243.987 227.754L209.445 207.865V203.439L243.987 223.328V227.754Z" fill="#42E8E0"/>
<path d="M216.94 222.517L209.445 218.215V213.789L216.94 218.116V222.517Z" fill="#42E8E0"/>
<path d="M229.489 229.745L220.688 224.681V220.28L229.489 225.344V229.745Z" fill="#42E8E0"/>
<path d="M228.429 239.505L209.445 228.565V224.14L228.429 235.08V239.505Z" fill="#42E8E0"/>
<path d="M241.151 246.807L232.35 241.742V237.342L241.151 242.406V246.807Z" fill="#42E8E0"/>
<path d="M253.923 254.182L245.146 249.118V244.693L253.923 249.757V254.182Z" fill="#42E8E0"/>
<path d="M274.559 266.032L257.917 256.469V252.043L274.559 261.631V266.032Z" fill="#42E8E0"/>
<path d="M264.574 281.004L255.796 275.94V271.515L264.574 276.579V281.004Z" fill="#42E8E0"/>
<path d="M285.21 292.879L268.568 283.291V278.89L285.21 288.454V292.879Z" fill="#42E8E0"/>
<path d="M218.247 254.33L209.445 249.265V244.84L218.247 249.905V254.33Z" fill="#42E8E0"/>
<path d="M231.018 261.681L222.216 256.616V252.191L231.018 257.255V261.681Z" fill="#42E8E0"/>
<path d="M251.63 273.555L235.012 263.967V259.566L251.63 269.13V273.555Z" fill="#42E8E0"/>
<path d="M277.074 277.833L268.272 272.768V268.368L277.074 273.432V277.833Z" fill="#42E8E0"/>
<path d="M289.845 285.184L281.043 280.119V275.719L289.845 280.783V285.184Z" fill="#42E8E0"/>
<path d="M310.457 297.058L293.814 287.495V283.069L310.457 292.658V297.058Z" fill="#42E8E0"/>
<path d="M218.247 275.03L209.445 269.966V265.54L218.247 270.605V275.03Z" fill="#42E8E0"/>
<path d="M238.858 286.88L222.216 277.317V272.891L238.858 282.479V286.88Z" fill="#42E8E0"/>
<path d="M270.269 242.873L261.492 237.809V233.408L270.269 238.473V242.873Z" fill="#42E8E0"/>
<path d="M256.98 235.227L248.178 230.163V225.762L256.98 230.827V235.227Z" fill="#42E8E0"/>
<path d="M290.881 254.748L274.263 245.184V240.759L290.881 250.347V254.748Z" fill="#42E8E0"/>
<path d="M217.384 243.488L209.445 238.915V234.49L217.384 239.063V243.488Z" fill="#42E8E0"/>
<path d="M240.905 257.01L221.625 245.922V241.497L240.905 252.609V257.01Z" fill="#42E8E0"/>
<path d="M264.426 270.556L245.146 259.468V255.043L264.426 266.131V270.556Z" fill="#42E8E0"/>
<path d="M303.109 261.779L295.17 257.231V252.806L303.109 257.378V261.779Z" fill="#42E8E0"/>
<path d="M228.897 270.802L209.617 259.714V255.289L228.897 266.401V270.802Z" fill="#42E8E0"/>
<path d="M239.055 276.653L233.138 273.236V268.835L239.055 272.252V276.653Z" fill="#42E8E0"/>
<path d="M249.238 282.529L243.321 279.111V274.686L249.238 278.103V282.529Z" fill="#42E8E0"/>
<path d="M268.075 293.37L253.503 284.987V280.562L268.075 288.945V293.37Z" fill="#42E8E0"/>
<path d="M272.019 295.632L257.448 287.249V282.848L272.019 291.232V295.632Z" fill="#42E8E0"/>
<path d="M284.372 271.711L278.455 268.294V263.869L284.372 267.286V271.711Z" fill="#42E8E0"/>
<path d="M303.208 282.529L288.637 274.145V269.744L303.208 278.128V282.529Z" fill="#42E8E0"/>
<path d="M200.248 275.03L194.331 271.613V267.188L200.248 270.605V275.03Z" fill="#42E8E0"/>
<path d="M219.085 285.872L204.514 277.464V273.063L219.085 281.447V285.872Z" fill="#42E8E0"/>
<path d="M238.316 296.935L223.77 288.552V284.127L238.316 292.51V296.935Z" fill="#42E8E0"/>
</g>
</g>
<defs>
<linearGradient id="paint0_linear_203_113" x1="541.696" y1="683.138" x2="641.111" y2="740.691" gradientUnits="userSpaceOnUse">
<stop stop-color="#BCBEFF"/>
<stop offset="0.23" stop-color="#AAADF8"/>
<stop offset="0.68" stop-color="#7C83E5"/>
<stop offset="1" stop-color="#5761D7"/>
</linearGradient>
<linearGradient id="paint1_linear_203_113" x1="529.221" y1="704.797" x2="654.691" y2="704.797" gradientUnits="userSpaceOnUse">
<stop stop-color="#E9E9FD"/>
<stop offset="0.36" stop-color="#D3D2F9"/>
<stop offset="0.71" stop-color="#C5C4F7"/>
<stop offset="1" stop-color="#C0BFF6"/>
</linearGradient>
<linearGradient id="paint2_linear_203_113" x1="541.697" y1="610.047" x2="641.112" y2="667.625" gradientUnits="userSpaceOnUse">
<stop stop-color="#BCBEFF"/>
<stop offset="0.23" stop-color="#AAADF8"/>
<stop offset="0.68" stop-color="#7C83E5"/>
<stop offset="1" stop-color="#5761D7"/>
</linearGradient>
<linearGradient id="paint3_linear_203_113" x1="529.221" y1="631.707" x2="654.691" y2="631.707" gradientUnits="userSpaceOnUse">
<stop stop-color="#E9E9FD"/>
<stop offset="0.36" stop-color="#D3D2F9"/>
<stop offset="0.71" stop-color="#C5C4F7"/>
<stop offset="1" stop-color="#C0BFF6"/>
</linearGradient>
<linearGradient id="paint4_linear_203_113" x1="12.4755" y1="668.657" x2="111.915" y2="726.235" gradientUnits="userSpaceOnUse">
<stop stop-color="#BCBEFF"/>
<stop offset="0.23" stop-color="#AAADF8"/>
<stop offset="0.68" stop-color="#7C83E5"/>
<stop offset="1" stop-color="#5761D7"/>
</linearGradient>
<linearGradient id="paint5_linear_203_113" x1="-0.00128096" y1="690.341" x2="125.493" y2="690.341" gradientUnits="userSpaceOnUse">
<stop stop-color="#E9E9FD"/>
<stop offset="0.36" stop-color="#D3D2F9"/>
<stop offset="0.71" stop-color="#C5C4F7"/>
<stop offset="1" stop-color="#C0BFF6"/>
</linearGradient>
<linearGradient id="paint6_linear_203_113" x1="12.4755" y1="590.281" x2="111.915" y2="647.859" gradientUnits="userSpaceOnUse">
<stop stop-color="#BCBEFF"/>
<stop offset="0.23" stop-color="#AAADF8"/>
<stop offset="0.68" stop-color="#7C83E5"/>
<stop offset="1" stop-color="#5761D7"/>
</linearGradient>
<linearGradient id="paint7_linear_203_113" x1="0.000183883" y1="611.94" x2="125.495" y2="611.94" gradientUnits="userSpaceOnUse">
<stop stop-color="#E9E9FD"/>
<stop offset="0.36" stop-color="#D3D2F9"/>
<stop offset="0.71" stop-color="#C5C4F7"/>
<stop offset="1" stop-color="#C0BFF6"/>
</linearGradient>
<linearGradient id="paint8_linear_203_113" x1="575.006" y1="358.373" x2="674.421" y2="415.926" gradientUnits="userSpaceOnUse">
<stop stop-color="#BCBEFF"/>
<stop offset="0.23" stop-color="#AAADF8"/>
<stop offset="0.68" stop-color="#7C83E5"/>
<stop offset="1" stop-color="#5761D7"/>
</linearGradient>
<linearGradient id="paint9_linear_203_113" x1="562.506" y1="380.032" x2="688" y2="380.032" gradientUnits="userSpaceOnUse">
<stop stop-color="#E9E9FD"/>
<stop offset="0.36" stop-color="#D3D2F9"/>
<stop offset="0.71" stop-color="#C5C4F7"/>
<stop offset="1" stop-color="#C0BFF6"/>
</linearGradient>
<linearGradient id="paint10_linear_203_113" x1="575.006" y1="285.38" x2="674.421" y2="342.933" gradientUnits="userSpaceOnUse">
<stop stop-color="#BCBEFF"/>
<stop offset="0.23" stop-color="#AAADF8"/>
<stop offset="0.68" stop-color="#7C83E5"/>
<stop offset="1" stop-color="#5761D7"/>
</linearGradient>
<linearGradient id="paint11_linear_203_113" x1="562.506" y1="307.04" x2="688" y2="307.04" gradientUnits="userSpaceOnUse">
<stop stop-color="#E9E9FD"/>
<stop offset="0.36" stop-color="#D3D2F9"/>
<stop offset="0.71" stop-color="#C5C4F7"/>
<stop offset="1" stop-color="#C0BFF6"/>
</linearGradient>
<linearGradient id="paint12_linear_203_113" x1="536.642" y1="500.842" x2="48.7184" y2="500.842" gradientUnits="userSpaceOnUse">
<stop stop-color="#5761D7"/>
<stop offset="0.18" stop-color="#5C66D9"/>
<stop offset="0.39" stop-color="#6A73DF"/>
<stop offset="0.61" stop-color="#8289E8"/>
<stop offset="0.85" stop-color="#A3A7F5"/>
<stop offset="1" stop-color="#BCBEFF"/>
</linearGradient>
<linearGradient id="paint13_linear_203_113" x1="381.833" y1="489.533" x2="-106.066" y2="489.533" gradientUnits="userSpaceOnUse">
<stop stop-color="#C0BFF6"/>
<stop offset="0.29" stop-color="#C5C4F7"/>
<stop offset="0.64" stop-color="#D3D2F9"/>
<stop offset="1" stop-color="#E9E9FD"/>
</linearGradient>
<linearGradient id="paint14_linear_203_113" x1="591.969" y1="276.112" x2="246.674" y2="276.112" gradientUnits="userSpaceOnUse">
<stop stop-color="#C0BFF6"/>
<stop offset="0.29" stop-color="#C5C4F7"/>
<stop offset="0.64" stop-color="#D3D2F9"/>
<stop offset="1" stop-color="#E9E9FD"/>
</linearGradient>
<linearGradient id="paint15_linear_203_113" x1="591.969" y1="364.396" x2="532.673" y2="364.396" gradientUnits="userSpaceOnUse">
<stop stop-color="#5761D7"/>
<stop offset="0.18" stop-color="#5C66D9"/>
<stop offset="0.39" stop-color="#6A73DF"/>
<stop offset="0.61" stop-color="#8289E8"/>
<stop offset="0.85" stop-color="#A3A7F5"/>
<stop offset="1" stop-color="#BCBEFF"/>
</linearGradient>
<linearGradient id="paint16_linear_203_113" x1="545.691" y1="460.744" x2="58.0381" y2="460.744" gradientUnits="userSpaceOnUse">
<stop stop-color="#5761D7"/>
<stop offset="0.18" stop-color="#5C66D9"/>
<stop offset="0.39" stop-color="#6A73DF"/>
<stop offset="0.61" stop-color="#8289E8"/>
<stop offset="0.85" stop-color="#A3A7F5"/>
<stop offset="1" stop-color="#BCBEFF"/>
</linearGradient>
<linearGradient id="paint17_linear_203_113" x1="381.833" y1="447.443" x2="-106.066" y2="447.443" gradientUnits="userSpaceOnUse">
<stop stop-color="#C0BFF6"/>
<stop offset="0.29" stop-color="#C5C4F7"/>
<stop offset="0.64" stop-color="#D3D2F9"/>
<stop offset="1" stop-color="#E9E9FD"/>
</linearGradient>
<radialGradient id="paint18_radial_203_113" cx="0" cy="0" r="1" gradientUnits="userSpaceOnUse" gradientTransform="translate(307.942 427.8) scale(308.879 307.998)">
<stop stop-color="#42E8E0"/>
<stop offset="0.11" stop-color="#37B6BF"/>
<stop offset="0.22" stop-color="#2C87A1"/>
<stop offset="0.34" stop-color="#235F87"/>
<stop offset="0.46" stop-color="#1C3F72"/>
<stop offset="0.58" stop-color="#162561"/>
<stop offset="0.71" stop-color="#121355"/>
<stop offset="0.85" stop-color="#10084E"/>
<stop offset="1" stop-color="#0F054C"/>
</radialGradient>
<radialGradient id="paint19_radial_203_113" cx="0" cy="0" r="1" gradientUnits="userSpaceOnUse" gradientTransform="translate(267.59 604.115) rotate(180) scale(150.559 204.023)">
<stop stop-color="#C0BFF6"/>
<stop offset="1" stop-color="#393091"/>
</radialGradient>
<linearGradient id="paint20_linear_203_113" x1="57.1751" y1="441.174" x2="546.504" y2="441.174" gradientUnits="userSpaceOnUse">
<stop stop-color="#42E8E0"/>
<stop offset="0.11" stop-color="#37B6BF"/>
<stop offset="0.22" stop-color="#2C87A1"/>
<stop offset="0.34" stop-color="#235F87"/>
<stop offset="0.46" stop-color="#1C3F72"/>
<stop offset="0.58" stop-color="#162561"/>
<stop offset="0.71" stop-color="#121355"/>
<stop offset="0.85" stop-color="#10084E"/>
<stop offset="1" stop-color="#0F054C"/>
</linearGradient>
<radialGradient id="paint21_radial_203_113" cx="0" cy="0" r="1" gradientUnits="userSpaceOnUse" gradientTransform="translate(192.876 336.998) rotate(16.7149) scale(63.8168 63.6651)">
<stop stop-color="#C0BFF6"/>
<stop offset="1" stop-color="#393091"/>
</radialGradient>
<linearGradient id="paint22_linear_203_113" x1="152.085" y1="367.96" x2="199.911" y2="339.783" gradientUnits="userSpaceOnUse">
<stop stop-color="#2FD3C7"/>
<stop offset="0.09" stop-color="#31B6BD"/>
<stop offset="0.23" stop-color="#338DB0"/>
<stop offset="0.37" stop-color="#356BA5"/>
<stop offset="0.52" stop-color="#37519C"/>
<stop offset="0.67" stop-color="#383F96"/>
<stop offset="0.83" stop-color="#393492"/>
<stop offset="1" stop-color="#393091"/>
</linearGradient>
<radialGradient id="paint23_radial_203_113" cx="0" cy="0" r="1" gradientUnits="userSpaceOnUse" gradientTransform="translate(211.061 306.574) rotate(-95.1574) scale(41.4704 41.5871)">
<stop stop-color="#42E8E0"/>
<stop offset="0.11" stop-color="#37B6BF"/>
<stop offset="0.22" stop-color="#2C87A1"/>
<stop offset="0.34" stop-color="#235F87"/>
<stop offset="0.46" stop-color="#1C3F72"/>
<stop offset="0.58" stop-color="#162561"/>
<stop offset="0.71" stop-color="#121355"/>
<stop offset="0.85" stop-color="#10084E"/>
<stop offset="1" stop-color="#0F054C"/>
</radialGradient>
<radialGradient id="paint24_radial_203_113" cx="0" cy="0" r="1" gradientUnits="userSpaceOnUse" gradientTransform="translate(394.068 172.325) rotate(11.1689) scale(195.346 194.831)">
<stop stop-color="#C0BFF6"/>
<stop offset="1" stop-color="#393091"/>
</radialGradient>
<linearGradient id="paint25_linear_203_113" x1="218.012" y1="309.581" x2="254.169" y2="252.369" gradientUnits="userSpaceOnUse">
<stop stop-color="#706EC4"/>
<stop offset="0.02" stop-color="#6D6BC2"/>
<stop offset="0.25" stop-color="#5651AC"/>
<stop offset="0.49" stop-color="#463F9D"/>
<stop offset="0.73" stop-color="#3C3494"/>
<stop offset="1" stop-color="#393091"/>
</linearGradient>
<radialGradient id="paint26_radial_203_113" cx="0" cy="0" r="1" gradientUnits="userSpaceOnUse" gradientTransform="translate(369.977 324.229) scale(150.559 204.023)">
<stop stop-color="#C0BFF6"/>
<stop offset="1" stop-color="#393091"/>
</radialGradient>
<linearGradient id="paint27_linear_203_113" x1="318.284" y1="460.731" x2="318.284" y2="256.812" gradientUnits="userSpaceOnUse">
<stop stop-color="#2FD3C7"/>
<stop offset="0.09" stop-color="#31B6BD"/>
<stop offset="0.23" stop-color="#338DB0"/>
<stop offset="0.37" stop-color="#356BA5"/>
<stop offset="0.52" stop-color="#37519C"/>
<stop offset="0.67" stop-color="#383F96"/>
<stop offset="0.83" stop-color="#393492"/>
<stop offset="1" stop-color="#393091"/>
</linearGradient>
<radialGradient id="paint28_radial_203_113" cx="0" cy="0" r="1" gradientUnits="userSpaceOnUse" gradientTransform="translate(311.246 324.495) scale(116.249 115.917)">
<stop stop-color="#42E8E0"/>
<stop offset="0.11" stop-color="#37B6BF"/>
<stop offset="0.22" stop-color="#2C87A1"/>
<stop offset="0.34" stop-color="#235F87"/>
<stop offset="0.46" stop-color="#1C3F72"/>
<stop offset="0.58" stop-color="#162561"/>
<stop offset="0.71" stop-color="#121355"/>
<stop offset="0.85" stop-color="#10084E"/>
<stop offset="1" stop-color="#0F054C"/>
</radialGradient>
<radialGradient id="paint29_radial_203_113" cx="0" cy="0" r="1" gradientUnits="userSpaceOnUse" gradientTransform="translate(372.662 196.383) scale(150.643 150.213)">
<stop stop-color="#C0BFF6"/>
<stop offset="1" stop-color="#393091"/>
</radialGradient>
<linearGradient id="paint30_linear_203_113" x1="304.614" y1="297.574" x2="329.303" y2="121.503" gradientUnits="userSpaceOnUse">
<stop stop-color="#2FD3C7"/>
<stop offset="0.09" stop-color="#31B6BD"/>
<stop offset="0.23" stop-color="#338DB0"/>
<stop offset="0.37" stop-color="#356BA5"/>
<stop offset="0.52" stop-color="#37519C"/>
<stop offset="0.67" stop-color="#383F96"/>
<stop offset="0.83" stop-color="#393492"/>
<stop offset="1" stop-color="#393091"/>
</linearGradient>
<radialGradient id="paint31_radial_203_113" cx="0" cy="0" r="1" gradientUnits="userSpaceOnUse" gradientTransform="translate(289.278 217.748) scale(73.9898 73.779)">
<stop stop-color="#42E8E0"/>
<stop offset="0.06" stop-color="#3CCBCD"/>
<stop offset="0.18" stop-color="#3098AC"/>
<stop offset="0.3" stop-color="#266B8F"/>
<stop offset="0.42" stop-color="#1E4777"/>
<stop offset="0.54" stop-color="#172A65"/>
<stop offset="0.66" stop-color="#131657"/>
<stop offset="0.78" stop-color="#100A50"/>
<stop offset="0.9" stop-color="#0F064D"/>
<stop offset="1" stop-color="#0F054C"/>
</radialGradient>
<radialGradient id="paint32_radial_203_113" cx="0" cy="0" r="1" gradientUnits="userSpaceOnUse" gradientTransform="translate(430.55 341.602) rotate(11.261) scale(70.735 70.5487)">
<stop stop-color="#C0BFF6"/>
<stop offset="1" stop-color="#393091"/>
</radialGradient>
<linearGradient id="paint33_linear_203_113" x1="382.95" y1="383.462" x2="437.787" y2="343.644" gradientUnits="userSpaceOnUse">
<stop stop-color="#2FD3C7"/>
<stop offset="0.09" stop-color="#31B6BD"/>
<stop offset="0.23" stop-color="#338DB0"/>
<stop offset="0.37" stop-color="#356BA5"/>
<stop offset="0.52" stop-color="#37519C"/>
<stop offset="0.67" stop-color="#383F96"/>
<stop offset="0.83" stop-color="#393492"/>
<stop offset="1" stop-color="#393091"/>
</linearGradient>
<radialGradient id="paint34_radial_203_113" cx="0" cy="0" r="1" gradientUnits="userSpaceOnUse" gradientTransform="translate(420.862 367.936) scale(63.0677 62.8879)">
<stop stop-color="#42E8E0"/>
<stop offset="0.11" stop-color="#37B6BF"/>
<stop offset="0.22" stop-color="#2C87A1"/>
<stop offset="0.34" stop-color="#235F87"/>
<stop offset="0.46" stop-color="#1C3F72"/>
<stop offset="0.58" stop-color="#162561"/>
<stop offset="0.71" stop-color="#121355"/>
<stop offset="0.85" stop-color="#10084E"/>
<stop offset="1" stop-color="#0F054C"/>
</radialGradient>
<radialGradient id="paint35_radial_203_113" cx="0" cy="0" r="1" gradientUnits="userSpaceOnUse" gradientTransform="translate(370.098 188.632) scale(59.4434 75.8707)">
<stop stop-color="#2B237C"/>
<stop offset="0.31" stop-color="#251C72"/>
<stop offset="1" stop-color="#0F054C"/>
</radialGradient>
<linearGradient id="paint36_linear_203_113" x1="416.844" y1="249.093" x2="332.367" y2="274.869" gradientUnits="userSpaceOnUse">
<stop stop-color="#BCBEFF"/>
<stop offset="0.15" stop-color="#A3A7F5"/>
<stop offset="0.39" stop-color="#8289E8"/>
<stop offset="0.61" stop-color="#6A73DF"/>
<stop offset="0.82" stop-color="#5C66D9"/>
<stop offset="1" stop-color="#5761D7"/>
</linearGradient>
<linearGradient id="paint37_linear_203_113" x1="402.199" y1="254.453" x2="286.403" y2="268.298" gradientUnits="userSpaceOnUse">
<stop stop-color="#BCBEFF"/>
<stop offset="0.15" stop-color="#A3A7F5"/>
<stop offset="0.39" stop-color="#8289E8"/>
<stop offset="0.61" stop-color="#6A73DF"/>
<stop offset="0.82" stop-color="#5C66D9"/>
<stop offset="1" stop-color="#5761D7"/>
</linearGradient>
<linearGradient id="paint38_linear_203_113" x1="384.841" y1="288.404" x2="444.92" y2="188.733" gradientUnits="userSpaceOnUse">
<stop stop-color="#42E8E0"/>
<stop offset="0.12" stop-color="#42E2DE"/>
<stop offset="0.27" stop-color="#41D3D7"/>
<stop offset="0.44" stop-color="#40B9CC"/>
<stop offset="0.62" stop-color="#3E94BC"/>
<stop offset="0.81" stop-color="#3C66A8"/>
<stop offset="1" stop-color="#393091"/>
</linearGradient>
<radialGradient id="paint39_radial_203_113" cx="0" cy="0" r="1" gradientUnits="userSpaceOnUse" gradientTransform="translate(425.409 441.027) rotate(16.7149) scale(63.8169 63.6651)">
<stop stop-color="#C0BFF6"/>
<stop offset="1" stop-color="#393091"/>
</radialGradient>
<linearGradient id="paint40_linear_203_113" x1="384.642" y1="471.996" x2="432.444" y2="443.811" gradientUnits="userSpaceOnUse">
<stop stop-color="#2FD3C7"/>
<stop offset="0.09" stop-color="#31B6BD"/>
<stop offset="0.23" stop-color="#338DB0"/>
<stop offset="0.37" stop-color="#356BA5"/>
<stop offset="0.52" stop-color="#37519C"/>
<stop offset="0.67" stop-color="#383F96"/>
<stop offset="0.83" stop-color="#393492"/>
<stop offset="1" stop-color="#393091"/>
</linearGradient>
<radialGradient id="paint41_radial_203_113" cx="0" cy="0" r="1" gradientUnits="userSpaceOnUse" gradientTransform="translate(444.615 410.872) rotate(-95.1574) scale(41.4704 41.587)">
<stop stop-color="#42E8E0"/>
<stop offset="0.11" stop-color="#37B6BF"/>
<stop offset="0.22" stop-color="#2C87A1"/>
<stop offset="0.34" stop-color="#235F87"/>
<stop offset="0.46" stop-color="#1C3F72"/>
<stop offset="0.58" stop-color="#162561"/>
<stop offset="0.71" stop-color="#121355"/>
<stop offset="0.85" stop-color="#10084E"/>
<stop offset="1" stop-color="#0F054C"/>
</radialGradient>
<linearGradient id="paint42_linear_203_113" x1="192.063" y1="251.503" x2="366.473" y2="251.503" gradientUnits="userSpaceOnUse">
<stop stop-color="#BCBEFF"/>
<stop offset="0.17" stop-color="#B6B8FC"/>
<stop offset="0.4" stop-color="#A4A8F5"/>
<stop offset="0.66" stop-color="#868DEA"/>
<stop offset="0.96" stop-color="#5E67DA"/>
<stop offset="1" stop-color="#5761D7"/>
</linearGradient>
<linearGradient id="paint43_linear_203_113" x1="145.218" y1="255.411" x2="352.913" y2="255.411" gradientUnits="userSpaceOnUse">
<stop stop-color="#BCBEFF"/>
<stop offset="0.17" stop-color="#B6B8FC"/>
<stop offset="0.4" stop-color="#A4A8F5"/>
<stop offset="0.66" stop-color="#868DEA"/>
<stop offset="0.96" stop-color="#5E67DA"/>
<stop offset="1" stop-color="#5761D7"/>
</linearGradient>
<linearGradient id="paint44_linear_203_113" x1="116.52" y1="255.411" x2="491.252" y2="255.411" gradientUnits="userSpaceOnUse">
<stop stop-color="#706EC4"/>
<stop offset="0.02" stop-color="#6D6BC2"/>
<stop offset="0.25" stop-color="#5651AC"/>
<stop offset="0.49" stop-color="#463F9D"/>
<stop offset="0.73" stop-color="#3C3494"/>
<stop offset="1" stop-color="#393091"/>
</linearGradient>
<clipPath id="clip0_203_113">
<rect width="688" height="752" fill="white"/>
</clipPath>
</defs>
</svg>
