<svg width="38" height="46" viewBox="0 0 230 276" fill="none" xmlns="http://www.w3.org/2000/svg">
<g id="Frame 31" clip-path="url(#clip0_11_362)">
<rect width="230" height="276" fill="white"/>
<g id="Group 10">
<path id="Vector" d="M227.844 53.817C227.015 44.7568 219.624 37.7135 210.64 37.4254C159.186 35.7286 134.909 14.4707 126.88 5.37849C123.853 1.98492 119.521 0 114.996 0C110.472 0 106.139 1.95291 103.113 5.37849C95.0841 14.4387 70.8069 35.7286 19.3533 37.4254C10.3689 37.7135 2.97742 44.7568 2.14906 53.817C-7.40887 159.082 17.3462 200.253 28.7201 213.283C59.8471 254.806 97.8559 271.006 108.784 274.976C110.695 275.68 112.639 276 114.614 276C117.099 276 119.552 275.456 121.846 274.367C131.978 269.565 167.661 251.028 200.954 213.603C212.264 200.925 237.497 159.946 227.844 53.7849V53.817ZM186.649 200.765C156.605 234.509 124.777 251.573 114.519 256.535C103.846 252.533 71.2211 237.902 44.1084 201.662C43.8217 201.277 43.5349 200.893 43.28 200.605C30.345 185.942 23.5588 159.37 20.8508 129.66H43.3756C46.6572 144.291 59.6878 155.272 75.2036 155.272C90.7193 155.272 104.26 143.907 107.223 128.86C107.382 128.732 107.541 128.636 107.701 128.508C113.021 123.609 117.004 123.609 122.324 128.508C122.547 128.732 122.802 128.892 123.057 129.052C126.434 143.555 139.369 154.408 154.821 154.408C170.273 154.408 182.858 143.875 186.426 129.66H209.174C206.466 159.466 199.648 186.134 186.617 200.765H186.649ZM56.8842 122.457C56.8842 112.308 65.104 104.048 75.2036 104.048C85.3031 104.048 93.5229 112.308 93.5229 122.457C93.5229 132.605 85.3031 140.865 75.2036 140.865C65.104 140.865 56.8842 132.605 56.8842 122.457ZM136.502 121.592C136.502 111.444 144.722 103.184 154.821 103.184C164.921 103.184 173.141 111.444 173.141 121.592C173.141 131.741 164.921 140.001 154.821 140.001C144.722 140.001 136.502 131.741 136.502 121.592ZM210.193 115.253H186.872C183.909 100.174 170.687 88.7772 154.853 88.7772C140.07 88.7772 127.581 98.7018 123.567 112.244C117.864 109.811 111.97 109.843 106.299 112.34C102.061 99.182 89.7316 89.6416 75.2354 89.6416C59.6878 89.6416 46.689 100.623 43.4075 115.253H19.895C18.971 95.6924 19.6082 75.395 21.2649 56.6663C73.7061 54.6493 101.87 34.512 115.06 20.8737C128.25 34.48 156.446 54.6493 208.855 56.6663C210.512 75.3629 211.149 95.6604 210.225 115.253H210.193Z" fill="#3A0DA3"/>
<g id="eyes">
    <animateTransform
      attributeName="transform"
      type="translate"
      values="17 0; 0 0; 17 0"
      dur="1s"
      repeatCount="indefinite"
    />
<path id="Vector_2" d="M66.3441 130.46C70.743 130.46 74.309 126.877 74.309 122.457C74.309 118.036 70.743 114.453 66.3441 114.453C61.9452 114.453 58.3792 118.036 58.3792 122.457C58.3792 126.877 61.9452 130.46 66.3441 130.46Z" fill="#3A0DA3"/>
<path id="Vector_3" d="M145.962 129.596C150.36 129.596 153.926 126.013 153.926 121.592C153.926 117.172 150.36 113.589 145.962 113.589C141.563 113.589 137.997 117.172 137.997 121.592C137.997 126.013 141.563 129.596 145.962 129.596Z" fill="#3A0DA3"/>
</g>
</g>
<path id="Vector_4" d="M147.677 184.066C125.885 197.481 104.698 197.481 82.9059 184.066C79.5288 181.985 75.1321 183.042 73.0612 186.435C70.9903 189.829 72.0417 194.247 75.4189 196.328C88.6407 204.492 101.99 208.558 115.307 208.558C128.625 208.558 141.942 204.492 155.196 196.328C158.573 194.247 159.624 189.829 157.553 186.435C155.482 183.042 151.086 181.985 147.709 184.066H147.677Z" fill="#3A0DA3"/>
</g>
<defs>
<clipPath id="clip0_11_362">
<rect width="230" height="276" fill="white"/>
</clipPath>
</defs>
</svg>
