<svg width="168" height="36" viewBox="0 0 168 36" fill="none" xmlns="http://www.w3.org/2000/svg">
<path d="M22.4689 15.8538C22.4689 14.5887 21.4429 13.5574 20.1842 13.5574C18.9255 13.5574 17.8994 14.5887 17.8994 15.8538C17.8994 17.119 18.9255 18.1503 20.1842 18.1503C21.4429 18.1503 22.4689 17.119 22.4689 15.8538ZM19.1456 15.8538C19.1456 15.2776 19.6109 14.81 20.1842 14.81C20.7574 14.81 21.2227 15.2776 21.2227 15.8538C21.2227 16.43 20.7574 16.8977 20.1842 16.8977C19.6109 16.8977 19.1456 16.43 19.1456 15.8538Z" fill="white"/>
<path d="M29.7054 7.01461C29.5974 5.83298 28.6336 4.9144 27.4622 4.87683C20.7533 4.65553 17.5879 1.88309 16.5411 0.697286C16.1464 0.254697 15.5815 0 14.9916 0C14.4017 0 13.8368 0.254697 13.4421 0.701461C12.3953 1.88309 9.22987 4.65971 2.521 4.881C1.34955 4.91858 0.385796 5.83716 0.277789 7.01879C0.00361882 10.0418 -0.0503844 12.6597 0.0410057 14.9228H5.57011C6.03952 13.0104 7.75516 11.5825 9.80313 11.5825C11.7016 11.5825 13.3133 12.8058 13.9115 14.5094C14.6136 14.2255 15.3364 14.2213 16.0384 14.4969C16.6075 12.7432 18.2484 11.4697 20.1842 11.4697C22.2696 11.4697 24.0184 12.952 24.4463 14.9228H29.9463C30.0377 12.6597 29.9837 10.0418 29.7054 7.01461Z" fill="white"/>
<path d="M12.0881 15.9666C12.0881 14.7015 11.062 13.6702 9.80331 13.6702C8.54462 13.6702 7.51855 14.7015 7.51855 15.9666C7.51855 17.2318 8.54462 18.2631 9.80331 18.2631C11.062 18.2631 12.0881 17.2318 12.0881 15.9666ZM8.76478 15.9666C8.76478 15.3904 9.23004 14.9228 9.80331 14.9228C10.3766 14.9228 10.8418 15.3904 10.8418 15.9666C10.8418 16.5428 10.3766 17.0105 9.80331 17.0105C9.23004 17.0105 8.76478 16.5428 8.76478 15.9666Z" fill="white"/>
<path d="M20.1839 20.238C18.1359 20.238 16.4161 18.8058 15.9508 16.8893C15.9259 16.8726 15.901 16.8559 15.8761 16.8351C15.2156 16.2296 14.7711 16.2296 14.1106 16.8351C14.0981 16.8476 14.0856 16.8518 14.0732 16.8643C13.6619 18.8559 11.9047 20.3549 9.80277 20.3549C7.7008 20.3549 6.03916 18.9269 5.56975 17.0146H0.177734C0.77177 23.6117 2.71589 26.6472 3.73779 27.8037C7.8005 33.2317 12.7605 35.3444 14.1853 35.8664C14.4304 35.9582 14.688 36 14.9455 36C15.2696 36 15.5894 35.929 15.8885 35.787C17.2095 35.1607 21.858 32.7432 26.2031 27.8622C27.25 26.6847 29.2107 23.6451 29.8089 17.0146H24.3878C23.881 18.8726 22.1903 20.2421 20.1839 20.2421V20.238ZM20.3043 25.8622C18.5596 26.9353 16.8066 27.4739 15.0494 27.4739C13.2922 27.4739 11.5392 26.9353 9.79447 25.8622C9.30428 25.5616 9.15058 24.9186 9.45383 24.4259C9.75708 23.9332 10.3927 23.7787 10.8828 24.0835C13.6869 25.8121 16.4161 25.8121 19.2201 24.0835C19.7103 23.7829 20.35 23.9373 20.6491 24.4259C20.9482 24.9186 20.7945 25.5616 20.3085 25.8622H20.3043Z" fill="white"/>
<path d="M50.3308 17.1148C51.2073 16.9102 51.9135 16.4802 52.4535 15.8163C52.9935 15.1566 53.2635 14.309 53.2635 13.2693C53.2635 11.9332 52.8149 10.8977 51.9135 10.1587C51.0162 9.41962 49.7284 9.05219 48.0543 9.05219H41.0879V25.6952H48.1955C49.961 25.6952 51.3111 25.2902 52.2416 24.4802C53.1722 23.6701 53.6374 22.5678 53.6374 21.1691C53.6374 20.1628 53.3342 19.286 52.736 18.5428C52.1336 17.7954 51.3319 17.3194 50.3308 17.1148ZM44.3987 11.7161H47.3315C48.208 11.7161 48.856 11.904 49.2798 12.2839C49.7035 12.6597 49.9112 13.1941 49.9112 13.8873C49.9112 14.5804 49.6952 15.1106 49.2673 15.4781C48.8353 15.8497 48.208 16.0334 47.3813 16.0334H44.4029V11.7202L44.3987 11.7161ZM49.5581 22.405C49.0887 22.7891 48.4157 22.9812 47.5392 22.9812H44.3946V18.4092H47.5143C48.3908 18.4092 49.0679 18.6096 49.5415 19.0104C50.0192 19.4113 50.256 19.9791 50.256 20.7182C50.256 21.4572 50.0192 22.0167 49.5539 22.405H49.5581Z" fill="white"/>
<path d="M58.8213 8.25049H55.5146V25.6952H58.8213V8.25049Z" fill="white"/>
<path d="M70.7941 13.2735C69.7847 12.739 68.6465 12.4718 67.3836 12.4718C66.1208 12.4718 64.9784 12.739 63.9731 13.2735C62.9637 13.8079 62.1702 14.5804 61.5928 15.595C61.0154 16.6096 60.7246 17.7996 60.7246 19.1649C60.7246 20.5303 61.0154 21.7202 61.5928 22.7223C62.1702 23.7286 62.9637 24.501 63.9731 25.0438C64.9826 25.5866 66.1208 25.858 67.3836 25.858C68.6465 25.858 69.7888 25.5866 70.7941 25.0438C71.8036 24.501 72.597 23.7286 73.1744 22.7223C73.7519 21.7161 74.0426 20.5303 74.0426 19.1649C74.0426 17.7996 73.7519 16.6054 73.1744 15.595C72.597 14.5804 71.8036 13.8079 70.7941 13.2735ZM69.7265 22.0083C69.0868 22.6597 68.3017 22.9854 67.3795 22.9854C66.4573 22.9854 65.6763 22.6597 65.0324 22.0083C64.3927 21.357 64.0687 20.4092 64.0687 19.1691C64.0687 17.929 64.3885 16.9812 65.0324 16.3298C65.6721 15.6785 66.4531 15.3528 67.3795 15.3528C68.3058 15.3528 69.0827 15.6785 69.7265 16.3298C70.3663 16.9812 70.6861 17.929 70.6861 19.1691C70.6861 20.4092 70.3663 21.357 69.7265 22.0083Z" fill="white"/>
<path d="M81.7108 15.3236C82.4752 15.3236 83.1107 15.524 83.6092 15.9248C84.1077 16.3257 84.4317 16.8726 84.5688 17.5616H88.0624C87.7799 15.9916 87.0821 14.7474 85.9646 13.8371C84.8472 12.9269 83.4514 12.4718 81.7773 12.4718C80.5103 12.4718 79.3845 12.739 78.4 13.2735C77.4155 13.8079 76.647 14.5804 76.1028 15.595C75.5544 16.6096 75.2803 17.7996 75.2803 19.1649C75.2803 20.5303 75.5544 21.7202 76.1028 22.7223C76.6511 23.7286 77.4155 24.501 78.4 25.0438C79.3845 25.5866 80.5103 25.858 81.7773 25.858C83.4514 25.858 84.8472 25.4029 85.9646 24.4927C87.0821 23.5824 87.7841 22.3382 88.0624 20.7683H84.5688C84.4276 21.4614 84.1077 22.0042 83.6092 22.405C83.1066 22.8058 82.4752 23.0062 81.7108 23.0062C80.8343 23.0062 80.1032 22.6806 79.5175 22.0292C78.9317 21.3779 78.6368 20.4217 78.6368 19.1649C78.6368 17.9081 78.9317 16.952 79.5175 16.3006C80.1032 15.6493 80.8343 15.3236 81.7108 15.3236Z" fill="white"/>
<path d="M101.459 12.6388H97.5419L93.2715 18.0584V8.25049H89.9648V25.6952H93.2715V19.9916L97.5627 25.6952H101.596L95.9924 19.144L101.459 12.6388Z" fill="white"/>
<path d="M105.501 8.73489C104.616 9.57414 104.176 10.7725 104.176 12.3299V12.6347H102.51V15.4405H104.176V25.6952H107.482V15.4405H110.108V12.6347H107.482V12.6096C107.482 11.7453 107.677 11.1399 108.068 10.7933C108.458 10.4468 109.14 10.3048 110.108 10.3675V7.49063C109.95 7.47393 109.725 7.46558 109.426 7.46558C107.69 7.46558 106.381 7.88729 105.497 8.72654L105.501 8.73489Z" fill="white"/>
<path d="M120.837 13.2735C119.878 12.739 118.752 12.4718 117.473 12.4718C116.193 12.4718 115.08 12.739 114.095 13.2735C113.111 13.8079 112.342 14.5804 111.798 15.595C111.25 16.6096 110.976 17.7996 110.976 19.1649C110.976 20.5303 111.25 21.7202 111.798 22.7223C112.346 23.7286 113.111 24.501 114.095 25.0438C115.08 25.5866 116.206 25.858 117.473 25.858C118.553 25.858 119.533 25.6534 120.418 25.2442C121.303 24.8351 122.025 24.2714 122.586 23.549C123.151 22.8267 123.517 22.0083 123.687 21.0981H120.194C120.052 21.7411 119.728 22.2547 119.221 22.6305C118.715 23.0062 118.075 23.1983 117.311 23.1983C116.451 23.1983 115.732 22.9227 115.155 22.3716C114.577 21.8204 114.261 20.9645 114.216 19.8037H123.737C123.816 19.3779 123.853 19.0021 123.853 18.6722C123.853 17.4781 123.592 16.4133 123.068 15.4781C122.545 14.5428 121.801 13.8079 120.842 13.2735H120.837ZM120.522 18.3424H114.212C114.274 17.2735 114.61 16.4634 115.221 15.9165C115.832 15.3653 116.579 15.0898 117.473 15.0898C118.366 15.0898 119.089 15.3653 119.691 15.9165C120.293 16.4676 120.572 17.2776 120.522 18.3424Z" fill="white"/>
<path d="M133.491 12.4468C132.461 12.4468 131.547 12.6931 130.758 13.19C129.968 13.6827 129.399 14.3716 129.059 15.2526V12.6347H125.752V25.6952H129.059V18.7641C129.059 17.6159 129.341 16.7391 129.902 16.1253C130.467 15.5115 131.215 15.2067 132.153 15.2067C133.092 15.2067 133.803 15.4948 134.334 16.0668C134.866 16.6388 135.132 17.4447 135.132 18.4844V25.6994H138.414V18.1086C138.414 16.3173 137.969 14.9269 137.076 13.9374C136.183 12.9478 134.991 12.451 133.487 12.451L133.491 12.4468Z" fill="white"/>
<path d="M146.647 15.3236C147.412 15.3236 148.047 15.524 148.546 15.9248C149.044 16.3257 149.368 16.8726 149.505 17.5616H152.999C152.716 15.9916 152.019 14.7474 150.901 13.8371C149.784 12.9269 148.388 12.4718 146.714 12.4718C145.447 12.4718 144.321 12.739 143.337 13.2735C142.352 13.8079 141.583 14.5804 141.039 15.595C140.491 16.6096 140.217 17.7996 140.217 19.1649C140.217 20.5303 140.491 21.7202 141.039 22.7223C141.588 23.7286 142.352 24.501 143.337 25.0438C144.321 25.5866 145.447 25.858 146.714 25.858C148.388 25.858 149.784 25.4029 150.901 24.4927C152.019 23.5824 152.721 22.3382 152.999 20.7683H149.505C149.364 21.4614 149.044 22.0042 148.546 22.405C148.043 22.8058 147.412 23.0062 146.647 23.0062C145.771 23.0062 145.04 22.6806 144.454 22.0292C143.868 21.3779 143.573 20.4217 143.573 19.1649C143.573 17.9081 143.868 16.952 144.454 16.3006C145.04 15.6493 145.771 15.3236 146.647 15.3236Z" fill="white"/>
<path d="M167.123 18.6722C167.123 17.4781 166.861 16.4133 166.337 15.4781C165.814 14.5428 165.07 13.8079 164.111 13.2735C163.151 12.739 162.025 12.4718 160.746 12.4718C159.467 12.4718 158.353 12.739 157.369 13.2735C156.384 13.8079 155.616 14.5804 155.072 15.595C154.523 16.6096 154.249 17.7996 154.249 19.1649C154.249 20.5303 154.523 21.7202 155.072 22.7223C155.62 23.7286 156.384 24.501 157.369 25.0438C158.353 25.5866 159.479 25.858 160.746 25.858C161.826 25.858 162.806 25.6534 163.691 25.2442C164.576 24.8351 165.299 24.2714 165.86 23.549C166.425 22.8267 166.79 22.0083 166.961 21.0981H163.467C163.326 21.7411 163.002 22.2547 162.495 22.6305C161.988 23.0062 161.348 23.1983 160.584 23.1983C159.724 23.1983 159.005 22.9227 158.428 22.3716C157.851 21.8204 157.535 20.9645 157.489 19.8037H167.01C167.089 19.3779 167.127 19.0021 167.127 18.6722H167.123ZM163.791 18.3424H157.481C157.543 17.2735 157.88 16.4634 158.49 15.9165C159.101 15.3653 159.849 15.0898 160.742 15.0898C161.635 15.0898 162.358 15.3653 162.96 15.9165C163.563 16.4676 163.841 17.2776 163.791 18.3424Z" fill="white"/>
</svg>
