<svg width="100%" height="100%" viewBox="0 0 50 61" fill="none" xmlns="http://www.w3.org/2000/svg">
<path d="M37.4641 26.4344C37.4641 24.3249 35.7532 22.6053 33.6545 22.6053C31.5558 22.6053 29.845 24.3249 29.845 26.4344C29.845 28.5438 31.5558 30.2634 33.6545 30.2634C35.7532 30.2634 37.4641 28.5438 37.4641 26.4344ZM31.9229 26.4344C31.9229 25.4736 32.6987 24.6939 33.6545 24.6939C34.6104 24.6939 35.3861 25.4736 35.3861 26.4344C35.3861 27.3951 34.6104 28.1749 33.6545 28.1749C32.6987 28.1749 31.9229 27.3951 31.9229 26.4344Z" fill="white"/>
<path d="M49.5301 11.696C49.35 9.72577 47.743 8.19416 45.7898 8.1315C34.6036 7.76252 29.3256 3.13982 27.5802 1.16264C26.9222 0.424676 25.9802 0 24.9966 0C24.0131 0 23.0711 0.424676 22.4131 1.1696C20.6676 3.13982 15.3897 7.76948 4.20346 8.13846C2.2502 8.20112 0.643266 9.73274 0.463179 11.703C0.00603394 16.7434 -0.0840098 21.1085 0.0683719 24.8818H9.28746C10.0701 21.6933 12.9308 19.3123 16.3455 19.3123C19.5109 19.3123 22.1983 21.3521 23.1957 24.1926C24.3663 23.7192 25.5715 23.7122 26.7421 24.1717C27.691 21.2477 30.427 19.1243 33.6547 19.1243C37.1317 19.1243 40.0478 21.5958 40.7612 24.8818H49.9318C50.0842 21.1085 49.9941 16.7434 49.5301 11.696Z" fill="white"/>
<path d="M20.1547 26.6223C20.1547 24.5128 18.4439 22.7932 16.3452 22.7932C14.2465 22.7932 12.5356 24.5128 12.5356 26.6223C12.5356 28.7317 14.2465 30.4513 16.3452 30.4513C18.4439 30.4513 20.1547 28.7317 20.1547 26.6223ZM14.6136 26.6223C14.6136 25.6615 15.3893 24.8818 16.3452 24.8818C17.301 24.8818 18.0768 25.6615 18.0768 26.6223C18.0768 27.583 17.301 28.3627 16.3452 28.3627C15.3893 28.3627 14.6136 27.583 14.6136 26.6223Z" fill="white"/>
<path d="M33.6544 33.7442C30.2396 33.7442 27.3721 31.3562 26.5963 28.1607C26.5548 28.1329 26.5132 28.105 26.4716 28.0702C25.3703 27.0607 24.6292 27.0607 23.5279 28.0702C23.5071 28.0911 23.4863 28.0981 23.4656 28.119C22.7798 31.4398 19.85 33.9391 16.3452 33.9391C12.8404 33.9391 10.0698 31.5581 9.28715 28.3696H0.296631C1.28711 39.3694 4.52868 44.4307 6.23259 46.3591C13.0066 55.4096 21.2768 58.9323 23.6526 59.8026C24.0612 59.9557 24.4907 60.0253 24.9201 60.0253C25.4604 60.0253 25.9937 59.907 26.4924 59.6703C28.695 58.626 36.4457 54.5951 43.6908 46.4566C45.4362 44.4933 48.7055 39.4251 49.7029 28.3696H40.6639C39.8189 31.4676 36.9998 33.7511 33.6544 33.7511V33.7442ZM33.8552 43.1218C30.9461 44.9111 28.0232 45.8091 25.0933 45.8091C22.1634 45.8091 19.2404 44.9111 16.3313 43.1218C15.514 42.6206 15.2577 41.5485 15.7634 40.727C16.269 39.9054 17.3287 39.6479 18.1461 40.1561C22.8214 43.0383 27.3721 43.0383 32.0474 40.1561C32.8647 39.6548 33.9314 39.9124 34.4301 40.727C34.9288 41.5485 34.6725 42.6206 33.8621 43.1218H33.8552Z" fill="white"/>
</svg>
