<svg viewBox="0 0 25 26" fill="none" xmlns="http://www.w3.org/2000/svg">
<g clip-path="url(#clip0_35_112)">
<path d="M12.5 0C5.59375 0 0 5.8175 0 13C0 20.1825 5.59375 26 12.5 26C19.4063 26 25 20.1825 25 13C25 5.8175 19.4063 0 12.5 0ZM4.4375 7.03625C4.5 6.4025 5.01562 5.915 5.65625 5.8825C9.34375 5.76875 11.0781 4.2575 11.6563 3.6075C11.875 3.36375 12.1719 3.23375 12.5 3.23375C12.8125 3.23375 13.125 3.36375 13.3437 3.6075C13.9219 4.2575 15.6563 5.7525 19.3438 5.8825C19.9844 5.89875 20.5 6.4025 20.5625 7.03625C20.6562 8.0275 20.75 9.5875 20.6719 11.2775H17.5938C17.3594 10.205 16.4219 9.3925 15.3125 9.3925C14.2813 9.3925 13.4063 10.0912 13.0938 11.0662C12.6875 10.92 12.2656 10.92 11.8594 11.0662C11.5313 10.1237 10.6719 9.4575 9.67188 9.4575C8.57813 9.4575 7.67187 10.2375 7.40625 11.2775H4.34375C4.34375 11.2775 4.34375 11.2775 4.3125 11.2775C4.25 9.5875 4.34375 8.01125 4.42187 7.02L4.4375 7.03625ZM16.4844 11.83C16.4844 12.4963 15.9531 13.0487 15.3125 13.0487C14.6719 13.0487 14.1406 12.4963 14.1406 11.83C14.1406 11.1638 14.6719 10.6113 15.3125 10.6113C15.9531 10.6113 16.4844 11.1638 16.4844 11.83ZM10.8438 11.895C10.8438 12.5613 10.3125 13.1137 9.67188 13.1137C9.03125 13.1137 8.5 12.5613 8.5 11.895C8.5 11.2288 9.03125 10.6763 9.67188 10.6763C10.3125 10.6763 10.8438 11.2288 10.8438 11.895ZM12.9844 22.6363C12.8281 22.7175 12.6406 22.75 12.4688 22.75C12.3281 22.75 12.1875 22.7338 12.0625 22.685C11.2812 22.4088 8.5625 21.255 6.34375 18.3138C5.125 16.9488 4.60937 14.7062 4.40625 12.5125H7.42188C7.6875 13.5687 8.59375 14.3325 9.6875 14.3325C10.7812 14.3325 11.7656 13.5038 11.9844 12.3988C12.3594 12.09 12.6719 12.1063 13.0625 12.3988C13.3125 13.4713 14.2344 14.2675 15.3281 14.2675C16.4219 14.2675 17.2812 13.52 17.5625 12.4963H20.5938C20.3906 14.7063 19.8594 16.965 18.625 18.33C16.25 20.9787 13.6875 22.2788 12.9688 22.62L12.9844 22.6363Z" fill="currentColor"/>
<path d="M14.8283 16.2662C13.2814 17.2087 11.7814 17.2087 10.2501 16.2662C9.96889 16.0875 9.60951 16.2012 9.45326 16.4775C9.29701 16.77 9.39076 17.1437 9.65639 17.3062C10.6095 17.8912 11.5783 18.1837 12.5314 18.1837C13.4845 18.1837 14.4533 17.8912 15.4064 17.3062C15.6876 17.1437 15.7814 16.77 15.6095 16.4775C15.4376 16.185 15.0939 16.0875 14.8126 16.2662H14.8283Z" fill="currentColor"/>
<path d="M15.3281 12.5125C15.656 12.5125 15.9219 12.236 15.9219 11.895C15.9219 11.5539 15.656 11.2775 15.3281 11.2775C15.0002 11.2775 14.7344 11.5539 14.7344 11.895C14.7344 12.236 15.0002 12.5125 15.3281 12.5125Z" fill="currentColor"/>
<path d="M9.64062 12.5613C9.96854 12.5613 10.2344 12.2848 10.2344 11.9438C10.2344 11.6028 9.96854 11.3263 9.64062 11.3263C9.31271 11.3263 9.04688 11.6028 9.04688 11.9438C9.04688 12.2848 9.31271 12.5613 9.64062 12.5613Z" fill="currentColor"/>
</g>
<defs>
<clipPath id="clip0_35_112">
<rect width="25" height="26" fill="white"/>
</clipPath>
</defs>
</svg>
