<svg viewBox="0 0 25 29" fill="none" xmlns="http://www.w3.org/2000/svg">
<path d="M8.62619 14.2319C9.07235 14.2319 9.43403 13.8683 9.43403 13.4199C9.43403 12.9714 9.07235 12.6079 8.62619 12.6079C8.18004 12.6079 7.81836 12.9714 7.81836 13.4199C7.81836 13.8683 8.18004 14.2319 8.62619 14.2319Z" fill="#3A0DA3"/>
<path d="M16.7014 14.1442C17.1475 14.1442 17.5092 13.7807 17.5092 13.3322C17.5092 12.8838 17.1475 12.5203 16.7014 12.5203C16.2552 12.5203 15.8936 12.8838 15.8936 13.3322C15.8936 13.7807 16.2552 14.1442 16.7014 14.1442Z" fill="#3A0DA3"/>
<path d="M24.1073 6.45652C24.0233 5.53737 23.2736 4.82283 22.3624 4.7936C17.1438 4.62146 14.6815 2.46487 13.8672 1.54247C13.5602 1.19819 13.1208 0.996826 12.6619 0.996826C12.2031 0.996826 11.7636 1.19495 11.4566 1.54247C10.6423 2.46162 8.18004 4.62146 2.96142 4.7936C2.05019 4.82283 1.30052 5.53737 1.2165 6.45652C0.247099 17.1356 2.75785 21.3123 3.91144 22.6342C7.06846 26.8467 10.9234 28.4902 12.0318 28.8929C12.2257 28.9643 12.4228 28.9968 12.6231 28.9968C12.8752 28.9968 13.124 28.9416 13.3566 28.8312C14.3842 28.344 18.0033 26.4635 21.3801 22.6667C22.5272 21.3805 25.0864 17.2233 24.1073 6.45327V6.45652ZM19.9292 21.3643C16.882 24.7876 13.6539 26.5187 12.6134 27.0221C11.5309 26.6161 8.22204 25.1318 5.47218 21.4552C5.44309 21.4163 5.41401 21.3773 5.38816 21.3481C4.07624 19.8605 3.38796 17.1648 3.1133 14.1508H5.39785C5.73068 15.635 7.0523 16.7491 8.62596 16.7491C10.1996 16.7491 11.5729 15.5961 11.8735 14.0696C11.8896 14.0566 11.9058 14.0468 11.9219 14.0338C12.4616 13.5369 12.8655 13.5369 13.4051 14.0338C13.4277 14.0566 13.4536 14.0728 13.4794 14.089C13.822 15.5603 15.1339 16.6614 16.7011 16.6614C18.2683 16.6614 19.5447 15.5928 19.9066 14.1508H22.2137C21.9391 17.1745 21.2476 19.88 19.926 21.3643H19.9292ZM6.76794 13.42C6.76794 12.3904 7.60163 11.5524 8.62596 11.5524C9.6503 11.5524 10.484 12.3904 10.484 13.42C10.484 14.4496 9.6503 15.2875 8.62596 15.2875C7.60163 15.2875 6.76794 14.4496 6.76794 13.42ZM14.8431 13.3323C14.8431 12.3027 15.6767 11.4648 16.7011 11.4648C17.7254 11.4648 18.5591 12.3027 18.5591 13.3323C18.5591 14.3619 17.7254 15.1998 16.7011 15.1998C15.6767 15.1998 14.8431 14.3619 14.8431 13.3323ZM22.3171 12.6892H19.9518C19.6513 11.1595 18.3103 10.0032 16.7043 10.0032C15.205 10.0032 13.9383 11.01 13.5311 12.3839C12.9527 12.1371 12.3549 12.1403 11.7798 12.3936C11.35 11.0588 10.0995 10.0909 8.62919 10.0909C7.0523 10.0909 5.73391 11.2049 5.40109 12.6892H3.01636C2.92265 10.7047 2.98728 8.64559 3.1553 6.74558C8.47409 6.54096 11.3306 4.49804 12.6684 3.11445C14.0061 4.4948 16.8659 6.54096 22.1814 6.74558C22.3495 8.64234 22.4141 10.7015 22.3204 12.6892H22.3171Z" fill="#3A0DA3"/>
<path d="M15.9933 19.802C13.7831 21.1629 11.6342 21.1629 9.42399 19.802C9.08147 19.5909 8.63554 19.6981 8.4255 20.0424C8.21547 20.3867 8.3221 20.8349 8.66462 21.046C10.0056 21.8742 11.3596 22.2867 12.7103 22.2867C14.061 22.2867 15.4117 21.8742 16.7559 21.046C17.0984 20.8349 17.2051 20.3867 16.995 20.0424C16.785 19.6981 16.3391 19.5909 15.9965 19.802H15.9933Z" fill="#3A0DA3"/>
</svg>
