<?xml version="1.0" encoding="UTF-8" standalone="no"?>
<!DOCTYPE svg PUBLIC "-//W3C//DTD SVG 1.1//EN" "http://www.w3.org/Graphics/SVG/1.1/DTD/svg11.dtd">
<svg width="100%" height="100%" viewBox="0 0 50 61" version="1.1" xmlns="http://www.w3.org/2000/svg" xmlns:xlink="http://www.w3.org/1999/xlink" xml:space="preserve" xmlns:serif="http://www.serif.com/" style="fill-rule:evenodd;clip-rule:evenodd;stroke-linejoin:round;stroke-miterlimit:2;">
    <path d="M37.464,26.434C37.464,24.325 35.753,22.605 33.655,22.605C31.556,22.605 29.845,24.325 29.845,26.434C29.845,28.544 31.556,30.263 33.655,30.263C35.753,30.263 37.464,28.544 37.464,26.434ZM31.923,26.434C31.923,25.474 32.699,24.694 33.655,24.694C34.61,24.694 35.386,25.474 35.386,26.434C35.386,27.395 34.61,28.175 33.655,28.175C32.699,28.175 31.923,27.395 31.923,26.434Z" style="fill:white;fill-rule:nonzero;"/>
    <path d="M49.53,11.696C49.35,9.726 47.743,8.194 45.79,8.132C34.604,7.763 29.326,3.14 27.58,1.163C26.922,0.425 25.98,0 24.997,0C24.013,0 23.071,0.425 22.413,1.17C20.668,3.14 15.39,7.769 4.203,8.138C2.25,8.201 0.643,9.733 0.463,11.703C0.006,16.743 -0.084,21.109 0.068,24.882L9.287,24.882C10.07,21.693 12.931,19.312 16.346,19.312C19.511,19.312 22.198,21.352 23.196,24.193C24.366,23.719 25.572,23.712 26.742,24.172C27.691,21.248 30.427,19.124 33.655,19.124C37.132,19.124 40.048,21.596 40.761,24.882L49.932,24.882C50.084,21.109 49.994,16.743 49.53,11.696Z" style="fill:white;fill-rule:nonzero;"/>
    <path d="M20.155,26.622C20.155,24.513 18.444,22.793 16.345,22.793C14.246,22.793 12.536,24.513 12.536,26.622C12.536,28.732 14.246,30.451 16.345,30.451C18.444,30.451 20.155,28.732 20.155,26.622ZM14.614,26.622C14.614,25.662 15.389,24.882 16.345,24.882C17.301,24.882 18.077,25.662 18.077,26.622C18.077,27.583 17.301,28.363 16.345,28.363C15.389,28.363 14.614,27.583 14.614,26.622Z" style="fill:white;fill-rule:nonzero;"/>
    <path d="M33.654,33.744C30.24,33.744 27.372,31.356 26.596,28.161C26.555,28.133 26.513,28.105 26.472,28.07C25.37,27.061 24.629,27.061 23.528,28.07C23.507,28.091 23.486,28.098 23.466,28.119C22.78,31.44 19.85,33.939 16.345,33.939C12.84,33.939 10.07,31.558 9.287,28.37L0.297,28.37C1.287,39.369 4.529,44.431 6.233,46.359C13.007,55.41 21.277,58.932 23.653,59.803C24.061,59.956 24.491,60.025 24.92,60.025C25.46,60.025 25.994,59.907 26.492,59.67C28.695,58.626 36.446,54.595 43.691,46.457C45.436,44.493 48.706,39.425 49.703,28.37L40.664,28.37C39.819,31.468 37,33.751 33.654,33.751L33.654,33.744ZM33.855,42.843C32.606,42.075 31.354,41.471 30.1,41.032C28.434,40.448 26.765,40.156 25.093,40.156C22.163,40.156 19.24,41.054 16.331,42.843C15.514,43.345 15.258,44.417 15.763,45.238C16.269,46.06 17.329,46.317 18.146,45.809C22.821,42.927 27.372,42.927 32.047,45.809C32.865,46.31 33.931,46.053 34.43,45.238C34.929,44.417 34.673,43.345 33.862,42.843L33.855,42.843Z" style="fill:white;"/>
</svg>
