<svg width="470" height="180" viewBox="0 0 470 180" fill="none" xmlns="http://www.w3.org/2000/svg">
<path d="M430.24 152.161C426.601 155.151 422.963 158.152 419.324 161.142C418.104 162.146 416.774 163.022 415.658 164.128C411.91 167.84 411.344 172.486 414.094 176.177C416.648 179.604 421.085 180.853 425.392 178.241C437.29 171.023 449.009 163.512 460.608 155.823C463.153 154.134 465.179 151.45 466.979 148.894C470.934 143.267 470.149 134.864 465.187 130.127C463.774 128.78 461.605 127.754 459.661 127.511C443.582 125.448 428.495 120.356 414.039 113.184C412.397 112.37 410.719 111.575 408.988 110.989C403.629 109.176 399.794 110.14 397.85 113.653C395.724 117.486 396.977 121.629 401.842 125.07C405.038 127.336 408.63 129.054 412.066 130.97C414.078 132.092 416.139 133.114 419.712 134.978C415.018 135.711 411.966 136.244 408.896 136.658C368.406 142.12 328.098 139.565 287.739 134.683C221.766 126.697 161.494 103.203 105.21 68.6775C84.148 55.7601 63.2782 42.5116 42.7628 28.7489C34.0829 22.9315 26.533 15.4158 18.4959 8.6444C15.8779 6.44146 13.4123 4.06691 10.7492 1.92626C8.19474 -0.117834 5.32566 -0.333051 2.86401 1.94255C0.355983 4.25883 0.554454 7.15764 2.33256 9.82215C3.63515 11.7776 5.23061 13.5532 6.78796 15.3256C19.8945 30.2851 35.3456 42.4556 51.9216 53.3021C78.1048 70.4316 104.336 87.4607 131.915 102.34C189.592 133.466 251.445 149.511 316.479 154.729C352.564 157.625 388.481 157.323 424.263 151.446C426.013 151.159 427.802 151.08 429.575 150.905C429.8 151.32 430.031 151.74 430.256 152.154L430.24 152.161Z" fill="white"/>
</svg>
