<svg width="973" height="804" viewBox="0 0 973 804" fill="none" xmlns="http://www.w3.org/2000/svg">
<path d="M2.90995 567.274C12.198 668.045 97.638 741.63 185.691 778.498C231.262 797.582 281.781 809.927 331.001 798.993C390.911 785.683 428.27 737.355 477.084 704.682C593.367 626.831 677.477 749.652 786.854 770.794C890.344 790.795 971.029 693.78 971.992 596.742C972.598 535.742 946.964 490.125 914.711 440.84C880.467 388.509 854.642 330.866 850.165 267.833C846.318 213.603 852.913 156.782 830.386 105.663C806.489 51.4256 755.039 17.2213 698.275 5.21905C571.621 -21.5687 464.88 59.7993 372.407 134.46C320.709 176.201 267.777 216.387 214.558 256.173C160.336 296.71 103.031 334.75 60.5417 388.365C20.1079 439.389 -3.14398 501.665 2.90198 567.282C-7.45342 454.868 14.1097 688.916 2.90198 567.282L2.90995 567.274Z" fill="#5C1C85"/>
</svg>
